<mxfile host="app.diagrams.net" modified="2021-09-26T06:29:19.288Z" agent="5.0 (Windows NT 10.0; Win64; x64) AppleWebKit/537.36 (KHTML, like Gecko) Chrome/94.0.4606.61 Safari/537.36" etag="rpQqzom0iHYbBAw6xcme" version="15.3.2" type="github">
  <diagram id="R2lEEEUBdFMjLlhIrx00" name="Page-1">
    <mxGraphModel dx="2377" dy="347" grid="1" gridSize="10" guides="1" tooltips="1" connect="1" arrows="1" fold="1" page="1" pageScale="1" pageWidth="850" pageHeight="1100" math="0" shadow="0" extFonts="Permanent Marker^https://fonts.googleapis.com/css?family=Permanent+Marker">
      <root>
        <mxCell id="0" />
        <mxCell id="1" parent="0" />
        <mxCell id="ajZ8VFf2TZVzlizMMy2S-1" value="" style="shape=image;verticalLabelPosition=bottom;labelBackgroundColor=#ffffff;verticalAlign=top;aspect=fixed;imageAspect=0;image=data:image/png,iVBORw0KGgoAAAANSUhEUgAAA1oAAADECAYAAACGJlAwAAAgAElEQVR4Ae2dPZostbK172jONBgGg2AODIERMAAGgImNiYmHuz1c3P6el/u93CBOZKayKqu7qvcy6pFSit8VS0opex/O//znP/95yy8YhAPhQDgQDoQD4UA4EA6EA+FAOHAdB/4nYF4HZrAMluFAOBAOhAPhQDgQDoQD4UA4AAdy0cpf9PIXzXAgHAgHwoFwIBwIB8KBcCAcuJgDuWhdDGi+YOQLRjgQDoQD4UA4EA6EA+FAOBAO5KKVi1a+XoQD4UA4EA6EA+FAOBAOhAPhwMUceJeL1p9//vn2119/vX3//fcp4MUFzNeSfC0JB8KBcCAcCAfCgXAgHAgHno8Dyxet77777s0LE5em/mPut99+e0OuF1rdL1++/Necsj///PM/Nh1baX/66aeb9FZsR+b5CJuapCbhQDgQDoQD4UA4EA6EA6/AgeWLFsnwFykvWL///vs/lybGvYTRfvvtt//MCYKXLS5UjtX2louWNo2p2ks/CzAcCAfCgXAgHAgHwoFwIBwIBz6KA5dctAj+l19++ecSxl+ZpoS4GNUL2iRzZuyPP/74xyeXrTO6kc2iCwfCgXAgHAgHwoFwIBwIB8KBR3HgsotW/YvUjz/++PBLD/74p4j1svUokGI3CzAcCAfCgXAgHAgHwoFwIBwIB85w4LKLln/R4p8OfvPNN/9ctPhnhMzVCxF9/rploFzM/Od/K3+ZQhc5/skifyFTV3tpswjCgXAgHAgHwoFwIBwIB8KBcOAjOXDJRcuLUr9A+R+q4C9PXLi4gNHnYtT/wxhe1I4uWtpAHuBy0coC+sgFFN/hXzgQDoQD4UA4EA6EA+HAxIGbL1r+Fam2v/7667/+muU/J6TVuWP9QrU1rp4tFywuaf7VLBetEFtupA0XwoFwIBwIB8KBcCAcCAeehQM3X7Tqf9Si/lcH+auWl6Apya0L1dZ4teF/9ZDW8X7R4j8xjy3n02axhQPhQDgQDoQD4UA4EA6EA+HAe3PgkosWQfvPBPlLVf2vDvJPBrn4cCHyPwHvX8FqsisXrXqp0sbU5qKVhVS5lX74EA6EA+FAOBAOhAPhQDjw3hy47KLlX5u4+HjR8X+7xRiXL/7StXWh2ho/AqRevo5kM58FFg6EA+FAOBAOhAPhQDgQDoQD78GByy5a01+0/AsWlyGT2bpQbY2rt9XmopWFssWNjIcb4UA4EA6EA+FAOBAOhAMfxYFLLlpb/xut+l8Y5K9Z/DNCx/grV/1PvNf/6mAdPwKm/mfjsX8kn/kstnAgHAgHwoFwIBwIB8KBcCAceDQHli9aXH78C9X0v4viAsVlqf6HMNDxIoQu/1XC+s8JGSPBOoZtx4+S5z98UWNZ1Tuym/ksvHAgHAgHwoFwIBwIB8KBcCAcuIcDyxete5xENyQNB8KBcCAcCAfCgXAgHAgHwoGviQPLF636l6NX6H9NRUyu2bTCgXAgHAgHwoFwIBwIB8KB5+LA8kUrhXuuwqUeqUc4EA6EA+FAOBAOhAPhQDjwvBzIRes/z1ucLJzUJhwIB8KBcCAcCAfCgXAgHHhNDuSilYtW/kuN4UA4EA6EA+FAOBAOhAPhQDhwMQdy0boY0HxxeM0vDqlb6hYOhAPhQDgQDoQD4UA4cCUHctHKRStfL8KBcCAcCAfCgXAgHAgHwoFw4GIO5KJ1MaBX3oJjK19VwoFwIBwIB8KBcCAcCAfCgdfkQC5auWjl60U4EA6EA+FAOBAOhAPhQDgQDlzMgVy0LgY0Xxxe84tD6pa6hQPhQDgQDoQD4UA4EA5cyYFctHLRyteLcCAcCAfCgXAgHAgHwoFwIBy4mAO5aF0M6JW34NjKV5VwIBwIB8KBcCAcCAfCgXDgNTmQi1YuWvl6EQ6EA+FAOBAOhAPhQDgQDoQDF3MgF62LAc0Xh9f84pC6pW7hQDgQDoQD4UA4EA6EA1dyIBetXLTy9SIcCAfCgXAgHAgHwoFwIBwIBy7mQC5aFwN65S04tvJVJRwIB8KBcCAcCAfCgXAgHHhNDuSilYtWvl6EA+FAOBAOhAPhQDgQDoQD4cDFHMhF62JA88XhNb84pG6pWzgQDoQD4UA4EA6EA+HAlRzIRSsXrXy9CAfCgXAgHAgHwoFwIBwIB8KBizmQi9bFgF55C46tfFUJB8KBcCAcCAfejwPffvvt25cvX97++uuvtx9++CGHzpyRXpYDf/zxx9uvv/76svF/ln0vF61sIlmE4cBDOMAGz2Hl999/f4j9z7IJJ4/3O0QH62C9yoGff/45F628G1/63fXdd9+9/fnnn298PFjlfeSu3yNz0VrYSH788ce/D4wcGvltkfann376R+633377L2J/8803b3xhgPgsgPci9Ef5fXR+fnU8e5B386GWV8UIR6grNnlBH9n9/vvv/5adeHKk+wrz5Edd4N6VOJP7L7/88s86w88WHmCL7z2ZLd1XHCfXe16q7E3YuLJetVZbmLo/vVKt9vYQeH8lhu+xV1iD9343wYmze+cWj+4dr/sF9SWue22if3ZdyZ/3PCP0PM/GXPX9wLbyHqx6t/SpUY2VMwH+4XO3Z1xX1bXbf9Zn/irL2dTz6dV1eZb1ewb/vf37jJ1V2Vy0Fi5agFnJBGEngD34s/CneTZQFjuHD2SnzWDSu3fso/zeG/eRPvhxoCG/I1nnPVCA/9UHcDY04lnZyIjDQ+iKvPG/Wsu6ecSLTey2agim1AK591pnH10b+MdBmf3n1pw9tFyZiwecLZvME/fWvrql91HjR3uIB+Wr4nuPveKj3xFn9s6rcK124B7cp4WLt66farP2z6wr9jTeT4+Io8Z01D8Ts7bY699r33Xf8P1Czdxr+nuB90Gt70deYsXqPVsvFmAFrzo+98by0ev3TPxH+/cZW6uyuWgtXrQgJi8jFiubYAfYzREZfn0eIrIJOA7hpwM2utO4emfbVb9n7d4if3VuxHD2osWL9FGHbziwetESP3Tg1NUvdu1/ZMtffqe1cEVMXqTAr9tzI53muuyzPt+6VsidL/MePs7mh184fFavy2sHW/XXa8IBANmtfyXQ7T7D8yP3kL38HrVXPMM7gtzO7p17WJ2ZY83AQfdg1g41PmPjSNb1cCTnPLHwnrryLKDt1fZszNjlXdbX+Kq/M3LUB75M+1z/iOp7yPqy53zUvyShnuB6JtcrZMnXyyVtPYteYf8j1+/Z+D9i/85F6+RFywUuaS0yxHUR3bqQ2Ag+6mVjHo9qH5UbeN2K99W5vtJmc3Xu721v76L13rFc7e9Ra2UlzlsOV0d2rdWRXOav/98GvAqmn33vfMS6enRtnzlm/+L3aAyuts9F9FnOK1fm9tnX771Y5aJ14qLF4vYQVL8IOEbLIpoWkl9RuBjwY8HxJdEC8mUG+87bckhRZmqxgS3lsVG/8hz5xaZ+iRt5WuzxJ+ZqS//EpI5+bVlwytnu5YYPdcWUGOo4z9rqLbpT3BNuxOG/w1ePmmnTnCZ7Ew7q2dbNhrpUe9UP8nxl44ulMh1r/IkLdslHTIiv2+t1Vtc8jXFqO4eogx8OlNd3xRUZ/ShHS2x8kKi8JNcqY963Yk0c+JZvta7Y1pd+kCUmx6f2CAcwNl/9Ykcf5KJd8UL+DK/31krnRJUlnj5PLHUtgVnlJXH3tUUOxEwNrW/npjlOrXrmDwesTZfveNevrrfEfs8aABvraI1ta62rHDmCUV2LYoZuz7c+Vzkwcq6uGerJ+NFeoW5tay6uPfBxnNit/ZH9ziswsL7TXlTjqP2KHfiQqzGAMWPIVI52+3KprrUeHz6VwyY5G4f5M173gxobMmKPHjGab48PWXPQx9SeWVf4rvF3DCp3XG/kw89a1xhqbsrZVm5XHfpnYgaDGjO1pY7dJv6IXzxX8at28EX8+KvjW30xqj7BpMrLC3LGvrmjU7mgzllMsVnXtvjjp+JGHPowJmQrV52vbY+nri3kjjilr9X8q2/6df06Z44Va/qOI+ezNWWucrLGpd299l4csN35Qkzgsuf3aC4XrRMXLQAHUBYGC1BwWQRsHjxTkF4USIQ8MhTRQmKvb0aMVWLqY2rRRd5FyAsTYqp/xi96/NioiU9bNU9icGG4GGiR6TlP8U654Yfxru/CNbfJHmPo1rgrtnWDpGZsPvhDD7vo9hfTKg5TPMYMHsZtjeQHem4qyhCTmzDxa5v4xUa8xV9dZNHBJznSrxiop83eGp/2qq480gex1DHGqRvj1S6xrHD9HqzFoeaHvR4LcTEGNjXG3l/FQbnqVx+Vw1fwumONHzlBPtSMeMDbeJz3GR1jgWPWmfkJF+tJix58cIznjlt/xgd1gOPM4Yf4el2M03iwjS6y1Q99dI9iJ050b1kDnUvGXOtJLnC6Yq0csVUckOv51nn74uqzLbrWfnWvUNdWPHoO1p0W2VX71gt76oqbNdT31LLPduzIU1vGhYz2XGt178Q2ePe8jEV7yK3uBz22ydYqD6fcGbPWtNjaWlfwl/xcA2ABTv09JcdotYcusq49/PZcwAeMO35T3Ksx4w+bxEJe/IyPGmqbXDoHeO7rR/mtVq6Q25aM48SC/RVMV99H92I6Yb/KVfOqbeev+LgWVjm1mn/1bV+ftSbuLXWs8h5dsaTvejdubcPpCTPnba/CofOlxqivs20uWjdctCSEmwgElRwUqZPCTQeS1QKxyaBbxyBVJWad6310WUR93Oczfom5xyLB6saNXM8PghO3frfardzIASyqHi/2Hk+dt49NMPeZFpwZ73FWGfqTzCoO3RbPbjb9pUhuR7GItTyq9sCi+iPuWnf9Vl0xOOLSxCEPFV0Xv32MvBiv8fW+8U26vcbIYK9yrtvjWbmas4eSqmsuHlwmW4yt4mAu1S/6xNxrfC+vO1740f80V+en+NgPkPFHvH3dWc+6V4lrt6kdWw/j7ouOuw/5TAvefd36Yu5xgm0f67GLS41xdQ1gi1+Nr+9p8qivbbGpa1RuVntTf8ILDKhJxb/rar/m2mV4Fvdqi3h7rl13si++NU/0qE3di7otnsUO39M8Y9rv+E5751SvKWZrs7cfbMU25bXCw638iBn9XgvGjuqITK+Z+dZ9TQwrzhNWndv3xjzxDJvUru/v3Ze49PG9Z89fYLAnx9y0xhiHs+Ba8SOWHq84Vw7diyn6Pe4VrnYdnrf4O8nWsYlTq/lXO/blXq8JfvqYmLIW6ntAG309TLHq1/YqHORLrbc+7mlz0SoHjz0gJYEybCIsVsbr4pxIgWw/VGAHYiOvTdqJmHXePkQ4kj3jd9o8XBCV+JPc6sa9Fa8bZz2g4ae/1M29tthEto7RZ4y5Pl6fJ90pvwmHase+HOkby2RTHdvJh/Yq/sj3uCc5NjHkeiz6o5VD9cXs/KQ7ja3gbHw9lgmXCQdjqu0kZ871sIZcP6RXO/TP4GAuRzXB7r287nhhc8u/OW3Nr9ZuqueWTX3aeniph0nmrJVy4l3r5BxxEoPPtCuxTzHKhwnHan/iYd/TPAjVPQob+q0+er7VV+0bX+Un/WqrytvXPr4dm1r5V/dR3lVHepN98+y6U716LGLXdauc9nvuU22msSlm8a08Q67ivRUbPnh/1hhXeFjlax976Ncxc97DBfkJY/Od7FUMJ6w6t6uN2l+N+cw5o9qnP/noMv1Z3GqeXcbnoz2pYj9hJc5HcmcwxY/x2a5wVdnabvG3ykz9iVOr+U/2tmoyrRkxZY5zMe8DbGqjYs34FGuP4Soc5Eu3f+9zLlo3XrRcWJCTIluIiRTTGPLoMqcuLc8rG8gWKbutaVFPfhnrsi6ISnzHfHmzSNho68urxlD7e7lhA5Ijr82qu9U/gy0x44PFjd6ku4rDFI816fWbbPIFBg4xR+7GU7HWXh3Db4+bTdqXHX1kqAdy9Ytdj3nLvj56HtjrY8TPeLVNDKwJ5jjYMb+li0zVlV895ypDf0uO+oKF8vTdyB3r7RkctmTJr+eCH/zfyuuONfa2/JvT1vwW/oyrSzvVc8tm1dvSZdxaKa+9Kb8Jx5XYb10DNb69Pc0ciN08aKdclK1yW33WqXw1h75mV/aKLfusP/lHrPWjoDor9s2z5z/VS7u2K3hov3MCPvZ1NY3po8d3tB+oRx7TzxxoV3hY5Wv/zLpaeU8Zd/UxYajcHrerjdpfjXmLA1v6cN45Ma9+j/rmuXLm0E+3KS6VL8jyq7KTnGO3Ytp96O+Iq8rV1ljq2NRf4dRq/pN9a0I8dX5aM1sxa6PWBFtb/Kp+tmxWGfpHOEwYdBu3POeideNFi8Obm4SHWwowkYKxq/+iJSnrJa8T4IzfiWCStxOfXDgcYJ+WDa9i0OPwGfm+EJ3z4ood7G3JKW+LzWnjYswDDLJsYsRdDzGT7hkcjMHWmvTYu03kiK3WbsJaex3/KW6+XlsT5sm1f303Tlvt1zicw0bPYxojN8bVo34c5ion9NPtdVywMeGg7dpuyfkVn5ZNFR9Vb+ob3woOytJWW2Aw+bqH1x0v/G35N5at+ZXaYaPXc8Wnvidd5qyVcsYINo7ZTjiuxn7LGtDv0Z5mDn1NmUutlbLa3msrX+FfPzxif2Wv2PJR+cce6OFQ+VX75kmrLu1UrzpPXzz2Pnhov+KILpzq62oa00ePr+I77Qfq1fdCj9/nVR4qX9tpbZhzjXn1PWXc1Yf2OoZH3K42an81ZnDBR9Wl3/XhN1yu+XaZbmN65h2Dz+mjQZfXfj+fiF+PBflqY5Jj/h5Muw/9HXFVudoa397aWuUUcfXYtF9xqv7tb3FvWjPaVNdWG90XNnpc6thq814c8ANHtXtVm4vWjRctCsBi6y/GiRQQnfG+mbNR9A0KOeRXCoxs91/1zvhdXWQQes9n9d/7e7mBDfMcDCB63xi7LZ/R6Ri6EYujC7gfktDtC3gVB/3XVj9gVMe7TZ57zG4UdZPRXh3Dbo+bfMGs86vGMPXFqdfTjwg9j+4Xm+TBuPbNo9bPPLq9jgs21O85a992T451Re1pj+xg7wwOUy7qk4/x2d7Da/mrLVr9b+W1NU+NJvxr7bBPDn1sy2aNi7416evMfajKw9d+UKpYVdmV2KnBLWvAuPsaqP7puya6HId34qs5i0O3sfVM3NgFj35QWN0rtmwbNzHhp8ut2t/iALlPvK9+1O2XvElm4mi3z3PnqBdKfFW79Pf2A/HZi017KzxUtrdTzOJizD5XLmFnwnjimPoVQ/qdsz22reeVmNF1fff3D7jX9xx59I8rk4+teOq4PsXOOfcBx7nc4bfXF0wYR15dYuHnM604a8+xezCd1qE+97iqTG2tec9PGedXOLWav7Zrq5/KPeYn7op91ac/2dh7t1Z9de/FwXp3Lldft/Rz0Vq8aFHAvjA74JKibi7ISAKIjAw/ycZctYOuBwZeAn1jqrK+XFxE2IUoku2MXxY4vz37zJHDrZvMUW7Mg/FezjU++sjz868RFVsPLb5MPbgig4/+IsDeKg49Dp6pwxR/t+lLwvioE7iiay2xJ+esJ2PEjlzlmHW+ZXPoPMSWY33TtH7Gzbw1Iy7i88VmPYhJe72uHRf0O6cZm357cs5VjCYbdcwYyZ/xLRwq/vT5oTtxSfti1PN3fmrFGvzAW92JE1V/mscGnCHOKmtc1o65aWyyWe3Y1w82tAkPJpu+0MwLXeTY+9TFrjaPYr9nDazuaX2N4pN4GRcDWrlE7HV8qw8Gkx3kV/eKLduMi2tfz2fsTxygTn0v2oqDGFgj7h1gQ25itLp3Yh+88EtMPKPba1PjUJ4Y6rh98XHtkxdYyU3kVnmozd7ig5grtzumYIPMyntq4tiE4Sq3e7w8r8SMnGsPX+THz/jEFDk4DgfEYNob3BcmrtYYqQf2+Olj8suYfuWe76juY/V9dA+mcpFaEZu1Njfnt7iqXG2R3VpbZzi1mn/1bX/iHnPEBv5iD+bySl1b8HA/oc8PHhHXCh5X4CCv5DKxwa9eJ2NebXPR2jjIVQDdECEBRa9ztc8cMnWzdB4iSjDJ5AahDC2E1A4kg2x1vvdZmBDZ2Hz5KLfiFxL1uGvOdaHUcXXMx8Wk794e5aZtX75df3omNvRqDiySji2bqzghSyzIEbuLqNpwzJiQqzj0WLCnfWTRQ2aySX76ptZsPsSLHj9s8fPZMezJDcbgB2NwpHJLPeKph4Ues7q+FJGXc9joLyJi0j/+iBkZZBnX/pY95KgDchMuq1gfyYEvvqyBce21buroHeGAXWtNHrWe1qT6Mt4zvK5YW5POiZ5fn+eZOIy14m+NGLN209iWzZpf7bPfVI7wLEeIw5jQYVxZ4hDLam819nvWgPUhhvqD4zVeOWJMtKwvxo3ZQxx2mHd8rxXjvmehU7kFVmDW94o928y599U41Vmxb3xiIya1dhPv9UGL77rm6x6NPTHFh7yu8vS1h626f5KfmGDH+JQnx2rXcVvsEb8xiLPztM5hxz1sWi9Vx/4kt4WptcIPOSNnrmKADPP8iAs/WxiucttYbc/EjM7KOYMayRnWVt8bsONeQWssWy11BZNaG7DqaxJskBMzYrCG2q7z4lyxwwd2kK/j2qTt+4W2a1u5S6zaVOaIq8rVdm9tIbfCqTP5V9/0t7jnXK05stYYn+Rb7YGt9XRe/sPJKtv7V+BgzNTS2uK3x9l9Hz3norVw0ToC8WuZh8gQsG9SjrOg7sGCBXi0mO6x/1l12ZzAnjrUHH0h0NbxlT6bzMrLbsXWe8v4Qr/C7xU4hNfzXyWvqI82bl0D7l2P2tOML+3jObCF8ZX7wZaPZxwPt6/n3KMx/Vq5+ozr58qYctHKRWv5EM5hhIPnRED/sjbN7Y1pjw2MLxn3fjnY8/VZ58BtuhSBKfj2Q+QKDldcMFb8XCXDVy9eUtijf8vlcorlVhzC6+sPOVN9HLt1DTxiTzOmtO/LgYr3o/aD6uPZ++H29fx7BKbh6vV1era1mYvWO1+0WFQewp6NDEfxcJAl9v6nVA61WwedI5vY45LGX8poj+Qz/9+bEpwCf/4phvhwYeVP74xz4XJ8pUXXOq/IP4MMGJAvP7h0RUz34BBe/zdPr6jJlo1b18Aj9rStGJ99/JXfTR3bR+wH3cezP4fb1+9Bj8A0XL2+Ts+2NnPRykXr1KGUw7wvZA6T/DjY3voXBC4CHkrPXgiebTF9VDzgxuXXfwsNnuDaL8Qr8fV/b33LX8NW/FwtwwWLvOHmFX8VvReH8Pp9X573rIGr97Sruf1e9tzX38vfI/1cvR88MtZH2g63r9+HrsY0XL2+Ro9cU7fYzkXrnS9atxQpOp9/IabGqXE4EA6EA+FAOBAOhAOfiwO5aOWideovWtkAPtcGkHqmnuFAOBAOhAPhQDgQDjyGA7lo5aKVi1Y4EA6EA+FAOBAOhAPhQDgQDlzMgVy0LgY0XwQe80UguAbXcCAcCAfCgXAgHAgHwoFX4kAuWrlo5etFOBAOhAPhQDgQDoQD4UA4EA5czIFctC4G9JVu2Yk1X4XCgXAgHAgHwoFwIBwIB8KBx3AgF61ctPL1IhwIB8KBcCAcCAfCgXAgHAgHLuZALloXA5ovAo/5IhBcg2s4EA6EA+FAOBAOhAPhwCtxIBetXLTy9SIcCAfCgXAgHAgHwoFwIBwIBy7mQC5aFwP6SrfsxJqvQuFAOBAOhAPhQDgQDoQD4cBjOJCLVi5a+XoRDoQD4UA4EA6EA+FAOBAOhAMXcyAXrYsBzReBx3wRCK7BNRwIB8KBcCAcCAfCgXDglTiQi1YuWvl6EQ6EA+FAOBAOhAPhQDgQDoQDF3MgF62LAX2lW3ZizVehcCAcCAfCgWfiwDfffPP2/fffv9E+U1yJJeskHAgHbuFALlq5aOVlFg6EA+FAOPCVcOCXX355+/Lly9PW++eff/47vly0vp5D7bfffvv2559/vv34449Py8tbDtjR+Xo4vFfrXLSe8OX63Xffvf3xxx9vf/311xsvnb0CZi4LORwIB8KB5+EA+zcXGfbvn3766en2by4wvF+e8VBLbGAHhuH083D6PWoBH5/5A8B7YLDi49n3l5UcvjaZSy5aXgp4sawC6GbPV4xn3FR///33v1+Uq/lcKcflik2Hljiusr1ap1W5Hhd1pJ5neIANvrCiw49/MtLt7j3XTWcVK/ywoeeL6X/+5pk127vU34KzdYPLYL5aH/Vu5SH6ZzlF7sT4TAfje/IXw6va33777W98PuJwXmtZ87FmZ/eMamO1X2M48kdcP/zww98cBLdVH6ty1GBlzWpvepfxF4Rff/3173fvLWtT21e07C3GQFxgd9Zu3Z/6Pjblr33WO77BwrFHtmdrd2Us8JZcOz5X+TizRvBpzat/bFBL95ujtVZ1b+3XuKuNR+NVfdUYjnJ+9P5S47qq37Gs6/XsuWA1JnCCY3t4su731sTe3rEaB3KXXLQw5KFg1TkJkCQEe8ZD71UAr+IxyfkinOZuHVut06qccXhxppZ7xFa+t240t+jie9q0uw+feblyUHnUAtfPR7RuHLTgQq5Hh2MONnubjXmcxRk9NlSx5hClrdX2LA+r3TOcIjbX/C0crH6v7N+T/1VxwCXicN1Q06tsr9qR11V+5UVa5e/tn+ETvoj5UVitrlnikNc9f9Yz+zV1pb6POoB3v/X5yhhYw9M+tpW/l57a1tge1T9TuytjYF+b8LnSx5k1svXOlo/uN3DkyhgnW9P+8h541VjOYIfeI/eXGtcV/QnLW84TZ2I5ej+w7uEguG9xbGvvOBMHsqcvWgQ2HUTOBMRGA0kMloQ/YpPH/1Y+xvZRLZjwu9r/ap1W5YyPTXGPsMpttUeLYkvP8a1N2/neerCeuNxlX+WZdQWObBpu2tRxaxMxr2kTdK63Z3FmncONbmf1+SwPq91bOEWsj/grRI3rTP+e/M/42doHWSccwuVQ37vP+Dgra+7EVn8ftWbP8MPWY1EAACAASURBVAkePWL/FsMza1ad3pKPMVJf8O4yj36+NwZxqPygv5ILvPYiTLuicwYPcptsGjPzZ+y9giw5gf+ta1Qeut/Az3veH3uYUZvOm3ti3/O1MncGu0fvLyvxXiGzulav8NVtsP5v5Wm3dfR86qLll5gpOEl75PCZ5vfyeaY4r4xltU6rclfFdmaTmXx+5IKd4nmlsTMv/vfG+R4e3supZ6jhPfmvxv8K+6C1XM3pEXLGML3/HuFvz+aZNbtn57PNsT9Rp2fIi4Mc67fH8plr90xrpOO+92zcezKPnjOGZ9hfHp2r9t/7PKHf926XL1p8IfffhQOOP0nhgYAvEf4ZFnm/mNXE+Hrkv8HFDhsSL/sqwz9psAh+beJ5sqnPKT50ql37e/kYf9UlD575kTOLQn/k7hcY7U/tFKcbMV8otK8ueesDf47TEgNxOg9eyFeZqW+dnKu5YoMv2MwpZ8zEhq+pnozVem7hQQ7WFXv1i2LdZCq21MlY91rs4bdyZcKEfMAa3+JdfXTM4aUxb9mrddCm7V7MdW7Pr3n5VzhsE8s9tai+4RI25ViNpY6jw7Px0BoLOtXmEc7Kole5A8dqPfSxwkNt2p7h1NF6Orv+4U3lGDj5E2fj3GvP5N+xnPbV7mtvH1SWeOsaqLw7i4s291pr7d5GHnJEve7XcdqjWlbZ2u9+5boyq3wSK2qn7kpb92JjkTN1TWCrrtm6R+ETXf1Vm47Zdr6AcdUV/8rXPXvate1rAFyqLeS6DDH0vUR7va267hvgVX3sxTvp64MYav7IWlfavRiZm9a+fFitnbGQj76JiZxqnZDj+cx7TdtH7VkciJUakCN9Mez8NR8xqXHUfJGr+w3xuCbwod6ePWVswQoMjW3aX3re6tLit+rjG/kqM/W7X/Ko+V+B3eR3D8++j9aayTPyFV+w6rnew72OwRT/NFbXrnywJYeeV7VB/L5P0CEn7CFDroxZY21W/Vv6yxetHkR3BmEIipYDIeA75uEdHQlsESUfuiarbYrLj0WKHHZ4ZoEoQ4sfxvXjpQXAq1zvV1D7HPERUx23ePhDlzl8IIfPKjv1KSg/41RXWfLsPo2x5oIvMDAGWp6xra2t1prUeXySbx1TjpZ4t+oJYWtOYt83Vp57zPg1B7Ggjo6JR91oa4y1jy3syyti5hl7Va7KbHEPXeyRl3UlJsbIt9oDnxXuoYts1e39Pb/EAh5762C1Ft2vuVWO0QervqlejXOvBzlUnOiL3R4Pe048r3JqdT2trv+OJ3FTP3KlflOsW2Or+Z/ZV7sv46Xtc33dimmVXcWl2956BivWlNzDF9jBg6qj3xrLai2rHfv45Ue9GDNX531e2aOQqTzWxlHre4dWvrMmyF08sEHOrkX3KN6fjPW9XJvVN7br2uO5xwxXsUfeVVdO1rHeNz51J/vWz/iRcZ3Q7zbrs7nCT8brXq5P5af81dd3jxddYiB/Yupy/T2gr9qC08QBfYG/do1nqh1y6GCblmdiqr5qLSsW2FXOfDo+zm+16q3ggG0wu3WNrOw3YiUmxo3fCW/nbcmD+FxPYoq+MrTmXfGiXiv1qHbs45cfdhkTK+d9vhU77dR2BU/XIdiJqbEwJkeZA6PO/Xu4t1qzmpNxWBfwBFfiqO9X8zInbOy9J5HTtjrT3lFjWe1fftGqiVIggDRogjLwKsc4IEGwGjhF7mMSwEWCPD4EXX2AP1p0HVR1afVTx5SngHV8Il+dp2/Ra9xdZs9nz6/rkitx9PH+3OVYiH1zR0e5Wqepnt0+z8RRsXfDcsFOOuZeXwxgNdV20keOmtc5Dyh1rPetaccXex0XcoKn1cYU38Q95Com1UbtT36nTYS6IVt1p/6K344B9aovomoXe1fhDL4dz+qL/j08vIdT+q3xiNPR+tdv1d06HFSZqW8cR+vwzL7a/ZgXbZ3bWrdwoL5s1T/Cpdre6rtP1n0AWfOrevrtcVcZ+mLYx+uzflf25xrb1h6FT37Vx0pf7oC98uZZ90/H2AeUo2U9db/arHLT2lOuYkCtGa+6K3hqq2IFxjU29pi+l4gn8VWfvT/pytcer7FUG+hXDjNHbH0/Iv8eyyRXbdtHrubr+GrtzKfX2PdwX2/ap9VHx2KqZ9Xb6q/iINa17ta0x9LxMd/Kc+LBd62VudHWeJGb8K4yrvMaH/PT/qLvHne1Rx+f+O7j9Vm/dW3Vefr3YNdt8XwWz8on3jcTntPZpvu2Ph037E1jRzXr9sWpjlNP7FdOGEcds871fYod1j25aRvsGPe5+rqlf/lFqwYxJWpCVY7+RFbGehFMvII3FfAMIaot49KPz7RTPoxPhKx69FcO/Xs+mes26/OEX523rxxEg3T9JdLlfKbdyr/K0O94+GKYcFbX3LvMVFt1att9MqfNKtf75tTxnfyKXbUxya1wr9qo/ckefvlVuZXckJ9wqXboVwzob12ytuytxFJ96H86FDpnO2GuLVrlpta4utyEcdc/47djrN9qc3oR1Pmt/mocZ/bV7msLz611S0z4086WfsdF+b3WfbK/CCdMt/x2+xOGXUa/fbw+G8MKn/DJr+qv9PVRZc2TOcenMeYmv5PNae1psx50p7WygicHFXzw4x3TD5gevvslghyOeHOkW3HCXs9f/S25Guut+W/VgnFx7v577Vx//VKwpY9tf1syUz7q7LWT3sQDscZ/tbeljw3lzLfrInPVfuM6X9lfiGuK23htJxycs9Wvz1N7D3aTvSvwPOLo5PcM98C3cmCy18fEqY5P71fjqHyCR5zPqi59a8h8vXBOvrruyvO7X7S2gDXRGjRjvQgmXsFDBoDcIP16UAGrdu1PhXBOPz7Tbslv5VR1p1zqPP09n8xVeWLhBYZd/PurMlO/y7MB7MnVua38wRk7ENg48KPulJdztsrgwzFa7PXc67x95KpPxrWpDC0bLBsQslwojLf7mPyKXbXH2C3cqzZqf8vvSm7YOapF9WXfuooFrWtJGVvmVmJZwXnKVT+2E+bG27mijq3173KTX2SO1tOW346Jcn7EAAvWBnwzttV2Nf8eg/YnfedsjZfWMVrxw/b0U3ZLfysm9aZ2K15jqTpbfhk/qmW1Qx+//Pp4fTaGjhN5MldlV+xVefv68JnWPKuPaQzZye9kc6qnY9XPVm6M1xinPrynDuyPyPOOYGwrJ20gu1eLrdzRn+Lt+auP7PRjvsZS8WCc2NBTZqudaoGs/ie7NW/jrvFs6a/st+hO+GzFX8cnvQmHrZi39Kd8kZ1+xiN+HRd0qj3lazvFzLxxV1n6U9z4fYX9xZwmLBkz1z08saEcLfh1jO/h3krNqn/6xnv0flWOVhtb/s7yQnur7YdctPZulDXwqaiSp4LH17N6aKbfCVLt2p8K4Zx+fKbdkt8qXtUlF144daz393zWfLgoYKtisEWU7qPK+cWj2la+yjk25e8Fyz+1ItvxMK+twzs6ytSctDXFZ0y23We1qQwbAtxggR698LHX/U6Y3Mo9Y+rtll98V1nxqmMrtajy9q0rNsmH9Qm/xEg52itxxhYxV/u9P2FuvJ0rXVeMulzHeHU9bfmdMOFLvQdM89zjf4/d59X88bG6r2rbdisv8atrW53abulPuFS9qT/li5yxVJ3J72otqx36+F3dn/Fb9cmT+OoY9vjVsZX+Xp7Vh7nXMexPfiebxOxBZS+urdwY39Orc+wjxqBP47/lL1rq9tzxOcWrb2NS/+hD7JY9MF7Jf6oFNvXf4+/yxn30F61732vistdOuE44GDM5Vntb+thQTt1H7jdTzPjXt7HY9rhfaX8xp3vwxIZY0HaO3ss98K0cqL72+ivvV9dZ5SL+zrwnxXAvlpW5my5akK0bnwg8JcrBimR78TkAdwB6UfFp4hU85FY2zR6z8U356KfqKF99M79CFu31vKt9Zap9/yTKnLL46y+oCX/la9vlePFhr2/mXQ4bPX+fu27HQ7m9Gk254xNbNfeaS+13n8xpUzmf6wXC2LqPye+ECWN7eel7td3yi59qw1wcM4+jWihfW3XFgAsBh86+HtG5EmdyYt3XWHp/wtx4abt8fRajLtcx5nllPW357Zggd5RXjXOvv5r/mX21+zOvvg/CA3I74rf6tNV2x6XObfWtWeex+VW9ye9qLasd+vo9uz+ji0/XjnapGz+fV1vjqPLmWX1MY+hMfieb4LnC0amG7AuM1xh7nzg6b9CrmLDH9BjAf6pht49M35/ka8UJvSl/fHvp67brM366PXI4yh8byE2X99XamU+PE1zx7xoxv1vfazXfrf4qDsZCjtXWln7lg/l23lQ79Cf8yB0f1V7X49n4xE6ZaX9hrsfN88q7Qru2+n3P/eUsnrfUzLxu5d5KzcTQljj7vuFcbeVJzcs69zpgb7JpftXuLf1TF61KZvosCBeFm28F3A1BGQI0eRYEsvw87FdAkJ2Sh+QUpy4UnquPVSDwbaHpY0M7xlQLwlz3pY2+6fcYsMOma95iQeGVJSfsu7GyUIyjLm5fUPhGlwPShL92azvJMYZN/Ck7yfX8XcjmQDzESd3Q1xYtz4zrAzzQE9+prsxVPKq92t+qgdjpA5yw54GScWUqvlt+J0w6H2pctY/c0Utgyy+49Re2cYvnmVrUuOjLu4qBY/hR/mqc9VH9wrH6PGHeeWh8vcUOuOPHuQnj1fU0+Z0wYXMmbub0O7XEVnOdZFbzP7Ovdj/m4N5EnvyQwz/4uDcjS3417lVcjLHWo8difSp+W/vb5He1lpNfdMWAeeJ1b+N5lU/I9nfXSu7oua7BgWd+0zqZxia/RzbxJ0+Jkfyrb+vvPiO34a56xllb7ICneuaPvnL06xrAr/72bNec5Cm6Yle5WWVrXtbSdwFy2CJu40Oe+OoeyBwxHuWPnD6oFfnIpTO1Ix58oYNNcJSnxnnPe80a7OF9Boeas/Ft6fc1grz1J0+eiYsYa00ZAxNk6fOjRthjTL9TayzqIrO1vyhb6/+s+8uUK2MreE77qLnLWe33s8g93Kt11L77hHx3vLbwodavztX+lJf2WVeVO/DJvaTacE8Bjzp+tn/qooVxgoFs/EiYMYMhWArBmAc/xvi54TIHiADlHH0XFvP8KLDzFlvgGMe/Nqt/dWjRA0xtTu2Uj+TRD3pb+ZCvPuuCnHxho+aNfC+gGxX50ZeM+JAIYKVf7IGnGyZ6k2/GKk7WiXFt6WOS28ofrPCJLngj58vBuuGDPHgWK2Ss+VZdtYsOfrbyqvFbg6mGFQNsI1vx1cfkd8Kk2jMv2849xsl5KwfGJ78VM2vWcwNz9BnXBnpbtagxIKMOMcqxWhP9Xo0zceBHu8QBj12zE+bEK8a05l5z0q5y2FWu5mq9V9bTll9jx5fcQ7b6MQ5kxZcYGadOPXafz+a/sq9qu7fERcz83NeRoRbEYT7kUOfP4ALO5CzuPQafyUNcp/0Nn1t+V2qpn95ic2t/rusBLJBFX1xqXnXNWt+V3Pu6xj5+qg/imMaQnfxONs278wV981KG51oL8vBdw7hyvSVO3wNgQw6+z6ostrTveujvxCpvX15qG47Wvdy1uJd/9U182tBHxV3OIoNPfnv5Y4N4xIAWLM/UThv4NJYtHI2r5mGcxq4Nxh2zlr3uYkA76emv4nDvGpnyBWNirPHQx5dxwVs4I9bE1uXr88r+grz2K17Pur/U/GrfdWIuHU/qLk9o5YHyjIln3V8q9+UCOvTrOpRn1Z5j2NC3Plb2yb6GtIE9eEH+W3kx1/c93zEVN/rEqW3i7/Nnnk9ftM4Yfw9ZQZcg+nTcAjqe9v/+y0TB4j4s5Fi4dx+On42H7Dm8lHpejLNxe5Ck70uny37GZ1+ifb18xlx7Tl9z7h2LPD/Pfskl5t5DZOr5PPV89Vqs7JOr79dnwuLlL1ocaPiSMYHKTXU68EyyGctmcZYD4V440znDJYILFC+MPseXNOaQoc8Bh69/Xe6zPvMXja29+rPmbF5fc+5ikPb59kvOSNNfjFKr56vV11CTo31y9f36bFi9/EXLP33zZdhDC63j04Hn2YqQeF5zU5Nj4d5r1u8R6469hwsUB5j6lxv2Ica8aHBJr/NXxuI/obnS5r22wIW43KPvtYe+6+/Z9/hH5H4FfrHxf/+bcbj0GfA4syZYN/kXP9vvLvDhw9hn4caz83tln0Rm5f36bLm+/EULQFkIHGJYFP44yDz7C/jZyJB4tjfdLWzCvfOYbWH5Wca5QLH/8EJwP/Lfxl950djC6xkvWlux3jN+5lB5j5/oft41/tkO01kT13H1s3Hjs+xjH/1+vQXHT3HRuiXx6Fy3IQXLYBkOhAPhQDgQDoQD4UA4EA78mwO5aP3//8phiPFvYgSP4BEOhAPhQDgQDoQD4UA4EA7czoFctHLR+hT/Nj2bwO2bQLALduFAOBAOhAPhQDgQDlzPgVy0ctHKRSscCAfCgXAgHAgHwoFwIBwIBy7mQC5aFwOarwHXfw0IpsE0HAgHwoFwIBwIB8KBcODVOJCLVi5a+XoRDoQD4UA4EA6EA+FAOBAOhAMXcyAXrYsBfbWbduLN16FwIBwIB8KBcCAcCAfCgXDgeg7kopWLVr5ehAPhQDgQDoQD4UA4EA6EA+HAxRzIRetiQPM14PqvAcE0mIYD4UA4EA6EA+FAOBAOvBoHctHKRStfL8KBcCAcCAfCgXAgHAgHwoFw4GIO5KJ1MaCvdtNOvPk6FA6EA+FAOBAOhAPhQDgQDlzPgVy0ctHK14twIBwIB8KBcCAcCAfCgXAgHLiYA7loXQxovgZc/zUgmAbTcCAcCAfCgXAgHAgHwoFX40AuWrlo5etFOBAOhAPhQDgQDoQD4UA4EA5czIFctC4G9NVu2ok3X4fCgXAgHHhNDnz33Xdv/FK/16xf6pa6hQPXcuDbb799+/77759qT8xFKxetpyJkNp1rN53gGTzDgc/JgW+++ebtzz//fPvpp5+yh+c9/jAO/P77729//fXX2y+//PIwH9mjPuce9RF1ha+//fbbU3E1F61s0E9FyI9YmPGZTf4MB/gLAgdcfj/88EPWT/bQD+HAzz///Pbrr79+iO8z6yWyr7+/8heCXLRev46ffS3C0z/++OONj1DPlOulFy2+rPHlgxfAmSQBBj1+Z/S2ZK+2t+WHeLk9b80z/uOPP/59IDvCZVVu8sXL9sh+1+Ow+OXLl7/1jnLouj6fxdkvY6/yT13O5gcuLHD0OIQ/a54rvLXGV7TsB/jc+/KuzNGf/Fdrsip3S37w2IPH2b3urD8vdeDHrx6sXfeMyzcOQ8oeYVljkbfontG7Z9/C/y37EDGydz3by7Ti+ag+X2qt0d56epT/j7Z7lm9wGbye7Qv3Co6u73v2mFvWF7HVsxzr7JYYaq36ntLPHHywuofPZ/d73zf3+Fyp4SvJ1Hqdqbd7Evr35Hur/8pVeMQ/HbwnjkfoXnbRckNjAd2SqAvlqiSvtjfFxQbeN4xJjuIje0TeVbnqA3JimwPW2YMH8qs5VJ+1fwZnOMIBiUPh2Virz/fsn8mPuOADL0jq8ayHwXtrfhZ/9gNwwW9/4WrLF9/WvHK0qzVZlau2V/vwlzq/B4/BD+zw1+NjnDxrHF62VrDUHrZZl7ccPG7Zt/RLS+xnOEmMxLqy91Y/r94nb2pt/rXmr57bmfjP8A2MXA9H798zMTxa9p73eo/t7Pry444H3zP7SPdtHt2G70jk2d/gdZfpto6ez+z3K++kI3+fcf7M2iJ/6lj3JLhzDy5n/V/J1XviPtI9fdHaOixxq73lJW2AHsR8vre92t498bCBgNvRRr8qV2O5d4M6c8Cpfu2fxdkX3xEW2n+vdovXZ/Jjk6iHYV4yH5WnXHov/Fb8sT9c8WV5tSarcrdgxOGNet+ie4vOtH948O4Hbji3xefJNy8rsOLwMc0fjVn7e7h+dh/yoITvo/g+wzw1pkbWmr3lnvftK2NyC9/Q4V0pfs+e/y3vdXGZcjuzvtijPTDT1nfaZLuPuf/gs/7q/iCfmeejCXye7MD5Pr71fMt+f9U7aSumVxuXQ7VWWzl4QXZN9fPPlh7j2J9qe8Y/du7l6l6MV86dumh52wSMK4PA1i2LZC+Gq+3t+TqaWyXPqtyRvzPzZzbgye4z4TzFtzK2x+tXzc+vuCv5XyHznv5Wa7Iqd0X+j7bBOq0vP7/keSCq/pFD/hH7dPVj/4p96959yFjSfv7/HckVfPuMPNnbgz9qfVmrW/YiLpvs4au1+kz7/WrOV8tZr/quudoH9rZq+17+H5HTns3lixaLmC8PLNj6Axi+eDimM/9kzDgyFE59FoS3YOVdJIxrb+tLhzp7rfa6DIdqimy89UasLDH4tVg58nee9sz/vqmTx0OStiV1lSPO6qPjxdcEYlJmCyt8kaO+kKu5MA5WyIkZNqcDXM3fvjordYMTNRZ0a17m0uPZyg3c1DE/W7A0xr12j9foncmvYw3PqKP+mScXYiT2WuMJczFVx9xstdtbY1bOFjnxQkY91xty+lSnckX53u75Q5Za4MM8eq59r+j2+7P+HK/xY9u/zChXc9ri0lHt9HWUS42l+gXPFSz101v03SfIjzy2OI4c8szTF/fJ/1E+xoEduYNtuO0egQ3jq5wGfzDQxl6LPvLYtG6dJ+hjb29vfq811jlbcYYDxAkuYlbxIg9yIGd+4tJjd9y8+xrCZ5XRV8dxi/NVl/4Wd9HXF3HLJ/byWl/3dvxru+PkOO3R+6DK1v4Zvh29J3t8tY7kUfMjBmpkntbPtuZd46197Fsn9Dovuv3+Dqm2ah/fxlFbZRhDBvvKTusLedYwftGh1tO+od3e1vywL6eoWZXlufOZ2JCh1X/N5Qhf86Jm+t3i/p5/YlAf/9UezxMeNe8aM/2ee8WBvvZdV+DmOlNWzlUMOneVpT3Kr8rWPnrETD4re3nNm7iJqdrr/aPa3uMf/KhbXbMdI+IVZ7CsssRaud/riG7PZ/V5+aKFQUGg7Q4kZh03SRJSh2BJACJVWRcJLZsjADjmwanKH/XVrXLGo2/ssqABvvqoBXMREDNFqPYgFn7q2NQXt1ooC+7mgp5y+DdGfOIbfLWNTsXQPBirxGG858KCrTGjU2XUITf97bXiTIvuVt3wC9bIYI/88N03LfzyYxxbyPNMjDUOeSSvaJGpuVX5vb64a6vKruZHTSqOW7whH/IGC2usfzDqvsm9Y1Z5VOVrX3zqmH1sdpxcv7T4I34398pRbfR2yx85govY0vJM/tWGa1O5Otf71qSOg2ldI8wpR2tOjokpcqu1W83lXixrXvbJD4yJu3LH+dpaC+osnqwnbICzsqv5oNtriC1t0/KMjJye9i39Tq36YOe6xx45VHnGlPnoNSZn4ZRYiD1jYiE+fX1bk5qfsthxnDypOT95i20ww4ZytODFj3Fx5BncqtxWf4+7xN/zNEftESO5+0wrJuoyhq2VfKod+2J0xLfV9+ReHWt+4IlPYqfPT7xqbsbZ26N1tLoPdbs+i7PPtV1dX65b8xbrysdqt/bls+ck9yp8V3ywDY6O0fIMH6o9eNS5VOd7H1l80eKb+jjmukFn1b+1pdUetcdHfSeKe89nNXbyrmtBPPBTc0Sm2+y+z+RXbdvHN36P1hbync9TLNrtLXn0XJA545+6rPBodX3rW67LX3zApZ7DmefLLlqCXJ0beH25M08hIWyVBXTGa0IsCMawU2VX+tqrsrxw+mJ2M6ZoVbb2zcMCOLdFFudtuz4FJJa6WJFVDgKrS0uhJ1JWGfGvWEnEKtf74NsxcTPpstOzON9SN3z3vHgGm+rL3CpeyHVdN/qqu9IX94qdevhY4SVYdzlsULueD3Kdb/hBVr+0yHXOTZtt1bEvZj7XdsJO+fpCEhdfutVG76vfx6dnMa1z+ppqUOXod33q3vGsckfcPFO7o1iYF4tbsew+eIYL9df3iKqjfw88zLnPMVdle79jSw743eOAtesxrexb+sfHLfuQvnte2OucILcr15i+6/sNruEbX+ZGO61b61TltFnz8aBQ64mO+3TlGX77fqOfun9Wn7WvbLXp4bvGZJ51DDv477lrk9yqr96fcOsyPIvRLXybYtFerSN+iKeeU5SreWzh0ONeWUf37EP4M7fu21xW1hfcqTmjSz37uuk+zK/XRO5WzLquPsC7zk1cqvO9jzw2jvb7rsezunVOPOtakAN1P5ziBIeeT7VtX3z62pQLytFOfozxFnyrbfvm1+vY93LrXXHARl8z2u3tlAsyZ/33OImHGOpa1mYdm2IVyxqre98RvlVn6r/LRasHCRAAXQPiuRNTgLp+1dvqd3seNHph0J/iqXaNg0LU8S2yVBn6VZ8+m1lfWF2u2ljxI0kqVn1xVJv2p9y1pcxe23FG1nxrLJONyfeUq/FUe5Pc6ubWY9mLdzU/sO4vMvxM+uQ9cYnxGtskNx3Yqo59MfO5thN2k7y49FirLfuTvnO9nTDRV61x1/NZfV6ovJD6gbrL+Uw7+TlTu2qLvrHU8QkL/a5gWW3ZlwvkrM8trPTf57WhzanVtnO+uLot52m3csMWvyq71Se2LmseWzp7vqdce27oT3Kra8y8OzaTzQmLKT9tVp54oaoHSGJXv/rf81PltjDVZp03pq5/Ns+uX33Qx17nQJfh2XgqRoxPuXd986uxaK+OodfjmeSoyYRD97uyju7Zh/Bnbt33lMsk7xmp46rd6cyiL/PrHwMmzNSpLbUDxz62wgd1Jhv3+Ddv7dNqr2I08W71LMLapu7VB/3J9+RHOeLqNurzhE2dtz/lx1z3bb27X+SmfLRv2+05ftb/Ft9qfbTZY+3rWyyNhTYXrYP/k8xOLMGuBRDQDjibJ0TCBpci5vl13S2yaNdW39qhnTYt5Vb88EWBxUwMEFvblUxTzMZkiww2fKadCFfn+8oTigAAIABJREFUax9dbNQx86ixMM8XBTYWDjLG233z3MeMp9pzzK8U4AkOW4fuGl/vb8WL3Gp+E45b+shONe444puc5Aq5ImPOPY/6LD51zP4exsrQikuPtcrY3/OHHeoiluTQc9UXrTa32m6nf4FVTzmfaSc/xIJslaO/pX+Uy4SFflew7HHwTIzqsvbhBb9++EZW/x3LakMfyOzloy3lp3YrN/CbcJ1sTDWYfK/uzVOuUz0Zu3WNmfcKzhMWU37aZE6cpriZU7/63/NT5bTdW23WcWPq+lsYE0PV12bXX3kfVDv2jadixNyU+8p7Uns9vs5JuAdXeH+57lg7yOHH+KZWDKY5x7o/x7fq77ztno/JdpcXB2SnX8dHv7Ta6jLanMb39h1sTvWsPnt/wuke/+ZU/WiPOceV87185iyylaM29UE7ySp3C77Vtv0pv8m3fieeMKa9rXbKBdmz/qe88U98+tZml0WOOLocvGSMNc5a7/9CQPkz7VfzFy3BPvqLFuACLGC7mapbiwfIW2TpBaj6bMgUbzokVblqo/tBDn0ug8pJfOYcg0hbh9AqU8nGuLaU2WvR7QvLPGosXrDqC6kTHT891xpPtce4OGIHPGrN9mLuc1O8yqzmRwzEo57tpI/sxCXG1aMFq3rRp9/1qnzt79VwD+NqQ1xWfG75g6PUptZuwkRfVa7GUvtV3y9rU4xVTv3Jz2rtVnOZsNDvFKex7bWdM+Y9rW/9dywnG0e10ZaX/SnGrdwmnk36jBEb8nVe346d2Zt7rtiY+HDPGjPvI5z1fZQfctqsPDFu30fiIT7VP7JbfqqcNnqrzTpuTF1/C+MV/6vvgxqHfeOpGDHXc0du5T2pvSm/ngtfuLFJ7vzY8/tXdeOsrbjurSPtVT3zYq6P92d99HGe0e+5dHlx8MIw2dka01bHUJt1fHUf7fXc8u048h2ne/ybk/ZptcdcHb/1LELM8Knaoj/5nvBQ7hZ8u0+et/LrvvVbz3OTva2xbk+5s/772pv0HaPVD+20Jrgf1PXNPrW3Zqu9vf5NFy0WSjcq8HX8TIIAv7JIqv29/mQPAPvtFKLg1wuYedSXmnkwV31ukaXK0O/6fvHoB/Mup53uh+eua9zYqHo9X+dsJ7JpS5m9dsLZPIzF574oJt89V3wbj/Yc88vDXnwrc8Y38XolP3ywIMmnbzzg32uF3MQlxmu8+L7lpYcNMZs2iT2Mq39x6bFWGftb/sjJtaXsKqbK97brwwP8dH51OeyYU+XSau1WcxGLGrd+V7Csevbx3XXNr+et/5ojdrqNlXyMe4+HykzxEaM57LXE0mXNQz2fV/bmnis2xEt7ju3lVmV737yPcNbPVn5Vn1r22L1U9zjlfcUDHyt+ei4+i7HPtGfzJP6qz/pnzDy113mLTI+92rGv/hHfsNX3XvMzlqP8ajzgzBmi7/HGtdcac69h1Vndh6pO7ZvbtOdP2CpfbZDfLe9V8+t7vdyteBNLlwNnxmssjBFPHdvrTzaM6xb/Ez7aY85Y6N+CGfqujc4puaAP2ik/9W/Jr9q2P+Wnb/wrB8eo1x6flZ3ardqe9d9xJx7iqnuLNitGxIRczYn5o/PylMvK2KmLFhuNwdEnKYF206+EMWllCEgbfQPkGdvMG/ikDzBdV/naTvZcOC5yYkWOxaxfNwYP3ciYm3r6oSgrhfHlWfUdq0RxrMrhq/txEbqhQhBw6QSb7IGp9rdqYb61lubc2wnnXjcXJXGjj19iIK9ey54r8sj23Mi3Ytfj4tkFBg7TvGPigE36xM+P+ZX8qi9tYEcc6wIHU3LpsU9+kDMOY11te+3xZz0njI1VGfx0G3u+u6z+WFv4Aw/0WVdTrp0ze74mfcbw5ZpAf5Kb/MiTo9qt5rKKJf6oceXHlPcWZxzveU/rRVli08dqPuBIDcUWW6xlWmz12mt/4plztXX94aeOdxxX9+YpV+xOfLhnjU1c0rd7nfmABXj7TCtu1gR8zdk9GjnwsVbWQCzqgQ/ZCfOJDzWO2te/tWXOPH0nMraVp77QQY4c5Tl9xsgB3MWI/NAj9s4B5PtP3CpGyPTcsY8fMWOd9VjQMz9jZmzipPtExabHtvd8tI60f7QPbfnouFBLYp1ywcZUa+tXaw0uxLTl13E5foS3XCYudPE1rU1jIS9k5Yv+ejvZmGq76n/Cp2NMDGCDbI9n5bmuI3Lkx5o2l2pDPOQpsUx8Xs2v2rY/5cdcX1uMESO+fH8Ze1+X2q6tufTanvHfcycO4ulcnThArOwN5GBc4s6cY1e1py5aOCVokuHnJu+mT+CMI+dmyljd7CiYY5JTQjPO/J4+IOpjC4TJnrLEXGNg8faNU3380LcoxOcG5CbO2N4GAA7YMWcXicU35y25yQ/xSjJyISc3aey50ZEzfsyXOJCVSI6jQ57IT7UUu96Kkzkwv1V37IoDOSFnDuI35VpxQt/c6jj+/bFwlBETa9bjr8/Yw74YMXcmP+TZJNwgiYe+m5C+xIB545r8dP/mRwtO1lC7U+tmRp2JDZkJ46nmYFhjBZ/JRx2b/JG/PAMP4oCD5IF99PFV87N+1bb9Laz0gR1ineT2/KzUbiWXM1jK/84RcxWbWgfycr6vAZ7rGHpiWW3Iu5V88AXXKm+I25ixX23jH50qT9+Yp7bWzvwmHNG1rvikP+3NNR5zVQ9+4M846njlIDHvrbEtLlXf2MZPxaL6Zs41gx79mo9YIoe/bsfczKXO02d8iw/q1HbCvOdpTFOe2CJ+eU2u2IQrYIsO9pBjXBvEyrh6xl5js4+ceq515qbcV96TPT/jmzhJbnV/ly/EQ+2McatFv8ZZ15E6K/uQslMrn4jfPX/KZaq19uoZidxcZ85vtbWG+OznErlzZt+RE7TWZvJf1zG+kdmq7Yr/CR/sTdyra0xO0MKVvZjNgzpZo/6OVIZ2dW2t5Fft2t/Kr3K2rk3iAXcxseba22trLtb2Xv+uQ2zrG5u1JtZDvJlzn+7+1UNW7mr3bHv6onXWwdXyFKUW+2r7sfffXxCfDRMWEhsSm2GNzXEWBuO+4F1cVfbZ+y76Hrvjbg7Pnkfie/719LXWyLWUNRaOrqwBDlu8W+pBDj0P2vcexlZiiMxzcdUzx9FZ5Gzd/Bh5Vi/yt/ODM9V0t2CcS1f/g8wZrF/qogWpSZgD9JkkI3s7+Z4RO782TbHxRY8vG8zR52I+yT37GAt+K3YumdOG8Ow5Jb7PtQ5fvZ5ZY+HjGQ7zXuEA3HU8l/TDdpfL8+fj2+pZ5Gztc9F6X67wsW3rbsFfHJnrH+TO1PSlLlqQ7z2/Gkn2XOzel/RHBPYvVXxpqF8Z4IYvQ15+XFRoj+w947zcYyM3B1rHw8nn4uQzcigx7XPEtZQ1to9TePS/+PA+4f3iP8kDF94/XNgZd58OXut84gC79UHxFXBcOYvckscVf0W5xe8tOu6jr3wmYe2yhvs/9yQnxu7l6EtdtG4hwT06n4FA9+T/zLq87CA/G7U/FsR7XsQfjQ/8Iyfzo+Wl/sob2qMxi/31Q06w+t//OmfWWDizshY4jHEArv/7Dg5n/YPfiq3I/C/neKfde4j9aCyvPot4yQIb+PXR+R35/yznZP5i5UcTz1ysdfK79yNKLlrDf9XoiFiZz4s5HAgHwoFwIBwIB8KBcCAcCAf2OJCLVi5aT//FZI/AmcsGFw6EA+FAOBAOhAPhQDjwjBzIRSsXrVy0woFwIBwIB8KBcCAcCAfCgXDgYg7konUxoM94m05M+coTDoQD4UA4EA6EA+FAOBAOvC8HctHKRStfL8KBcCAcCAfCgXAgHAgHwoFw4GIO5KJ1MaD5UvC+XwqCd/AOB8KBcCAcCAfCgXAgHHhGDuSilYtWvl6EA+FAOBAOhAPhQDgQDoQD4cDFHMhF62JAn/E2nZjylSccCAfCgXAgHAgHwoFwIBx4Xw7kopWLVr5ehAPhQDgQDoQD4UA4EA6EA+HAxRzIRetiQPOl4H2/FATv4B0OhAPhQDgQDoQD4UA48IwcyEUrF618vQgHwoFwIBwIB8KBcCAcCAfCgYs5kIvWxYA+4206MeUrTzgQDoQD4UA4EA6EA+FAOPC+HMhFKxetfL0IB8KBcCAcCAfCgXAgHAgHwoGLOZCL1sWA5kvB+34pCN7Be4sD33zzzdv333//Rrslk/HwJxx4DQ6wlr/99tus5ZxZwoFw4KU4kItWCPtShP2aD0UcMv7888+3H3/8MTVbWLc///zz25cvX3LRWsDqa15Xr5I7fP7rr7/e/vjjj69u/XPJIvfvvvvuq8t9i5+//PLL3/vb1nzGX+MDQur0+ev0sIvWDz/88PehkIMh/ZDp85MpNX58jblkcXkI1vtY81cscPosBzPy4YDNYZMDd+q/X/+Oz2fC72u8aP3+++/5wNQ+mMjpfHg7txf0vSHP1+OX8/+/MX3YRYuNkS/wtB91MPj111//Pph85o2IiyyHr/pj7LfffnvKCy5f4Yy1bnDUqNcJ7lSZ1T6Haw7Z+Fm1geyr/PUDDMmRGhM3X3tXsfnMcmBizdl7PvIDD1wmFvagKzBnD+VHTqucXvF7y1pZsftsMo/C70yede9bXbOV0/giDw7YZ/w+SvaReyY5sh/zLqP/008/7eZ8C7aPwuU97bLPscd0nrxnDK/iC77CJzC7JeavlWO3YMU76r3O/36AvPK9eEvOezoPu2jhlA2Sw+BHvBh4IVEANmgWFxvRHhCvOgeZ2UDI1xzI1UP4VQc9bV/RegGutsijboLU7Z6FA+fAZdWGPFmVr7F/RJ94K78/Yo2dzZsYiZk6y1d4euuLr/rHNgczcdF+lXmvPodocuSyZUxX+faSfZU97JxdK+wv5EduXPzQf5V18wj8ztTCw9rKReuZOD3l+Mg9k32B9wS/VW6dwXbK51XHnp0nz4Krf2XhHQRmt8T1tXLsFqzA+L3O/7yLVveJW3K5V+ehFy02ySsOUWeTxCegu5i8eJy1c4U8cTz60NcvWsbtZevR/vW314IDcfZfPXBwMOUA5wXJ+lW7zFWdOtf72unjW8/yZtX+lp1Hj4NL5Te4ceh5tN977fOSAltxpj6M3WsXfTgODvTF5wq7t9igNn7YMZaJy9320V7BQeEqvLrvM2tF7lFLXnBeKrvNZ3t+JH6rucLT1T3smTi9lZ9r+co9E1ucHfRJ3/Xk2NSewXbSf9WxV+DJe2O7tZeyD3Mu8l1xNq57OAavWftnfb6q/KPP/2A5/Z4Rr4detJ4x4feMiUUNEVicj/S75YOXIHMchh7p/6xtN6uzehyUyGf1pY4sG+5ZP5H/978vDh6Px+O99oqtWmatPL7GYO/et7qHbdUr4/9dr2D735h8jTx55F56D8f8a9jXWJNH58w575nPeqcvWv51iBczP75m+pXVv6DUhPlyoGx/uTCnji96FslRUfZiQBcb3Kb96wgXDRZItcu8cSnvs/lUefSxo0xte17okdskjx3jwgZxIE9OdXzlC57xYafn5xx/JmeeS5djtDUf/BKH2EvaGhPyXHTMiXYlRrE1N+Kx5jUe5PxnX2Jb60BfG87TTthrl3lyIU5anqe4j3yfxaHnXOOlb3y9XdXrcuTU62+dpvypIzbAlHjAtWLd4+K5r2P8WQ+5Qy30S507P/C5V+PJL2PYkTPGy3OVJye5jgzz3X+Vn/pbewJ5iq//XEof5NRtISsO6IpPl/N5b69AhrVLfapNdNSf2q1ciHuqNeMTVyqG5IUcv+rTMTHimf4eZ/DVses11K72qs/ar3gjCw+wpcwRfuQol7GFrljTVgy0WVtlwZU14F6DzV4n7BMjcvT1O9UEGeqoTI9lD185d7Qmax7VXvVFbNYCu+g8ci2Dd13vvZ415tqv2DLuM7FXOXNhnnGe7fPceVj3Em0iZ937upnqDl61lsZgW+Pr/Y4H9itf7uHJtA6r/721Yd6sLzkPJpXz7Jc9x26z+jvKpcpOfXxbF/3SUrfKb/yg32M5WvvWH336rs1ajyku8akx0UfWeK2F3OdZW0e4wC1tyzWfp9iIXb/K2YqNvmurbfNGxzinuCfMtXeUk3K97esBv+wRxlHlV9byWQ5U+6v9UxctFhQAu4kDOknWBKeEKzkNTHCwyZgLciKFOrRHMRATMfA7si05aZE1H8gD+Prt8UMQcKh5K9tbbKFfx/FVCeocdhkHC8dW2smHesTIfF085Ev8jvV80DE3YwVP4zJOaqifrRY9FrR46ouYqk7nlbVhoSinX1rH9lp8VLvkwjPxVL0q40aCbvV9Bgewwwc6+JHbnQc1Bvoremf4TQz8WFPoEQ/P5svzFud7bDy7aRKnNXBtMHbED/3ik99U4+4XOfTgmnr0K3+MS//kBe/Qswbd7tazMdF2fPDb89an9tDDr3K0PBOPMlstOXWOsG4Y14+5MQYeW7YY38vF9ag+9ogTHezih2f4ogxtx54x1kmNvfatzcQZc8IGOFU98ySGvTzlX8W72lnFD3/o3bLPEZ+64seYWBkbeRovuDrO+kQfrJDhBzbkrgwtz51He/iurEn92Rqffh3HFj+fiaXmKtfqnqmsLZigBy70K0bKUK9bbKM/xW4NtE+7wle52XmoD+1RR37THqsMLdghhz2esV95WmVrH/mOBzlZiyt4Yq7Vb+3vrQ34eJS7/K424VfPfzWXamer320r53qp/N7LD6zVpbX+R+u36thX1+faYg8s8UdsrKezNXYN0pJTXV91vzcOMaCFY/qrcfU+MfLDPnPaUo65bkcZ/SF7a63xa6zkpy3q3f1aa/mNLvGhj65xYYM5bDCvPPEy1jlgrmfaUxctCkiQew5ItidsQhXoycYEVpc7ikFw+4YPWNiXINg1rjomuIKN3JTTtHn0WHnGJ376HPF0LImdBddlt56JC/v9V/FXRuwlFPFXu+SLHWIgLnB2nvH6zDh2e/zK227VAlvYVG5qrUPFzjFzmfTqGD5YOHVMHtSx3tdP9Y3MKg7Idd1pA+p+V/S2MDWvymVq1PkkbyuGHjzqWI+NZ3EhBufZsIi7co65lXy117HSdvVZ+SqHlfMl5TOtB+zO2yoz9YmFfCqO4lPjNO86Zlw1VnzUtTX5dGyqv3O1NcajeilXcxHzur9hG98ra0WbNR71mTNX91/9Vc4oD2e1M9kV97083d986WKPmmNP273VV7cLBp0vK/sc9if85MOUp/igK1f3YkbOXGs+E75y85Y1acydw+z1Ha8pjr0cjLXa1p+2fDfUejKH/76XqWM71dUxZWxda52ve3sJcYNpjaM/Y1+f9XCrP/3TruyR4HH0nq026a/yBFniqvzstnxGrq8N4ie2WiswQlY9WvGoY3KBuTre+1MuXWZ6nvBGTr+dy1N++O7Ym8st61fdKV59VSwnOccmXLR/tN+jy09btFPd6jx9zx6V111msm1cHfNJt3Ony2ztD6zJntPZtbzKgR7TyvOpixak68l0J/cATaJH9o9i8MDZCTsV27GagwuROcennFaIiT45VVva9BBRFyx++oFE+b12ywc62GRekvcXi3bN2xpU/Cb72lV/ao9qMek4ZjwVO8fMRdmt1lzq/FTzOk9fP9U346s4THIrL9UVvSNMKzYTb6f8zbfqdkwqLl1uinvy3W3qt+Pc5cAOH+Re1wtyHlJZj10PHeLo43vPZ/DpeR+traM8u72tOI2x16HLK1fHtzCfsJr0pzHso8+P/bnWQn891u5vsuse2XVrPsrwUsVGPWRUudrXV7dLTMxV2ZV9Dvmejzb6+Bnf2rCdYtnDd8plZT2w3uplgnfSkZ5xdJ/Gbru3lpGBP8gobzvl7pzthK1jythSF36Vr0d7CfLgUg+axNWx0WflF7odG/LsusZne3TeUa62E1bWp8aEDnEdxaBcjx+9rmvuNZ5pzHi6zapHf8qly0zPE97I6XfCoccy+TaXFf0el7p9nOcJy0nOsb3YlKE135rb5GvlPOvZo9rv/cm2eXfMJl3q1sfr897+gG9lb1nLE2cmnPVxpj110ZoC6c7OAM0GTvHcfLFfweq2eT6KYQuYqdiOVT8TMZXzEkQRKXj/wlPt2N+LFxvkj6w21TvT7vkQW+2ZSyf9lLc6k/0tnNWh3ZIxhirLxY6DKjq8zPDZ/Rpjj73aqX30sVfHbvWNjR4PY1OOjFFbX8jwBl35U+Op/RW9yR82zKtigyy/6kO5OraK65bcFi7d90qNa1y1T9zyAk6LrTExX+XpT/XvMv35DD49b3VrDbC/F2P13+05x+WBFyF4wivk+HU/ytsaj8+0W7Fgr9dr0p/GsLsVu/56rN2fcu6pcIU61wN/zaP24YKHgCmOVfwmXTBhvPqb+j0fZfq4+E14MKceLTLgYQzY6rGI24o97PQaV3/23a9cY+j0vesRaxn/HS9jEgOfp3bC1rEuj58J72kc3b24Oqb6rDVB5pZ3wlY8NZ97edLjr7btT3Gg13XNXT3aaUzeTjU44ny1vdWf4kVWv7U2jE/y5MZ49WEuK/pVj766fZznCcsqh78jXCb75ltxVs41zTqHm+691W/tH8W4lYf+OmYrOVX/9KlH59zkd8pbW1s2VjmgnTPt6YuWF4MtJ1MxJqC9YNUvkFsAVF/I7MWAf2R4EVS9KQbHqtxWgXjpe8iRlN1HtWN/Kp5zfkXADiQnHufOtFs+wJa5Skxz7n8Z2MqbOCb74rwX55aMMahL/hyowEBMp3gco1V3r+25I3urb3RXcQB3LwXo0F+p7YqemIqT+ZtXxQZZfspM+TO2iuuW3BYu1fdqjWusU5+XA+vPA7gx1b+iqDfV37mtVhzrvD5o63jPW90za2vPHnP4JF8+Qiirnx6P87bK+UxrLszV8QmrSX8aw07HQtv667FO/qiheyzz7PMe9rW317J+0EHXQwR+V/GbcnC97fllbspnGhe/CY9aE+pN3FVuioV5fFc5/VZ7jKFf1yRj04+1ik3qAf6uNWUftZaxj1/etfqynXJ3znbC1jFlbPHT8RHLM3vJhKk+a01W9nZjqy1x7p13ruDJCicmvPZyrzmIRx0T61qD1Vyqna3+FC+y+q21YXySnzhnLiv6PTZ1+zjPE5bKreIy2TffijN2bznPEiN7knFN7ZSHcVXMVnPqPqgTPvp492veZ9byKge675XnUxctkumbbneCDAHXcZJlTKAFoR9ItkCsto5ioIDY8UWrLod4xusBVQIoQ2tslZj0j2771Ubt43Nro2TzZR58IHCNrdo46mOjxqu8OYs747w4ke/5gBfjHTd0JvtTnfVrK769zh6GulzNf6qDY9RY3b2WuImzyhiTYz4f+UZ+FQd8Tjjqc6td0TvDb+wd5U8s4lp5MsW4JbeFS/V9BufqG73OVfcT5Vg7fV+qa0u5ldY4q+xq3kdrq6+D6oM+OPa9Agz7wdMYj+qlXPVjLszV8ZW1grw2q2+x7jaR11+VZ7z7Y77XsMa31ccO/p1nHTNmLGfwq3raQ59xn7daZCrfkROX+rKf8EO2++a56iEzxbKHrxgYM/o9Rud6Cw+pB2uv77fmsLJnVrvoHa1l3w21ptgglr4Oqm36xlW5No1ZF+a6jb29pMeO7oTp5BO5W98Je+viCp6scKLz8yj3iuuEB3tht7maS7W91cdW30uRPbtesFN9TLkw33OpOvbVnT4eTTxSbxUX7atHa77MOU5/4rLzW632+9qs8uTRMfN9Xdflak7VNn3t172HcdZt5/HZtTzVUH89jrPPpy5aLo76AmDzqM+C6qaCjsF60PBA4kIANPRWNtOjGLAlwBLaw2klG0BBNsCtxJnsE/8txMSHXw7wQTwVK+cn0jEnbpWgjNcf+XaC4McXlnWoOtq1HtgHM2LtBPal1PNHFr9dvvpRt9qlFl3X+vhCR8/aVLzMlfjpk9uUHzEoi68ak3bxwfiqb3NZwQFctuKqsfT+ih55rfKb9dRf0ubv2iAGYsW3+Pe4fFau5iYurmVl8UucPq/irLytm7s+8YdtONBl5Aoy1B3/4KUcOp0PztmKDzYcM++Kz1beW2urxqvd3hoztt0rXMfWi7XafXQ7Pk+5TPvb6lrBrvquA+LST99fkRc768fY5A9d8q/1Mo+9Ft5WPfninrmKn/U0L31iGx9HcSHDzzyxV+upPTiKnHsv45Nv17h+4d4Uy4Sv9o7WpDFNrXVmrRmDco9cy9QNfOA4fvnJL2tqHL2dsDUP63rEV/kz7SWuweoXfPjVsSmOyo0qe9Q3fuNBnpr7fA9PwJa44NVeHPJJDJUl77rHM26tKlbmoH6tgXmgu5oLMVc946ltXXv4U35vvRifdqb1hh38k5NyW/g4bysOxoI/dJmfeKTeKi5ir030u0/GWFs9V33ttdglFtcmsqzJus+Ij/sg/qf31WpOPR7rZ/xwGJ/g13l8Zi1v1XDiQI9p5fnURQuDJEpSkA2wSIZkdUZfYJFjU3bzRN4FyDjP2KFQjKtXC6fd2h7FgC1sYJufcVQbvizMgzn0jIlxyWJxtWdLEcyn2q595sULclSskNN2XRzqi8feC6bGa1z4w9eWHjEwry7tFBtxKINtMGMM2erLeKeWhWb+4MWzCwDb4qfNGos+9It98EKGH3Ymn4zpExvYZmyqOeMrvvHX41GPcfwZSx1XhxZO9vqrU+OoOpMemB3xu87Tx37PHzv8qj85X+Oi3+V4ZrziIs7V94QLOsiChb5rjatvN/LqB/t9vcCFWvNJhvWEnWq/9js+zPW8xafGY97IT2uLF8Fe3Y0BX+YgPuTpPsAcebqfgp110IbtVi41bnPRJ/bMZdLXti9TbNFnHF2etclYx85YJ3/M1djkBbLVpjHY4t+XITrIVy6t4ld9qw8WNQ59Tq2+ayxw0JzRIQ/t4c+5yTc1Fqdp38Qe+tqjnexZz601OeXiGHFt7bFigwwJwsb3AAAHFUlEQVT9K9cy74iKI/2td5mxbmHL/CpftTXtJWKrDG3FlD5jW3GIV60XffSO9gZsygVros49PNEmcciTmp/9iZ81d+wg2/eMilmvQeUL+aG/kgty4mZ8U4tv85OfjFX8jW/Kr9bL/LZqO+lPMTEmDtiE54xNWFb9FVw69uiTX41NnGseFQ/WmZhU/7XPfF2b4FTfxdS1vq+Ii/jxQyzaX8mp+q191qd5gR02q88uKw/kjTFUOe0hc8v+X21N/dMXrcnIZx6DOBBL8M3VcReh42dbSLO3yZ21F/l//8XvvfFgEdcNRf+Ob9Xa+b4JOL6lp/20x3VnM2ZjDlbHWL03RvB7qg3jvPzqy/y9Y1vxR4zwa0U2Ms/Hv0fWxD08e/s1da+H4UfW7TPa9tz6qPPsZ8Tsipxy0Wr/FK+DCiFZ2H2cZ75OcKie5vbGtAfp0X/2Q8ReLpn798uDw+LWgYsL+3SYBMNb9YL/v/HfwoO1xrrjS9qWTMbXsLwaJw6gW7Xhqy9z/ZB6dQz32iPGrXV/r+3ofwwvr8I9e/t19WM/4MzEfn5Vfb4mO484z35N+N2aay5aBxct/+zJl9V6IeLPryz4rX9asVcQXspc0jh40+7Jfm1z4Ll16HoFLIyfDc2XAa3jWwd958/qvQImzxAj+PpPJ54hnsTwf4cv1gd7KfthvVCxVhh79gsM8bNnEWvq+n91fXUsrro8Z2+/jhNcWuse8eocOxv/vZx8xHn2bA5fo3wuWgcXLUjBVxRe9pDcHy/VWw9uHCqwwyXLw/jXSL4pZ19KWxeSSefZxsgBfsgVWl4QRzndqvds+See6w4WXwuWHJ5YI+6NrBn+WTZr4tn3yPq/Acg/8f083IeDV13ys7d/Hl585J58BSevPs9+JB6v4jsXrYWL1qsUM3FmMw8HwoFwIBwIB8KBcCAcCAeegwO5aOWilX/uEg6EA+FAOBAOhAPhQDgQDoQDF3MgF62LAc0XhOf4gpA6pA7hQDgQDoQD4UA4EA6EAx/JgVy0ctHK14twIBwIB8KBcCAcCAfCgXAgHLiYA7loXQzoR96a4ztfbcKBcCAcCAfCgXAgHAgHwoHn4EAuWrlo5etFOBAOhAPhQDgQDoQD4UA4EA5czIFctC4GNF8QnuMLQuqQOoQD4UA4EA6EA+FAOBAOfCQHctHKRStfL8KBcCAcCAfCgXAgHAgHwoFw4GIO5KJ1MaAfeWuO73y1CQfCgXAgHAgHwoFwIBwIB56DA7lo5aKVrxfhQDgQDoQD4UA4EA6EA+FAOHAxB3LRuhjQfEF4ji8IqUPqEA6EA+FAOBAOhAPhQDjwkRzIRSsXrXy9CAfCgXAgHAgHwoFwIBwIB8KBizmQi9bFgH7krTm+89UmHAgHwoFwIBwIB8KBcCAceA4O5KKVi1a+XoQD4UA4EA6EA+FAOBAOhAPhwMUcyEXrYkDzBeE5viCkDqlDOBAOhAPhQDgQDoQD4cBHciAXrVy08vUiHAgHwoFwIBwIB8KBcCAcCAcu5kAuWhcD+pG35vjOV5twIBwIB8KBcCAcCAfCgXDgOTiQi1YuWvl6EQ6EA+FAOBAOhAPhQDgQDoQDF3MgF62LAc0XhOf4gpA6pA7hQDgQDoQD4UA4EA6EAx/JgVy0ctHK14twIBwIB8KBcCAcCAfCgXAgHLiYA7loXQzoR96a4ztfbcKBcCAcCAfCgXAgHAgHwoHn4EAuWrlo5etFOBAOhAPhQDgQDoQD4UA4EA5czIFctC4GNF8QnuMLQuqQOoQD4UA4EA6EA+FAOBAOfCQHctHKRStfL8KBcCAcCAfCgXAgHAgHwoFw4GIO5KJ1MaAfeWuO73y1CQfCgXAgHAgHwoFwIBwIB56DA7lo5aKVrxfhQDgQDoQD4UA4EA6EA+FAOHAxB3LRuhjQfEF4ji8IqUPqEA6EA+FAOBAOhAPhQDjwkRzIRSsXrXy9CAfCgXAgHAgHwoFwIBwIB8KBizmQi9bFgH7krTm+89UmHAgHwoFwIBwIB8KBcCAceA4O5KKVi1a+XoQD4UA4EA6EA+FAOBAOhAPhwMUcyEXrYkDzBeE5viCkDqlDOBAOhAPhQDgQDoQD4cBHciAXrVy08vUiHAgHwoFwIBwIB8KBcCAcCAcu5kAuWhcD+pG35vjOV5twIBwIB8KBcCAcCAfCgXDgOTiQi1YuWvl6EQ6EA+FAOBAOhAPhQDgQDoQDF3MgF62LAc0XhOf4gpA6pA7hQDgQDoQD4UA4EA6EAx/JgVy0ctHK14twIBwIB8KBcCAcCAfCgXAgHLiYA7loXQzoR96a4ztfbcKBcCAcCAfCgXAgHAgHwoHn4EAuWrlo5etFOBAOhAPhQDgQDoQD4UA4EA5czIFctC4GNF8QnuMLQuqQOoQD4UA4EA6EA+FAOBAOfCQH/h+6xYdzM6yHVgAAAABJRU5ErkJggg==;" vertex="1" parent="1">
          <mxGeometry x="-4" y="80" width="858" height="196" as="geometry" />
        </mxCell>
        <mxCell id="ajZ8VFf2TZVzlizMMy2S-2" value="" style="shape=image;verticalLabelPosition=bottom;labelBackgroundColor=#ffffff;verticalAlign=top;aspect=fixed;imageAspect=0;image=data:image/png,iVBORw0KGgoAAAANSUhEUgAAA1cAAAI8CAYAAAAdhlHdAAAgAElEQVR4AeydPZYttbJ1X2tuN2gGjaAPNIEW0ADGszGxMTHxcPFwcc83JnfM764XN5Sp3D9Vu+qEsYeUUvysiFiSUlmHwf/87//+75ez37/+9a8v85scDAeGA8OB4cBwYDgwHBgODAeGA18TB87uSXX+f76m5EyssxkMB4YDw4HhwHBgODAcGA4MB4YDz+LAXK7mr3LzV8nhwHBgODAcGA4MB4YDw4HhwHDgARyYy9UDkvism+/Yna8qw4HhwHBgODAcGA4MB4YDw4GPw4G5XM3lar5SfHIO/Pzzz1/+/vvvL7///vuXb7/99stPP/305ccff5y6f/K6z0H8cQ7iV60V+8X3338/e8XsFcOB4cBw4AIH5nJ1IVmvegAOrnmJWnGAl6PffvvtyzfffPPll19++f+XrJX8jL8ml7wg//HHH3PAlT17cvM8zvJBhv1j9oXn5fhryi1n0J9//jl8KnvY18SBryXWuVx9EpL/8MMPX/76669/fvS/FgJPnHPon3Hgu++++zRrYy5Xa75Pbta5OVsj3Tx/sSKnfJjp5mfssfn+GvIJl+DU/MuJr4c7nL/UnH89w4ew9+D5r7/++uYflrcuVywEXtx3k8OmjOwrfvGyyHyRe48iP8un/+SL9gqBzQf1WmFjQ+Rr05EMuiwi5V49vx8Fq/kk92wQqxq5PpEjtirHGmaOL4d1jme//h/9E6Cr+0DnZ2cM7pxxbceOMtgjLmK/sjbUf0TrXw2J6yjH6Ys6Iu9aAvurveh6aN2T1509KPNC/xG5ST5nTfhrb11r1K9bVxXXI5/x57ru7IIZftyT+2qXfzKsTT7SkYsqk8+31C71X73PO8yVNWs8ya1H1ge7/PRD6/6QY8/qX42r28tdX3UNPwuzGKjj0Y/1dDU+MaOH7bpvOP/eLdjekicZL/wnP7TvgYG64pezkzwktmf2ty5XAGCjBdjORkEQvkzsyD8zwM42L6zvUeQOyyPHyLv/BOyKXQ/IlQ654pDn4F3JOC6BP0J+PwpW+Er++ZnnbN3YWZ/dXy0ZQ9eDgzb16bNO0c+XzCrD85V9oNPfGYM7j94EqTUHH+0OhmfIuCee5Rjf4KTurDnW5yvuo/KOuO7N69kelPV4ZG6ModaE3LuWmOP53hgzhrM+vsgJfis2dRnfPZPVOWq9zLlPrPxWG1dqV3Vf+dk98VZ+P2Ov5GLCXu6ll/3hrc/aK3Gt9vJHruEzDoGBdWTOrKt6Psv3K/FhAz3PV/zsvCfp+61a9om35kmNjfP3rT9QJQb2NX459sz+9uXqlo0cHTbetzyUVsmCXN1vJf8RxyGvG8gV/KsNEBvUkPkrdl9hIe/G/xGwkn9fzLvNgXlqTyzUq8bOGnRTo+UAqDK7z7fsA7u2nylH/nxZfqafI9v1ED+Ttdbsn9T4SP495uBVx7cjLCuOEh9zR7rOkcd7cmMd8Jc/xvXhOmGe9eL6cZ4WzKmTc/f2eUG79aX+Vt98mDNOWvaUHVtXardj7xVkvNxWflPv3bX4rL0S7vMyDzfB8tbvV4+Iizzes4avcIQc5YUH3+QubbDGrfXV+LDvunGvfuuaEIu4M65X6VNr6/0emHh/3V23j8L31MvVo0A+2g5JfutEPzqGR9ojF3Wzuce+m/49Nt5K9yNgpT5snByo9Z/asmkw7tc2D4hn5c8N/Fkvlc/C/Qp2PdSfXaNXiLXDcMTRR+9Bnf9uTD5frQkvT+wdsw7+fcl85PnR1elVxvigsPvuILc+G0c+elzuwytOfdT4/AC7imvG3/a/c7vpcsUhyU3fF9N6S+eFj0Ir459MLS43WHT5QWTIfvQlhq8C/ttn9WzPNrqqi526QXqwpy0XmBh9pjUOcGeMfOkzF9hKexUH8ZIjbWWLrPEhxzPz6YuxW3GnL/racdxagMGvl/jLcTGpky162EyMYK865IovStTDeDMnzDmeefCvNMzVy0bioA9X0z448gvKDlY3Y2TTvtiYZ5xn+2expZ2zPrkEs5tn/hWRMX4dP7V7xFNk6npUr2v1Y5zKEC91kSPkucogi36VS15kbbW9aqtPa5n5ueJPe9Y1ubjC4Jq0Bq4l8pA8Q598YBtM9M1V5+dW3Ng076wffbBOiG8VR46jb1zgZf1kjejnfsw86yxt1D4xisX8mgtkzVvWAPmaQ2Sr/1tjI0b5Rr4TM34zRvCZP+YyP8Zj3tMO/ZS11sTgOHFmfjP/zIFR3+Dgh7z5XPlNHGnTmtaapUz1m7Zq39o5jh1z4hitY+Ll2T7zda8m/+ZFmzVudMwjrfL6lU/mSgy2ytVWm8TGHHbzHFHf+arPM5wyxsSJjvVMPWLU7yr/6B2dmdoDb/IXe3JPmWxdB+A1Z8ZY9XbjSpvpi37FV9ew9Up+HNmr9o+e5dJKZjc+9c/qxn5hLrGNvPF1XKjrQF3azIf+abGTcvaZk1PJ1czlWb3TT/bVMxZ86iPf3dSh5srWOMgLmJzv1rJ2sq25Qi9tn62XiinX6S6GxJP9y5crgidxGAEICSUpGgUsY8rwouOmRKDKSTiKQWIZJympyxg6+HTxWVDk1NNmbfGNLj70bdElgT5IZI4xzqaiH3zZZ04iiIFWX8xjS3viQAcc/IjHeeTrr8uthfflETtXcVc/YiU257DPc8VnDqyt8rVFl1wYr/GDNWVThliQR5c4lXPMPDsONuyh51htzaF4wYFOLr5drB5U6UP72sOW/Z3Y0tZRn1ixW9cWOvghLmtT80T+kHGclmfWZPp0PSqXc9lnPuNkjhpgjx9YGHOd5cHM2A4Wa55+u74c0Cc5ApsxXPWHX2wRj/Um551vx5DFJ7Gjz3PqiwV58cFBx91jyL82H4Eb/PrQL3b1sWrBU2uUOfUwylitV67bzj540lbKUEvmaK2BY9YXefrg0z/P5BPZtNf1zbU40aVuFRO5O+My9tEjt52vHIMPYK4Yu3wQV81/6mJDO+DfwWD95YN+E/vKL3nIWLo+eMCRc66fHDvaL91/5Ki1IXbyZwzYM26wKW9M+E2fYIMf6DCO/E7OkO14lflPP11fTMQgTnNAvlNnN//YQtZ9hj7xyGlsEmuVIy/yJv1mX1u02Mh9LPfBq3FVblR8PNdc47urU8e1jGGnn1zq5K/GR67RwRYtz3XdyG/wKysOuaF+xk1usIVNctLhdUx7Pmdb88vcbr3TTvbBxQ+MjFf/7repY26RdZz4d3KovG211fEIu8R5tl7IObFYC23X/UTfO+3lyxUJS8OAP1u0Jl1SoS/4fKlgnCAzIOVSd7XwEhd9yVNJ2RGNGGoc6RtMYMMWRaRfc0FhGCcmiyoOniu+s2ftsXHil+LnJof+Fdwrf9gAd84Tb8VMXOQu5bo+tsCac+Yvx2rffOfCI17sSXp1wFG545wtMsklx7PdxSqHU5c++sxlraoMz11snVw3Rn3MCXk1t8QvZz20c53s8FR/4kt957JVTjzMgYM85AHPuDV380079jvurXKtjm1XO2p+FMORv8RpnJV3+s62w2Huk3/GlXmS35nPtG1/F7c8SHu7+6WYj2Je7ansFWd7gznt6mN8uVe7plIe/3VfMq91bzR3tMZW92y5mz5Szz41BqPPtIxlnnOu9ru8EV/aXGE0D2AldmxpfwdDl1tsiH3Hr/66Vvs5Z01yjL54jcm1AHfc19RxbVAzfCS/sJN5QAeZyg39aZMWP8jmWNdHpsp1Y50uY/K9cg6Mafee/OvDWuKXvNQ8rDDmuDUDj+Pap1517Cwu5LWpLm2HT7lcw13tyBvjae9qX18rPWM+i+9K3bTJGk6/xNKdESnjno6NHK/9o7g63ip/Vu/qh2f3zaxXldN+jpsH5nK89nfqrH33EGyAK9dWtbvyTx129pNq7+j58uWqJqUrWnVoEpIcBplj6BFkJqeT231ZYIOpGzY+OszdmL7BxMbuwqgHg/GmPPZ8UaibqfI7LQvPOGquVrEkjsS98gdWYsx5F3QSFzlzkLK1X2vIvByosvks7soxaph1RC4P2rRh34O52nLedhfrCj/6/KhR3Yz1QbuKLWVWffJuHHKP+LIe4sOPdpTNGq6wiC/1tZOtcuJhzkuUfFe+w+Scbcc99ZRZteSb3MMNeFn9d3q7/ro4O3uMdRzqxo2r5hj9zGfn5yruW3zIl6qbeNyLcox+h6/KmNPOfqffyXd7qXLgrz59NrbVWugwqUvb1XinbtpwP839kz0s/Z5hFEPyfAeDvvEHz/JlCnxnfh/FTfMI5twv3au7/RNZfmDPF7ku7o5DnRz7BbLWZtUiU+W6sZW+vKz5qzbuyX/no1sjK4w5Dk7ylWOd/W4MnRoXY53NDp82yYX+u9rho2JUfrftMKWuWB5ZN23Spi9iISbHOmyu36qrjm2n69xubcRZY9eOrWe+z13b4dm1v1Nn9jG4xI+LUe4PHR7GVv6fwbWnXK4Imo2SBBE4wPklOQwyxwi+ko2DBBtsiB4qJBK5ekjUhFZbzndE68ZWGCVNxa58JSY46phYzlrjX10mruBe+cIGGOs8eferCsTlucp0z13ezVnKExubKf6JD70uVx4+Lh4w5SacNu1bi1oj5213sXb4sdHhZXw3NnEcteRH/mBXzFkP8WW83Rh+zI02cyz1O0yd7oo/nX/0Wb/qEAu/9KVejq36HDzsDdggHzyn7K3+ujjTbvatR47Rr+PGhe2URS5rwdy9uHd8JAb64qvj+Vxjcs56+ty15rRiQ7bT7+Txv/rVHCYGY6u+Ox/ocQlin5FbXdyMHflM//TZ49xP8Vv39DOMna9dDOyd+DZ3aesWvxlbVzttphz9Dq81SEzqIY99n207Ox0OxtgXPDuoK7p5ydVmbdGtvruxqufzKq5qw1whry5tp79zrnS5SburvjhyvsPQjaFT42Ksswm+1S850MWBD8YT49V+hylt7ManHeTP9LVZZYmFmNRXzr+iUG/2oLpXKJ+teHLM/m5t9J910Ea2nb2cp9/hWdln/Oy9oNrnmfygxxonl+xxjCm7s16QfQbXHn65IkkEmi+/Jpk5gzbJOWaQSTbGeGEyeSQBstWXKO1mW4nrXEeMbmyF0XgqBuUrMS26/q+0EIeLKvG74FL/Cu7Uyz42wJhj9P3LgASucVV5n7u8mzNlsMmGQUwuhlX+mMcmePxaoY72aqut5GGV4XkHK3IVv7bQr3m5Ept2jlrqkz58SSIf6omPuOvYDk/NV+prJ1vlEo/8qTWpmKgFPE4f6qYP9XLsrI9NX4T96HKPvy7OFYaOQ8jWcePK+JXLfD4C95mPLhbx+SLayRATea5zXR2rjDmt2JDr9Dt5/Hf7YPVVn42t+u58sL6IUR5hq9bSsaxb9Vmfcz/FR33BF+POetU2uK5gICb3D/3f4lf/tF3ttJly9Du81iD3M/W6vK/sdDiIl3MGO/zo7+YLe/zEQtuN5Xz2jav6qzbM1Vndd88V4qTGiWWnL46U7WLoxtCpcTHW2QTfzhpGrssd44nxar/DlDZ249POWd2wrU3a9EUslWOsg3zfpZZHe7L2xONztru1EWfNe9qijz0w1vF87vB09nfPu7Rd+6wN/cmt3fWCrWdw7eGXK5JeD1+DTmKZ5BwzyCQbCaKIedDVxK6esUPSsJEy2EsfzCmbcn7lqhghOnYtojrKe2g5ju2dLw/K20I6fRzZBos6tMpW3CmT/S525sk5tl3sNY9pI/vo1PzKAeV8TptygjnlbMkDdaPt5pXLtqtRztPfwYqceDOn5qfiUXY3toqpPpPL9MFmDu5cE/pMfGc8zUPB3Kd+xcGzcokHnoKn8p5aMW4e6NcXqI57xtL5dwwcdU2ZF2O4x18Xp75ri5/Kd7mR8RqX+LSDfubzEbjPfOg7W2OudUwZX8yTe8xTi7rvpx597cOXOtfxQPmMBf+17tVW96ytrAdyclcfyuXaQK6rMWNXXmJdj9S6ezFx3j3fONzPu7pU7qiTLTJZL9Zj6p35rblI2/S72nVcd00k17VFPmpdla/5QCfxa6PDwViXN3WOWnT5pQzPXe1Sxr5cqvFWu7v5N6fup/jpfGC/5lJMR632U6az342hU+NirLO5u4apMTYTD3sM4zl2td9hShu78e3WDdvapE1fNUbmb6kdNo0LXOmD/m5txImtaiOf9ZX7Ss7TVyZj9oxO++Sg7svgPaszMnVtww85o/+z9QJWfCUmxnYw1JjzeftyZVJqEiBCksHD1wKTWEHmJt0dGG76eUhb7KMiZkDZ14ebM/bBD970gQ7jJNhigVXcSQ7tO2dMyLDpYjeLiXyXO/zUXGqbVuw5hm0wmlvmruJOe/a1W3Ez79wRVu3QdjVk3Bdt6+hLjS9ajCvT+TKHxN/hTAz2zY01Qo8FZI13sWJP/3KJGoi3Lsrd2IiFn3hXLXztcpLyNVbnVjxlXBla+WZuci775iHxkEdfjuSmOcjcKGP9kJFfjuHLvMqV9G/ffcF6oM/egw9t3eOvi1PftbWO5g7cxIX/jKGrEfPoGwe278FtHV1X2NPHzkUA3PDNOqKLnnGYd/hDnvlZr26fzFwhS6zqgtWcdTwwFmWwZV3waZ3xi00xps/sExe5NTb1wIRdZJnj2Vzhg7p1Z0bWGL1cE+k3++rkush54kg8YAQzesarvHVN7jiXLfZSH9+MZb1WfhlPW10f29hLfFkndMiPPOliF5M5JDZzZb30vYq7wwGu5I82dlpqzi9lcw0TrzxJGfvmwJgc7+zu5N891bVNHsxp+uj8koOUEUu22sKu452tbgz5Lq4jm8zJGddi+q71hyO1xuhR4x2eGpOYiMOxbK/Et1M3bHd7GbGDnZj0b4zmxfGdtuImTvN5tTZnXMEu+xLxi5Va5HoQDzjAn3tA2t8972oO8F33c/Lp/rK7XogFPXHqp3LN8d1263JFUggCAPzcrEikYyYVoBKOghKoCwBZbPFTzzEAI++4gVI4g3SOFjxZoFXA+Bc7GPGd+NTDT44To7jxT19ZWuTBqG1aniVaytLHnvEhC66VrKQgTjdSF6c5IA5xXMFdcYFZm+Cr8/p1kdb5+myM2LSGGQ+xq6PvzJ1YjFtZWmxrM8eP+nAE+9hFn3iUv4IVHWxhB3tyz+e0i+xObMYqnq5NjNWH8tZIe3KD+Y6nYE/urdaj9m2RM5f4SjzM5X4A7lpD1pDxsKbYfFkH5hA/K66IwRY+kmPtYaOu01v9HcWp/2zxDY7cp9xrlMsakUN8MJf5NF/34AaLP+uTPs7WD7zIOrK31L2PumWsNe/G3LVgAg8/ao+Ma8U8MkZ+jIPWfDFX/ddcd361mXsl/olNP+aLOpgzbavHs/bBJP+IIdeUMrXV9kqWcWzpn3ZlWxnwy53qj2fWe9YLzFW+81v3ic52Vzvl0AcbOOkz7rO5VpaWephP5Mx9ytDv4l7hyHFs+sP2qgb4YD5lxYCOXKBNXipDy3jiNN4ju2BVx5xVjMbDPH3mxZk1xZ+5RJbcVluJF13tIL+K4UpcnU197qzhXF/uMcQBTmLDluuXWmj7qDV/2CDOWr8r8eGHnJ7VDZvmllaf1ocxbGCv+lcPWTl0FJ9rDnlyjGzHua421feZP+RzXyGG+p4oHnJNP/mqfWpoLrAHbussF7uY0Xctkqf0obz1Zo5++ne9MGeeHVOPcbBp70q7dbm6YvDRsiSQ4OrGwDiBW6BH+x17//5/b0FyiPbe+aD+LIK6eN8b1/j/7/9H29eWE/ah3cP9a8vNxDvr47044MsibWJw/BXOtcQ1/VkrcJLLUOWCL/vz/vNxOPLylyteqHnBr2TzBupNs87P8+0k5GWR/L33hYa6W/tXueQNr27n1WfN3VyuhhOfldsfOS5eUlcfPfhC3r3EfuR4B/vH3oe49HOW8JecWkv+msNc/VBQ5eb5dTjw8pcrNkcuWP6JE/Jwe2djZLz+ReutyeWfpb0EvLX/Z/hjEfMnXA4g2mf42LFJTsUwf7V6nU1jp3ZnMp/lQuJHHnh6FvPMfywOf8a9/SNw8FF7A+cHtvgA63sCrePdS+xHyA8YP0MMHyXXb4UTbvKew1mSlyh4ytjqQ8Fb4Rs/186vl79cQTj+JOq/yWSzhICMvcKfSD/jAUx+ybP/Rva9FhWHIjio/Uc+CN8rf6/sl7p+hsMi9yX2pFfO+WC7djh+xr39I3DgkXuDH+iw6Y8Psx/9PJnL1bW1/BF4D0YuVf7hQL5yxlBvPxB8lFi+dpwvf7n62gs08X/OTXTqOnUdDgwHhgPDgeHAcGA48Pk4MJerf32+os5CnZoOB4YDw4HhwHBgODAcGA4MB96eA3O5msvV/FOm4cBwYDgwHBgODAeGA8OB4cBw4AEcmMvVA5I4XwXe/qvA5HxyPhwYDgwHhgPDgeHAcGA48GocmMvVXK7mK8VwYDgwHBgODAeGA8OB4cBwYDjwAA7M5eoBSXy1G/Pgma84w4HhwHBgODAcGA4MB4YDw4G358BcruZyNV8phgPDgeHAcGA4MBwYDgwHhgPDgQdwYC5XD0jifBV4+68Ck/PJ+XBgODAcGA4MB4YDw4HhwKtxYC5Xc7marxTDgeHAcGA4MBwYDgwHhgPDgeHAAzgwl6sHJPHVbsyDZ77iDAeGA8OB4cBwYDgwHBgODAfengNzuZrL1XylGA4MB4YDw4HhwHBgODAcGA4MBx7AgblcPSCJ81Xg7b8KTM4n58OB4cBwYDgwHBgODAeGA6/GgblczeVqvlIMB4YDw4HhwHBgODAcGA4MB4YDD+DAXK4ekMRXuzG/Ap5vv/32y/fffz+LdPg1HBgOvBQHvvnmm3/2JtpX2CsHw3x1Hw4MB3Y58N13333htys/cu/DrZe7XP38889f/v777y9//PHHu5GHi8Fff/315ccff3w3DB99Qfz+++9ffvvtt8nfvFgPB4YDL8UBzpg///zzy1yu3uel46OfbYN/ePNeHGDP4t30p59+eqk99b3y8cp+X+5yZbLe83IFBi5WHMDimXZ/Q+UvVtRvXl72czb8mlwNB57PAfYk9vX3+vKLX/ZGPiByyZuaP7/mk+PJ8WfhAHvGr7/+OvvGB/hg+fDLlQcHh8cuoTlwkOevHehAoFd4Mf/ll1/+OYT5Cwz45p+5rTdpvqT4wvDDDz984a9/u/XflbMOr/IXxeRsFwOboDnp5j/7GOv4aN2w7vkKh8xRLszjmVy1wR7ifvTWa5e9DLyshYpr5xmOm5t5Cf/XPxci8smv1pJcOdd9EMvzhX3p1prs1I0zQyydPLUEL63nXSfnWNqrcSuTrWvuI37ZvhorcbuHvOfHPOq9quUzzqzk+w4n5Mcz9sOrNfvI/DSPb93KIWp967q+ep7gC17j+63jPfN3lXNn9p41//DLFUB9odkB7ZdESIMei29H761kxEXLy84rXPpuid1DiJcPXi6IY3UgXLWvbRfwlQ1/1xcv2PDDOuBzV/dZckeHqgcgG8FH5cy9efMg7fhATqgnfOzmq+8re4q6cOa9/gkF/AQz/m/lKusUjr3anmh+37qFK+Sju0Cxzsh1xQTPkHcff4tc+jGgYslnZHZ54cvEzjrh8ujFfkc+Mb1C/0qs1Nb1Tczv9SK4OgeeeWZdyZN1fdZ+eAXLR+EnaxNusXc8+n3Jeuy07lu+99zzLnHlPMGPdX2LPXMnFykjtlfe455yuXJzz2Ss+hSOF1HmKeijXvhX/q6Mi0dCgxOSX7HxKrLklTggIxsGG4d5vxcjh5ovCrRs4rfY5JDqFgsbMi+q1oFN4lYft+C6RQe8XSy32PqMOqwjNkhrehbjlT0FW/AQHbhzZvveefaw1b7F3K1chT+3Xq7UvTe2V9Inx37FrQf+qgaMu8/BtVWd7o0Tu9Sq/ro9ADxi2vFLDKu9caXP+nqvy8YK0874lVjZPzKPrLMu3zt+Hy3z7DPrSp6I7Zn74VUs4Hl1frKen/W+tMs19yvPSLjevX/u7g2eCdRrFwM6+e61q/coOerQ4b2Fc4/CtGvn3S9Xu0BHbv1P8j5Dbvyq8iqH42fI6WeKwZfXV4yJwwd8j8Z2y2EoBr/s+fwZWnJMTvw45EsHsXHYPqMGt+TNg/8W3U5He1/D3vg1xdrVenfslfL0Slh28/dZ5K68N91znrxHvtjfuTjCr+r/I3Bu63LFVw/+0kGgFJMbNAccz7TMZ/C+CJEcviYht/pLCQVHRvvVnvrYqPZMOrd59flal4du4rKvHXWwnb+VHNj0qYx5IGa/DmGLcXKFL1908Edf3d2WfIuPfIFB7OQHH4yLhZe9WhO+pOFbGfTzq98KC77UAQO2iSvlUwa7YkqZoz64jMc4aYlJvfQBnsR+lB/qcsYHfdju8MOc1Be6W/Kctq5yCHlzlvlKm8ZFewu+1LcPB+CCvrOlVrUm6tEy518g0NupETLIWhv9dVwjD4zLKXKR64E59au9K+sTm10OwMqc/smH8WddkDEuZJPTyBMHONEn36l7xGltGqMtNqsN64COGB+dvzOu6PesBSO2zAt1VIfcZQyOk2NjJA/1fOhqlPzQzqqVP9qBD/pTh/Mpa8D4ih/qZEv90Sdu+vrquPpqtatxJo/ruiTm94zVnCfmXJdwzNyDHflcT+rbEovztLm+6cuJWld4fLS+sb/KE7rgFwPtGSeeheVV+VnXLHUgb5yN5q3KsK5rXpWlzTUuN5JHjskf6qf+ar8BA3bzjMmc0teeXHKf0Ha28IB5fOc67Ph29p5wlTPkwn0xsdLHf+Kkj33XTsqbtxX/Mz/a3K1lPafAe1Rz7a/arcsVyjgmSApNwRmjACSAAhOATkiWSUOGOceSwNhBl6KjS8szPrRFK/lotWehaNU34eJLG9kHC7jFgjx4LRyyYAYHvypXC4gtfoyjh7x56TDXgpmrxFj7khnsNV7GjJk57JEXbeCPMWXAR1yMZd2UtzWf+i4Fn5sAACAASURBVNN25on4dmqozVWrbX2lnJuIcxUXskf5Me60edTf4Qf61BhZbd2aZ23dyiHXpvkRT+XVPfi0SWut5IF8qvuANUlc8HJnTaU/+uSZeFxPjLluGVOesR0+opP2WAfuKXV9anvVgi15oBx5wYd5cpw6r2qtDK15Jh45bK0z5tSx7xrxOVt8UwP3TmyJ/9H5MwZzsOJK4lv1wagdayW3aI1BfXyRO+LLfTnlGO9qhAzj2lq15JF8yhlw4LPqsofVsZqblQ9riR/j1R5rTL1XrZ3rgFzJY2OnjuKnfa9YEwN98ck353mmvnluUpfkFLLPPrPME37lBC3YwCPeXU64V6c9fVgzbdZWuY/CT2IEK7wkFvGbR8bgKj9kPBtq3WseujXJGByXL1f2G/y5d6FHnz2EM0Df8jSxO1dbZbFrTbvzZPc9YZczYMenechYznATL/WpsVizM86ht1NLYzEv1B09cMuTiuHseftyZWEgSxqtoJiDvCSFJCoLaMbOkqmuerQmMoOUFJl4/K2KkfY6GRKJb+WMK4nMnId6YnGxqkvrQst4xZxjyIInfacd++YfXI4Zb9WtsSifrTmtWFIGu2DLOrLAzTk5YL5ywlon1rTb9Y2v4tGHpFcXv3kwq199Vjn1j1p0jFG5Lqfkp+ZeedudPCOLnTwUGdvlkLHX3BHHo/AZD60x5VjH7RWu1KO/g5M4kEsuoktdGK8281ndHDOGXMfirVxLva6P/VWewVa5hGyttXh8ScePeOr6YsNf+ROf9nzOFl1s1FymTPaRrznW/ln+lEt7HVdyftUHB/aYd18wD+TKvvrsVcTpM614Ms+rGtWY0w791RnhS1DK6zfHrK8x5Vz21c2zyBegM91XqR25JC8ZF9hW9XnrWBOXfdYo+4vPtJw5NefEkdyTm3UfIQePOrM6ToCvOzMSP/2OE3LxlvOzw/LK/KQOta75ku66zj3C/NSa1txSXzgNB9DHT91n8d9xiPFqL5/FkLqO0aZs11f2nvMk/WjvjDPKpS456fJQca9kdjm3W8turcvhum9VjKvny5erLCxGTVyOHy3eTHAHqtM1kSmv32pvVYzU7WRYBLlBskiQqwtDLOkXvdTFl3Lpd4U5ZVb9lW4XS4en2hVfxlFlfAmCeMjnixSybDT4z4OQcbGiU22untWpePRRx4kxD+aVPvhqbVYYHO9yWvmB7KPyvLJljcRF28XZjSG7E7s+an7TZ+2rk+NyJe2scKUe/R2c5Bq5qiuW9FtlOl31Ula8zOX4Wf+IBx2XOnnxZBwrPJ1+xai9Os7zjn7qIV9z39nv8HZyHVfS36oPDuw5r20OUHwz7xwt+0MdE2O+JK1qVGNO2/TPzoiUF2uOiSVjynn76iLvGG2HO+fpv0rtOqxH2N461po3nr2oeO7Rwqn6TkAcybO3OLNWnNjhVJd39bq8Z2xdnlZYuppX/Q6L9lJWfMw53snt7C3WlTOdvaPW03WtH1viYc7nrsWWL+q01TY6XV66PFT7XQ4cq3WrujwrmzlkHN+31Fh71Tfxpb1Ojrx0eai4VzLWvvOd8e3U0ktUvXSCpcZS8R09v/vliuRwM5RcBMMvQZvIHOsKxvyqGKmLLzZJv0x4u6VVTjw+24oli4osP2VolcuxFeaUWfVXul28HR4OBsjDHLGb54yj802OJGj1ZYzVhliZ72x2Y+pUW/oQb221tdJHvtZGnVVrjo74ge4j89zZMvbE2cXZjaHTxX4rDzoMftFho+Sg4jDp5GpNWWdwCh3reVYj5pFN+/TNUfqgf8+ecoW3YOhqJ04wV3ud/CqOXX392WrP52w7/zn/yPxhixjOuJL+V31wZy59kWE/46WK+dTF7+qXdlY5Zjzt1T7+Opku992YuUks1QfP6iKf8x3uV61dh7XL33vFmnm1z14Jbi/iYJPHytASR3LPGNDtfupa/66uaU/5bPVRdbXJvPKMne2H6lV74L8VC7qJAzw7WIxN/OpVe2K2JqtzKO3YZ7/w/HH/cI54u7rt5CKxiku7tjUOxvWpDC3xwD3mOFvFlDk1B7Vuace+sqnPHPb5KUe7856gveq75ok4yDH5po99coMcftJv7Xe5QkaOdL4zPvNq7rI1ZuNIPXEgr5xju+27Xq4gDknPBJmMDMBE5pgJSV3mV8VIXQqaZKVfEysOyaC+WNIvsrUAyqlHu8KcMqv+SreLt+JBlzx7SOBDfBnHyjfj5MxLlpdQbbBRpa5Ymc/xo746FY8+zhbhSv+WxbHDD2J5ZJ6rLewbe+ati7MbQ6fGjty9PBALF3Vs4YMf3PAyqkyHy0tV1rPiVD9b8oNcjtE3R/p+xJ5yhbdg6GonTjBXe528cZAzdc3fjr46ttrzOdvOv/PPyN8OV/R/1IK75sIPY11M5H71gpN+VjXq+JZ6+Oxkutx3Y6v6pg/66iY3GK+4X7l2FSv4u/y9Z6w17zzzQsiPPvtd7lvKV+4ZQyerDq317+qKzZStfX1UXW161u9yQr1qj7rdiqXWfBeLsWXM4mMux+/dW7DrJct6EW/9UJg+j/q8L2LPGHxXSp2aF+bwybhy2AED+5fvoF0OHKNVd9UqW3OI76wxcjvvCdqrvjvO8I6Y7wvkqL43dri7XCFnfjvfGd9OLY0DLlUMXSxVZvV89+XKwy0TVYmCcwPIZAC8BtTpmsgMorPH/KoYqYuPjvQpw0aArSrnjVvCo4M9fql/BXPqrfpX4q14ePaA0L74sh7O2RK/Gw5jxJz55YWW5/oC03FCm6vW+DwUlNNHrYPzturXeMBXa6POqkX+zB+6j8pzZ4sxa5Q4uzgdQ15Za5Wx07+FB9q0xd/O4SMuWnR9zr2C8Z0agR25XHfoEg+bttiQuXdPyTxq96gFW2JIWfBUe8jzSzlrba6YM187+mmLvva8dOZ859/5R+ePGHa4ov+jFtw1F8gzDu6aUy7yO747XXjF+BEec1z57Eeo1FU264sePrqYznSZr7o8P5L7j6xdxQp+6/YKsSaG7PseQI2oa87ZJ47k3lucWfKpco/6k2vX/S4n3GuSn8SHfsZmzNmKpdNNbu9i0V76EF/aY2xnfVc7Vcd1KH5rnu8+aeOoD0d8d+C9iHPBWqjX5bTuN+Ygz7tVDrBX35v0lW2nz3zlL8877wnaM2/6qvERA3m4JZ/Y6tad+el8J0d2awm+ygvw4r/uqcZ51l6+XAHAgGgBVQshUZIYvnBLPIAZkHIkotP1QpPF0V6SymR0xchEkLDEkXP2JQTxujgsVBYPeWRqYcSsLnIdZsYrGcWQrbqJexUvWMit+uQDH2KhbiwgxurmrA4t89TD+nSErnbkBOPV1hFJ8WEe6BOnsYKBeOQd82BJe11+tIm+WLCxE7e+1evaWvdb84ztaouxXQ5lnPT5oYvNjH0XX7e5ZvzkPnmRc9mvNYF/5N71CU5qWHGmDfvyjLjQY9z1mHvAPXuKh2zySs7rUzzZIi+nkDM+1yeYU76rddpQtsPDXKevjm3VBYP755H+M/J3xhVzTCv+rgV31kYZ13Tdc8xBcgZZ5MwFNsBH3O6P8puaHtXd+mZ8cJHnqptY8IkvcCHXxWRstB039J3ceo/age8shg4rel2e3ivWzHf2qT/xkVvPn5yn360nOaUOduBV1rruj9jSH/rVTz67ZpCTy/gCp/sP8rucuAfLe9XMdXq0RjNn9MkR9XTdoEu+yJN2yCfPmVvGkGMdV5s+YzP3IGsJP7SNrNw42m/q2Yb/br/QB37pU0d+YsrWPSg5yHzlL3GSI/GRM+wzlvHvcsacy9PEdNY3V+iCR+y7nENvp5auJ+2jp++s3RnenL98ucIhxXDDoeDpXAIwjxzOSArP/rJo2sIuhTNIEoKuJNNfZ08yoaMPcGSg2U+MytNCqowFnBKNebDmixw2c54+YxUzdmoOxIw8tnNRJlb6VZdnxrt4E4/5hyguDsbIsYTHt/aqX4hGXZBZxU++yKdYaNHLPGIXffNT/fhMTtDnB0bHqw9jcH6VH+TELh+Mu9ZRW7Q7/Mg8G9etee5sXeWQuTPPicXYc8wcmg/05AFcoQaZk+wjx7y5tcWmvF7VhLjUJW7k5KZ5TF/2kUE3uZb+lCMe6351TxEX8RiH+5G50U+28NMYaJVNe/KtqzW+zCE66PNLffF0+okl+x5A5MNDMfUZT3n6j85fjcM4s3bmONd8xWVNszYpAy/IfY7RJ+7cw4jf+ijLs/aRJQdi6nKknvZTt55h6ct6UFf3SPNhfdM2/Y4bjCc35NZ71A4sxEBeK3afO6y5x5rj94xVrF1LbB23kM31lDl45JnVYYKf5JBW/pFnnvPs3eEEHJWHtHJWu4zhq8PxnjUDZ3LLGMC9Wk+cgcSSsbnmMz5sZ209S1Im+ylr/pLj4FSeef3ru9tv1EeXPnU1Rtc8NokVGX7Y0U+2NVfmJ3HL3533BOyJhdaYjYsxMIMB3MSZ8vTByz6YOGs/c2UOrnAOe9jIOFe1zLUEPnTIRcW0+3z5crUq3q7D95Yj0RRVMojHcQnh+LT/uplcmTvImhtCzr1ln8MGLLX+YpAHdd7xr4EfvEi40ZqXbMlBN884ub1nQ0o/r9Bnv2O/eAUsHxHD18SVj1ifI8y7tXuVvf0olpl7zDn+Snnc5ecrYf4asXAZ4tKVl37y4CXJi95ny81Xd7nipXD1FYobbffS+NmK/tbx8DWXF9S6uN4aB/74UrKqP/NfOz/8OsYltKsPl0xeprp56nx0ce3svfoYe8JH/6D0Xjn+2rjyXnl+ht/d2r3S3v6MPIzN17yU7fJz6vf+9ePdrztDfdd4hY/uz+DJ9uXKF6ezP+M9A+QjbVJkv7T5sk/rePfS+Ej/X6MtLixshu8dO3XmYmXdOzzygAWv3NfED+I/+pJELtgsuXRkTVk3jB1dXLt8v/IYMfF19JUxPhMb++Q99fyauPLMOryH7d3avcre/h45Gp/v9+K+y8+p0fvVyNxzhvDOwB3CMf51C3vHq3x0F9cj263LFS9RJIHDlt/Ry9cjwT3LFi+QvAgaDy2FnovV+y/EZ9X8it3hxzEP2A/cGF1D/NmfvHHoXcn1yB7n+j3zQ23vuVyBfbjyuvU949bU7uPW7qy2n2F++Pkx+Mk7AR8p87/H4j7B2Gf6Twjqmtq6XFWlef4YpJ46TZ2GA8OB4cBwYDgwHBgODAeGA2/Hgblc/evtkj3EnlwPB4YDw4HhwHBgODAcGA4MBz4vB+ZyNZer+Wdcw4HhwHBgODAcGA4MB4YDw4HhwAM4MJerByRxvj583q8PU9up7XBgODAcGA4MB4YDw4HhwC4H5nI1l6v5SjEcGA4MB4YDw4HhwHBgODAcGA48gANzuXpAEndvsiM3Xz2GA8OB4cBwYDgwHBgODAeGA5+XA3O5msvVfKUYDgwHhgPDgeHAcGA4MBwYDgwHHsCBuVw9IInz9eHzfn2Y2k5thwPDgeHAcGA4MBwYDgwHdjkwl6u5XM1XiuHAcGA4MBwYDgwHhgPDgeHAcOABHJjL1QOSuHuTHbn56jEcGA4MB4YDw4HhwHBgODAc+LwcmMvVXK7mK8VwYDgwHBgODAeGA8OB4cBwYDjwAA7M5eoBSZyvD5/368PUdmo7HBgODAeGA8OB4cBwYDiwy4G5XM3lar5SDAeGA8OB4cBwYDgwHBgODAeGAw/gwFyuHpDE3ZvsyM1Xj+HAcGA4MBwYDgwHhgPDgeHA5+XAXK7mcjVfKYYDlznw7bfffvn+++8v681h8nkPk6nt1HY4MBwYDnx9HPjuu+++8Jva/6f2c7maF+tZEMOByxz4/fffv/z222+X9Wbz/c/mO7mYXHxWDvzwww9f/v777y98hPmsMU5cs36HA//68s0333z566+/vvz000+z1uNdci5XkYxZKP/eLPkC8ccff/xzOP7888+zYIYj/4cD/MUKfrCpzpqZF4zhwHCg48Cvv/76hV83N2PDmeHA5+AA74izzv+7lnddrnwB5yv2qyyUFaYff/zxC7/EeSvuX3755Z+LB1/mdv5pFDLIfpQv/SwWckV7a44yz/Sxx9cN8nB0YduVq/Z5ZoGf2a96XCT//PPPf/QeEau2wEFff8TFmD+er8YKPvS1+ZYtX6XwTe34Kn3LF+lbco1P8viqF7mrNbylZrt525XrMMjPq2vA/fYqL2/BKv/R7WJ45TH4S67YAz8i/ltzS82InTVM7I9cx2+x9o7ivte/fD7ysTt3C5ZX4ORRDjxz3vvF/S3PoKzjzrvlLj8eLce7LHkB461/scpYj94Jxf7R3qPvulwRNJsmC8QEvELbYeJlkM3dl0IIcQ9uL1g7C4BNTPkdEr1CDsHApvbIFwH/qchZDnblMk8sVBY7eb56gCOP7j18SCzwj1+O0cd+fbm6Eiv64Kx2n/0MB8DtZrjD+RWmq7lmneL7UbVZ4bpn/EoNb/Wzm7dducRhfcmx+2POn/W9YJ3J1fmrWOEd6wo+oFvtvfIzuWU/ZX8iho+G/57c8iJG7PwevY7fYu0dxX6Pf3LxyP38KpZX4OQqB5412R7V4Zlzb30G+S5Tz1nHyRl7Nj/W1DNj72yTD/Z883LPXnaFs/j5SO/RN12u2BC6X1eItxrr8NSNy4XKOATtSMFcJXUXAxeEXVn1sQspO7/KvEpLrvg9Eg/xk7Ozy9WuXGIjrzt1S53sy4kcu7UPt/ilvi+wtDl+S6yp/xZ9Xo7EvdrQqWmNeYXtaq554cf2PfVdYXnE+FvVcDdvu3LGzgHNQenz1Zba4POqHvJXsXrAnu0ht2B5lg4vEPkSxL76Hvjl6bPi7OziM2On717SyV8dM6b3yCdY39t/5usKllfhZOLPPue5PKHdPVvSxiP7zz6D4C97Yf3Ja/z7L5+81PCRxhw9MtYjW+y/1MJ3WPay7uwgDvh4ZIu5K5zVFjof4T36psuVQdKS6PcmfuK5B5O36B1SuBh2ZCu+r/V5dyHtyj0yj1df8o581zXBRsRG2F1W3yPWI+y3zrHZ7e4Dj8z1rXgfqfdWNdzN267co3JA3fF5i723xnoLxs+i41ffzxIPcbzV2lvl7L39J65XwpK4pv/f/z3OUU6sI+2R3KvOXXmPNlYvka8a0y24Ll2uuCX7by05FOmvXqpIFi+UyPHPOPhi5W3Xl0/sMYcM8hRFnd1b+S4mfHPDBi/++HHYmDT6YnGedkXwvFzRVzdtapuvDowbG7L5ok1fn/hLe+TKvGmvxqwu7dELLnaog1hTntxoJ/0oCybHacGZtnbqVRdS1h/f+ki55ESXi7Pcihk7WXvwZg3MBZjww/NOTNrPFv2sA36NLeXo78ZKrmt9qi2wK0PdeEYmeceYazgxVg6mbebUMU9yEnuZV/2n7bRFXxvoIsdzl+uzNZuxYSft1TWGbMd/8dJWnPl8xJ/dGmoPLmRNcm9UpmvNm3PaqOM+Zz5uzS++sJP1J7e5z1lD84v/Lv/iznYXKzpHPGTefOxwAfmsAzjyR00T51H/iBvo1fyxXtBJm1ewm2dynJjtp1371kgZ29z3sQdWdHK/ofbaqW2HBV/Kne3P+DMO6kFezEXHWe3a5tpzzNhyz6XvOHI+49/xrLkYMhbtZ9v5Z57xo/Mx85v2aj9xgNU6dusrsWQe0aFOafusLvU8IF/WqbOXtsVMXt0nwO64PDvKQa4p5LWDn3s4c1WXvB29Nxo3dnOP7Na4srUlt+aG1rwkH9E541S1m2sbu8xn/I5ZV3BoQwzU0DHas3xQJ+25rmhrLNp8T87WmiXes3Uv/qN2+3LFYiRpubAsXgVCYZA1obTqAgZ5dbBLUJARe8yb8KNNHbkrmPAPLsjBT/LkIadfcR8lzs0ZgioPsYiFjUldCsiYsYHZl1FwKOdmRl60pw91kUWHWMhNjUU9bdYWv/zAwJz2lRO/z7TYBH8uPPB09cV26tZ+Zwu72CJPyivHuLFTJ3BQN+V2c6uutoifumVM2MafHJFbbkD63Gnltzw74vFurPiVs0cYjDXzxBhxWHf0qZVrUHvyAUyOgT05Qw7JVR52yBqzekftbq6zHuYSXeJJ+8TGD0zIWV/0Uw6MmQdjSR6kvH1zuuLP1RqCyxzT8ny2dsBC7Fkz/eZ+o1zmbsXllFnlV13XBXJwInHQFxvyyDjGs3ns2l0u7PJwlwuV69Yh4+rw1rEzbrBH7eQZu7vYwXgLj425xuC+Iied1w/1dKy28Db3h/Sxuz/DEXiAHdeY3D7aO8GiXK5h/eZYchK9xGkNa/xyusacz51/YqDm2qPlua5x8572uv4uL8SCL/NobHkemB9lyD/YiDdrvftOUjFjAwx1LYnPvKDX5UDM4lMv63kPZ67oEgcYiYmfeMFo3FfWuDq2vnNpL2uRedrllHZttZ9nBGOsK2tNS+0zv+hTP8a1RbuTD+uV+NNG9pV9a84SMz7NQ9Z2B3fGsOpvX64klQXRIAs/F5HEpYDK0EIOCkWRLZDzjGPfZ1psIpdjtb+LqerxbFGTUI7tJNfN2UWBTTettNn5Vjf96DsXAbrkJg8Y5VJ3tTjStxslGHM8++LKMf2dxdQtxLRDv9qCK/CnYlKucgg+JNeqfZ6NIfODj8xhp0ee6+GHDuOd/NGYuUC3s5u6V2I1ttTv+q41uAk3iKvmGIw1l9rP3HX2ianqdvY6Xca6nOzk2lxVLuKbGqc/Y8m48Vt1yU2NJe3QP+OPuM74urM3Vt/5XPMO9rpfIP/I/LLHnu3D5A+feTbIwR0u3bruaj6IfZcLyNW6Uz9sZs7P+mfcWJ1R5LRydhc7GG/hsWuixsQawSY1yznwdfxSZudMUdZWDJUX+L/lHcC1V/PR5Ujf8JTY5J02OkyVI8Zhq27177wtdsDkM614cqzr7/JCLGf7UOdDLJkD7VUOEMfZedrxHn7VfOo3MXVrCr26D93KGXzdqmtOst5drPjo1njGuToPXFdZi9Sz33HKuWypFVjwx1qH97lXI0s+MibGdux3+XDsDD8+lH1rzuo3MZKTLg+Zyyv97csVxXEzSgcUgJ9jHqp56WDOYACPfBa3C2insLuYxJateJJQjmXCUyf7bgpVtosl9eh3uivf5ksbndwOKXZeXsWlL1r9ZZ5y3v5OvdIWfTbRfPnVVso5RosPfjlW+8aADeZ8cTjDX/OMrraqj7PnxOkL28r/lViv4HFDZc2ai8SdGB3XfievDG2Xq85e6mS/09d3ytX+LbnKWPBb60B+jji1w59dXGd7Y8VW4zdvHJLgri89yivnM+2t+WWPPcoPtpnHZ/ozJ5n/nLd/K1b0O92Oh8aeWDo516rYztodbhydUTVnHaYOO3qVK2c8JhZtdXGhz885csX+7HPX7pwpVU8MWQtkupg6XlV72Ol0uzF9M0esnj3a6DCBofrMZ3VrPVKGfheLeKpsfd7lxQpLp199iCVzoL0cQ4/8neWF9z/kco+CT9WWfsWzWlPKWTNxMK4ubZfnnLff8WNH15yk3ytrXP+0Z+dBzVXq0t/Bixzvh+QeztPmu7c2H5kPc3SGH9/KZj6N7YxjciL9aC/HsFc528ntvEebr512+3JVwWmcBGQSuoCRNZiaROZuLewuJnyQOL+cQDB0q18x1sIYa7arOKtNdHgZ4uAmTyxEfaeflW9kM7/E4WJ2kfjlBD+JMfu1Tjln35h8phVXrRvj+MWu8dCmbu1rK+Vzs1Reueqzi+Est9qi1X7X1jwj0+Wj061jFSebGvY7DOLbifUKHnkC1ys+nitGxrRfcXJA8iJlHF2uOnudX8Y6fX2nzs6aRb7zrb2MBTnWjpzzC2G+AKR/+tYn7axk8JlzFVeHKX1U/bRFn7zlj/2syiiH75zTd47t5Bd/Z7jwhVza3snbFazI3spDY88aOmbt4QTcYE/LOI76OzGSl1oLbHY5Y6zKijOxI3OVx/jUVheTL3quDdb7il/qd3idsz3bn5XreIb9yivlba0BsTlG29lbxa+NzLE2aj3SB311q3/Gz87HFZ7qo8uzuol5haXT36mL9tLHbl6Q4+yBR+apO4uMw5j1Sf26X2LparzDGWOoNet0d/dIdI3BtrPnHK2xZ0yMm4Nu/IxTaT/72lztb7u53MmHvir+xGNf2a4WNaeP5Cxx3PIeLe6d9mmXq9VfrmoSAblb2BoQerUAyDCW4ySShQ2x6CPTFdWxHVKsFkaNBVsUMQ+qTnflu4uR3GKTOX689NZ811yRD3TqeD6LK8fElXUjFmxlnrAPltSt/bTFQgE3dqyJ8innGG2tK3LoH+VWWymTNu13ee7yofxRW3HywoJ9OHhrrPi7ggeuc6EnP92GWjGmfXJmfF6qqJdjXa46e8rXttOvse2uWWx3vrWXsRADNcC/9UCu4svnHf4oU21VXGKqa3WlnzjomzdyQ015zviUV85nWn07tptfbPmCpG5tiRO5HDemDl/K7WBF/h4eGnvF4v4DBtdJXZ+JtfaN8WhvwTZ+qm6Xs8oXdDrst/A4bVUsPBM3WNkzsN/ty1UPvMjVcZ/JD/OZny4e5PHNnLq0XY5ynr41qLqdPX2vbFR+YAMMVT6fO//ES9xpr4tlhSft00e34lA3fXRYOn3kduqivfSBvZ28IOdfguEW69cPGcz5Mw6f9dnJKmPb1bjLs/LZ7uhe2SN313hiMPaaX3OQ47ucSvv2iQN8+uty+8h8dPjFUltlwZZzlfPIPZqzt7xHJ8az/vblStJSqDRKwLnwfZGsL3QUlALeWtj0aX8Xk6RK7F1RHcvDQF+11SY6OVdJCsa68DpdfXf2Mr/EQM7zZTf9r/r6PNJTJjFAwBoTz2yc6cta5FjtGyN+mPNrcc1PldMOPjIX9KtuFwN4Kx+1aYtM2mZcW8rsthVn2qp52401bZzhgL/Gu1p3YCTmtOVhaP3FVi8DXa6wBy/T3qrfylBpKQAAIABJREFU6ddc+3y2ZvFxlG9jUa7bf1Y4HQev+XQsW/ME5hyvuM72xprntEU/80Ze4H63F6ScNsxnfT7LLzF0X5y1Q4sMPnPMnGT+c97+DlZt1fx0ujXn+DH2xMLYUU3Fd9aC4cgOL5XI1H2XnNa9axc7crfw2DzAwy4u4oBPtMh2MjmmvRqbMuCsMaqTtUCeHFWf6DOuva6VG1UXPfRTh7g6e50N1kVnI+3R73TRq/t8F4u5qDbrM7o1FnUzjx0WbFV9nnfqor30gb2dvCDnfgfW1dlgHBmzHMyxrg8O9HOO2BjPsa6/oyu2sz3yyhpPLOa3coXzG3yZd56r3G6sebF1jdc9APvYS3xwhHHHdvNhXDvv0cp2dUw89B/JWWranZ3G+oh2+3LlSxrFwTHgKPbqkKAoHoYkkEBIThIVO2zMyGrXoCxslXeedheTZLXY+HSjTcLiS5LRx/7qEEMvY1zF4sKTzOTCRWF+Mpb0J54klWRcHWiZn+wjTw3wbU6xBT7lwJO1AHOXJ+xQd+2Q1516aT9z7ljW37GUAyM++Yl3N7e1VuBmMZvrLs/4MHZzbe5z0Ysl24rTOcbJr34Z340V2YpHu9liGx85Zm3kIHPmRCzgqLxEHltyhDyhRxzJybSHHeTUSRz0d3O9u2ax2eXb+MAjhpp7x8/aaosYkj9XalhzDKdcl0c4ury5pqkF8+h3coxX7uzmt4sNzpAT8covMTAuD+WXstnuYr3Cw10uUIfccxKX/e5lwjnbM27knkG8/KwFc9qh3cV+K49rLcHh3oZ/57GftUyM2Zd/5FJ5YnLt7+7P2MFnrUfHq/SfmJOPjKPLunLPo5baqzbAjn/m6fMDS7fPVV1zlv53z0d5kDWo9nne5UWHpdPfrUu3hjNXHdY6Zh3If53jucuBa8r3NeTAAs+0cQ9ndnV398gra1z8ttQ2eYqtekYgu8sp7dqS38yb9cMvfeWsU7delNvNhz7cF6jd6hx4L85as7O1x76Qa9t87bTblyuMsUAoMg5ZoBRCIlAsHZJciqosLc8WSTlaZbDpYnLBMZZ2U8/+LiZtJhbsp19sQgJk+K02BGTURU5C0nfcWChe5gibFhZZdPmp5xhYiN1x8DNGDj0knKPF9xkJ8JO62KzkcmPTngsFHy4Q8IsNeywQ4hKHtckW35kfbWUusbmS80DAB31s7+RWDMSlf/zon3ljwbZ5diPJmKxbblbat01b9B2vceGnjompi7XDo23blJF/mV9iwSfy1DV5ibzxkSflGDdvdc1bh2oPu+qLzTbzc5Rr5Jk3//STi8bX5Spjzli0h838YQPbYuzaFX+u1BC7+AGHOaXF9pn/Lm/p2zg7OXJlvMgZn/lgbJVfZMmndpFlrYtXG9hHBnlw6Y/2EVzY4eEVLiRHEiv7mXjd03w2b7VdcUM59sfcd+mz1pynvYI9c57Yd3mMDrUCV2Kgzzj26/jqmdxkbOh6puzuz3DKOFzXGaO8qhjwnbrUVBnm0MOuNbWe5EmMyqOrLefdH1f5WPmntum7Ox9Xa1I8tru8WGHp9Hfqgj1rQsszmIyLsVVexE7runW/qHP6IPc5R630xRy+0oa1Qv8KZ/BxRVceJgYx6xebO2s847NPXuUZ8RK35zB+5PQOp7Rpm7W3fsaDbWJSlnnz7f7kemFcOfXP8uF6Qg476meLT+bNp7EmbvroPJqzcCn3LTGAh/1cnIyLwbHd9tLlatfoyP3n3xQ/OhcQELLnRoMPxiGCBH2037H3vJpObp+fWzdyDxlz7jiHhmPTPr8e75ljD9Z8OQKP475M8FLAYfueWKtv+foMHhM/8daLR8Uwz597fUx9p76fnQO779G8U9dzYjc3c7mK/7hyN2nvKcfh130J4GC8hwjvGdP4ns382Rzg6xNfCDs/fMG69etUZ2/GXpvPHJbslV2d/CsUc/Ci22s7vbcaezSPic8Yaecjw2tz9614Nn6GB5+ZAzvv0fw1EjnerW/JxVd3ueIA4WDlz6y3JOy9dXhBpOD5Tzr40sihew8R3juu8T+b+TM54LrnxdrNktbxj7ofPDNnn9W2/+yGi0T+lYavmR66yLziRUO+PorH2OMS6aUy8/FZ6/+WcfGusfqo85Y4xtecr8OB/3Bg5z2ad+r6LwSu5HAuVx/sL1e8EHLo++9j2bx5IagvCldIMLL/WXSTi8+bC18kWTP+2EDnYvV5a75az3yc4oCVB7RcMj7CP6t+JI/9Kx7nyayDx68DeDWXq8fndbWuZ3xyvcOBt3iP/uouVzuJH5lZoMOB4cBwYDgwHBgODAeGA8OB4cBVDszl6oP95epqgUd+NoXhwHBgODAcGA4MB4YDw4HhwNtwYC5Xc7n6kP/t2WwQb7NBTJ4nz8OB4cBwYDgwHBgODAf2OTCXq7lczeVqODAcGA4MB4YDw4HhwHBgODAceAAH5nL1gCTObX7/Nj+5mlwNB4YDw4HhwHBgODAcGA58Vg7M5WouV/OVYjgwHBgODAeGA8OB4cBwYDgwHHgAB+Zy9YAkftab98Q1X5WGA8OB4cBwYDgwHBgODAeGA/scmMvVXK7mK8VwYDgwHBgODAeGA8OB4cBwYDjwAA7M5eoBSZzb/P5tfnI1uRoODAeGA8OB4cBwYDgwHPisHJjL1Vyu5ivFcGA4MBwYDgwHhgPDgeHAcGA48AAOzOXqAUn8rDfviWu+Kg0HhgPDgeHAcGA4MBwYDgwH9jkwl6u5XM1XiuHAcGA4MBwYDgwHhgPDgeHAcOABHJjL1QOSOLf5/dv85GpyNRwYDgwHhgPDgeHAcGA48Fk5MJeruVz9/68U33333Rd+n5XsE9ds5MOB4cB7cuCbb7758v3333+hfU8c43vWwXBgODAceB4H5nI1l6t/DnkO+7/++uvLTz/9NIf+cGI48IE48Msvv3z5888/p2YfoGY///zzP7Way9XzXmrmhXFyOxwYDrz3uTiXqw9wIL/FRsGh/+uvv84L2vBhOPDBOMCL+h9//PHlxx9/nNq9cO2oE5fg+dcB8+L3Fmf6+BiePZsDXGD+/vvvl/xg9N7n4sMvV/yTB5L922+/bR/0vBigw+8qGbgQoMfl4KrujjwHIQfiM33s4HiGDDUiLmp261+seKHjL167+bmFH8+IPW2CfeeHjpuJeUs7R315+oovwL///vs/8R/hf8bcLeue/JH79/oQIH9X+41r6q3r/O233/6TE/Yr8kNNH1mzW3n/SAwf0VbWgxr98MMP23XJs+fR9byaS86H91x34r1lz1A3a+HYR2vv2avvyd1unm7l7Fuej77PrdbUW2KpebVGFRvnzdV3jmp75/lq/cDLJQZs6O742JW5+m7ZrY1nn4tHsTz8ckWiPYhXLyAdIEnVza3GfNHCH35XcveOUyDIcyWee30+W5/DkpzTcjm6J3+8MOzm51Z+PDMfYOel2BywSN3cGPOFWQzymxdtx45aeJO5fvQmdOR7Z67blHb0HiFzZd2Tb7jKuueAvPWDwD24jy5XHMrvWWe4al7A8ej96irv78nzW+mSM3IFr8wX6509/14Mj6gHNtif3I/uxXSLvi852d5i51E6V/YMfZJHasz62N231X2l9t69+pbcXY3/Kmff43yEB92aeg8sNb8dNnCxD7wFd6/Wj/eZZ33svPJuuVobxPPMc7HWz+eHX640DAlYyATm2FG7SsyRDvafRTbsQub66xbkEcZXnKMmxGFtODS7F1VkfOE4isNc7chq5yo/1HtGS43zwkPcWWcv1/q+stGhm7nGDy9v2nrL9q025ysxkRtw7egga50qh3f0nylDnXO/41B41oGzigNespaZNz8r2VvGr/D+FvvvocOFkb3IdQoXGXsElkfVA0y5Hz0CW7UB1pUPeO26o13JVZvPesb/7p4hBuKjrp55jn9t7S25uyVHu5x13VmXtzofyUPl8XthIb/kq/vdkvtH6OzWD1/sD4/w2dm45d2y2nnUPlztnj0/7XJ15rjOv9Wir353nyEbRdqV/+hybHa7MT9iAbxSvrqNN/HBA3JD3Dn+yn2/AL0a5ldf969c07fG9hF5/9Y5eoa/Ky86t/rnBam+bN5q69l6s2fc/t8SvVXu3oKz9/CMPLwq318B26vU7yO/W25drvw3qCQ8b6n0GePnF1Nu/3wh4s9wjPvPeM4Wgouel3r9rXT9uqFvcPDyWH2AyX/ShSw+/EJSZfMZW8YGBuJBv7tcMZaxgl0fLhLwYkcb2FeHlvn0n33+omScyDKX9hxL++qbR/QdowUfdo2R+fxaS97Ep2/aLn7s5QLI2Lp8n/EjY8Nf2utyhXzWOPHiP+Pe7Vu3lTy48EPc9M195lBd+awMMdQ8Zp2UN47OJvpdfcSkb1ts6F+7yqZv5am/cjXGrqbq0V7VxR6+Mm6wYiftajtrXbGYE8bhhbZX9rSfnEtZMJg3uedzrSG2si7IZwxX8yK2bHNfImfVB7WinmIUszay1plvbHU8U8+W+JDFD2O0POcY4+ad1mf6uZdpM3Pf5VS5rj3KKbESIxjJAxjZ7/CXtpA52gtTNvtdLSr+KgN3q/+0ueqDnfyha25rbdW96hObeQ5YT2uH3bQJtypXzG/FiGyuATGetXJTHhu/euZAOeY7X8aSdZHDzGHPZ/KgP8aI2bi6XOtbHX3ZijXb1frDhhjhojbhC360kfqOHa0B8pT66OzmTvu26dvYjbXyAR3mKh9WeTxaf1frIt5ssVHPDbCAL+WI69lY0h/9ig2crMfEVmucNpirsdWap7z9XNPUinzkWt2p3xEu/XTtFS55xtQ1SX4yzrRZfXY5Tl3Xm2sQ/SN71f7qeetyhTLBkPBqiDFBEQTPEBQ5XqTduDOYaiPt4wc95PXJszr4IBkEjww/EwFhlJOk6oIJbN1GoA4tNlIu7Run8vgFCwRgjJZncPNMax8c2CUf5kfigFWbXQtmdJP8jKEHPnRokakYzWHa3ckf8p29tGPfOLBrbOaRHCm3y4/dXBEzPs1D1sqa6PtKm3Xr9MgxuWFD0k9XI/BQb35nPJTDtMiiS1z4IW/i0Ld+aZNzytUWOWypl/P6zjE3TnKhjr6tccpn/4qu/KQ1bsfMGbbJxU4eqQk/6kEOscEzOUqMtW9+6vrhGV1soYO9bl3gD7maK5/RvZKXis/1ZO6NS7yMp3/88kzO0pa1PuNZ6ti3/hkTfiuvwIZv6ogurX3XiTZpsdfllDH1Uj77RzlF13zpAx6lPjjJBfXlZ37yLEl5+toy99YisYpL/8hQC/zRrzaPnslD4jS/8Dr17vEJ9sSv3cq7Grtyt6479bMlT7nW5Z0y4JQb5IK6OZa59byxTuinLM9pG13s4tu6GW/lDf6IWX+ug/Ql3mzlV7f+8IG/xCUObajvM611B9OZvnmiPcpd2rev7w57nlHI73I2eb1af1fqIlZbdPFBvNhn3Foxphzts7GkL/pXsFlj64v+7plY/dY1DQ64nNzdrV+Hq/rrnne55PqjNq4F8WMjbWszx8wxc9TfWLP2jBNvxo8NZBhPe1f625crk5iHDguKoCVt59jNK0nRyRlI2nIRpK4JTDnsgaMeNtUPicqk1nmescHmmnMUpCbfMV4WUlbM5MvF6jw2KiHAg5wyq5aFhBx+yTsYaw4qRmyZ15VdxiVwJVdnr7Ojfs0FeM/yveLHTq70SysucrKLW53agvkIt5jrWqh+uzWDL2qJLLXUtzZzzPjcVJDtsHUvrNq11Vbmyjl9+0yrPDHkOLjBn2O1f0WXeLCZXHYNdVjTF3q1TjzXfcD46gtA2qLfrX1iRT9l8Ztj7gVZJ+Rrrq7kJf2J7SzvVcfc5ri5OONZ6thXN+tiTDmGPL75kXPy4N6gDW3SaiNzynhX39RL3eSpewD+U549s47lfNqrWFLOGHL94z9td1wyF/UMSNtdnzzUM8k9JOXv8Qn2xK9dbFbeIVfPLMaQVY/WPJ2tu9RxzzzSwRc52dkzkKu1FBf6NWfI1/p08XZ2d/il71x/viwmTjmcY5nTzJnrJ9cA82Dsasf4Tu7SR/pO7Pru9r4dzlYf2qtx79al2lu9L1J36lrl8/nRWNI2/SvYxEJb7eQzeTqLq1vTaYM+dnbqt4ur2u/WgbaSS455fmine7fUpjK05LjuVcrlHkO8lXPuM2nvSn/7cuViz42HfgVUnRvIGSm6QExs6pKoWnR8dvoVyxnxPPxqIbFTk+8LYB6wyIlZX7mJVRu7uJHDjgcBbdplnt+t9sVca9nZ01e2K31qwi9la3/Fj853rbF+abUrT2sszu+0Z7h3MfsCVGvV6TuW+IwvY+mwPfNylbkFG3U5q6m4d3RrTfGx0s/crLB0+TG3FU+1Zx59eaBlv6n1q9x0L6j2wZIb+yqus5y6LyUPKvbuucutuUh5cZ3ZVzfjVDfHsK1vYmMdmENt3OI/deyv/NcaiQlc6nat9o5yIS+oLWdgHtLYtF6rc+QMQ8XV8aPm8V6fYKq4tFlzoe+Mu9NXrnKjxpfP7pk5Vvv4Iic5bt2qr44H4mKOd4mMo5Pv/HVy2Ko5TIz09Z3jt2Df1a94ulhW/tPHGXbiSnnyU313sacOfbF09upYF0u1d/S+WPFV3UdjqfavYBMLbbWTz13ec361plOGfmenq98urmr/yFbWWfs5hi1qV+vX2STHVU6beYnr1jN6jFfsu8/blysM5i2QwxLgvojokGcOFYAxDzh+Z6ToAjEJqYutmix8d/p8yWGzZtMTR6crdv3VQjKPfo5byMSG3BUbK9ziqa2284KbMhXjyj61g1jkgouaucn40O3spT/74qr62K/53uVH5xtbjOtXDlJfX97IDTKVl+rstB3u1FvVvmKueLXR6TumDG2XV+X8SslmyTpbcUJ72qJ1zFabPtOu5Imx1jT1rup2OVr53lnPXe2Mr4s9scMZ4nPTRa/La62z9hnvfvpYxYXOUU5Xetq1RQ685lQsztOKNce0z1yO1766yDunbo4x19WBcW2oT6uNM/+pY1/d6p/Yq70O0+5eqD9b9Mi1Z1xeIMVU/aN7VmvtZ9vp1Dze67PLjTblUW0z552+GFMu4+r6nZ0qhwxYclys1RdytQ7iSn37nXznjzFq78WMvQld92Xt1bbzfS/2I31wJoYulpV+6tE/wl5zTC6q705/d/3t1qVi7nAgA7aK79lY7sG2qtHOmZh+V3ZShn6Xt65+u/aq/SNbySXt5xi2uvp1Nolj9UubyOSzPhiv2HefL12u/PM1LS8g9cWDRLDh+HICCANm7ggUyaqBmNjURYaX6Wqr6nupypdsdOuCSjv6q0lGBt0cN67VX65SVh/VBuMVt7K1ZeETt367TXzHPna4UFE7+vhZxd3Zq7iO9Ikt842fXX50vrtckX9fcNAhR7UmHeajsYq7ylqD5CUyFbN4zbN2On3HlKFd1YUYjZk2a5n62ddWxYzMke8qT4xZ0/Rhf+Wr0zVH6tJ2+rvruaud8dVY0qd9csuPZ3Kb+4cytc7a72TVoe3iYrzLS6eX+2rO02cOvBljl1uxpr64mMvx2lc3faibY+h1dWBcG2lbG2f+U8e+utV/rRHyFdOVvVB/tcWGMXkeiukt/3J1r8+aG+LUZnfW1Dx0+ual1qbq5jN24HGO1T4y1DfHxVp9dTwQV+rb7+Q7f6z1/DBJf4e/ne97sR/pg93YaLtYVvqpR/8Ie42dPFbfVf/K+tutS8Xc4TAPie8tsNyKDb2uRrtnYvrVztFZgnyXt1q/Fa70t+of2UouiTfHsEntsn6MdTaJw315hYXxW/l1ZPPS5QpDvsyxmfjVRgcE64uJYwZMkhzrWnQJMOdMbOpCKOTqiwx49K1efclGrxYk/dFHRjvOdX9KdawWjoMIG92BxHhHEsb1tWqJW5v4pA41/9ip8RFL2rcebCb6Ml8VG3r4VW7VrvTBknjo19yKJ2uMH3xXPOhnLMRAHioXVjh3xyvuqreLmQ0MvNZNO9SP8ayBNpWh7fKKXOVc6qz62uo21SPfXV2ypp0/fe3o1ppm3Oprb2c9d7UzPu11mB2zZuisuF+56V5Q66xNW+OoOLB3llNkjurOfH2Z73JrLsREKy7mcrz21U38K1324y6mzgZ1rTmtvlfP+k9MyHb2KjfEkutQe0e5wE6tNftaxsu+RA4SN/tUV6eU6fropG1kxJ7y9/jEPvppjz5jR7xTHv0VxlobdbrWuI72dPyQk9S3btVXlzv339S3j3ytfeePscoBbRy1xpcyR9grlqv6tSZdLCv/iZH+ke+Ks8t71fd5Z/3t1qViNt70gQy8zty8BZZbsaFXa+TzzplY/ZLLszW9U78OV/W1ejbfOW9MzDnejTFH7bJ+jHU2OcPrPqztbLt467tzyu/0L1+uOMArMXVEIID0pZ/ESO5KAnVsDSQXAZsX9nITM9nYRZafmyVz2PNlx5cjZMCdFzD91lZb+mSTd2z18mJs+Cc3xJJx4MODtZK6i7vDlETCNnkhnvSDLfybf8hW7fvy6Ev2UXzaQwabNX5x+nJU58GXxN7lx26u5ALyYulacsWvm+vGwIx85jbliJN5685chxl96oE9a2L+cwNBX45lLF1e4UHlUGJb9eWM6wZ+y/HON3PEqAx2tQEvVn4Yv6Jb+dnpX1nPlXPY6+q1wm+M1M39JGW7OjPvWlEHO9Q418SVvKRP+jUG7VsfecY48vCsy21X645n1X+HgTHzhS/6/PBBHXLP0p6+5DC1FVPmCnn419nQFm2XU2vk/q88mMiTz67Fnb1QHVowYcc17T6Ua5o++I0JTHLEGmErZdKH/cyvY7TmLPeLXZ9px37yC5/mznFzhDw5r3XZXXdn8RIPucW+eSK/4sF/x+uOB8pmrciR+sZuK2/kpuPKi4dx4nDtKbfTdnUTe+ZYLBk39o/0E8+KN10s+k/9LpbOt+tZnqO38l31d9efuUA/cXWx5Dx9Y1MXbGCFr+gr/wwsZ1zfxZZxWKMrZ6Ix2rqmqR1j5IR1oe3d+nW4GGPtZm71m23lAnMdl7oxZLv95sgmc8SFLvsJGOGVmMC72ifUU3a3vXy5sqi+RKQjwAIaUhE8BfPgYczDKHXomxT1GNMPY1WXhLuwmKNf8bBYSBbzbFDYE1vdsBIPiRQP+hZFHDwrr6x+Ul4ZW2Ww4yaqH8bIl7LZglXf5i/1sKs889hB3px44KZ99ROvPsSGzbSHTkcyZDI2F2jiNt+7/Eh74hFz5go8yQNjQD83e8fN01Fr/tJPyrshMo8fa9JhNoeZC+wbk3Z5FiN21Eub5jX9q0NLHsSi3dqii01+8IL5le+0rd3MDfWo9nlGdle3q+lKH5zmg3wiV9dz5lnOZb7QN5YOu2PoYtvnbMVAjFnHuheQK3OM/iqunZzqH07rHz05wTz7n7bgAnukax8dZFa11iYxpU390h7lkTltkDtyYW1yHWrPwx0d+sjLmfTP2KoO2FrlVCzoy9PkBnkSixxEh35iyfoqTwtG48NHxpFy5N+aIAeGPNCRdTz1sp/6xtLVUZ0dn8pmmzUjtlwnaTPzpH7mlj7jK76cxYsuvnNfJ27zZr2wYx1XPNCWOXSPdF3UeiRvrH3nD7s5DhZ/2CSXyNRfV7eKXf4nFnxha0ffuhkzuNRPzDu5S/wr34lT7J3vTh/7YkpemUt0kEkfjqmHrLEk3uxTb21QH3Lk+k1dbT4KC9hcD4kn+zvYKkesMblYxXXm9+gs2a3fChe5BVfGmf2OC9gyFvIGl7ox7BCbHDHOzqY+630BHXOoDM/GzT7Beeo+kRxRfqe9fLnaMToy/72xTk4enxMWIMSvhxnjLtDPlHfiZOF7wBib47duAtqZ9vEcnZxOTo84wD5V1/OR/Eef+wzx+tLXvaD5Yv7R6zT479+3PgPXb+EBlysvPbfofxaduVw1X5g+S3E/exwcZHxdqHFy2fiMG5tfZ2q8PPslqpubsfsPysnh5PDRHOCLKntY/Tj0aD+vYu+zxMuLIy+QXV75+DUvlrNXfBaudxw/GvPdq/5LsiOdzzo3l6u5XLWHxEcgvH9+ZiMTL/98hMPtM760sGFxaeSfL/jPZIibv9StLprmZdo58IcDr8UB9qn6149H1Yh9YnUBeJSPq3aeGe9VLPfI+8+F+NjlxZjW8XmxfK11dk+tb9V9NNc/CrfAyfvIrXn7THpzuZrL1YddCBxoXDT8t7K8UHDJqJePz7RguUjy0kSs/vhaOhvaHOifiecTy318fsXL1WeqKS+R7LvuwbS8UM/F6j7efiaOPDKWj3K5emTMH93WXK7mcvVhL1cfffEN/jmIhwPDgeHAcGA4MBwYDnwuDszlai5Xc7kaDgwHhgPDgeHAcGA4MBwYDgwHHsCBuVw9IInzxeFzfXGYek49hwPDgeHAcGA4MBwYDgwHbuHAXK7mcjVfKYYDw4HhwHBgODAcGA4MB4YDw4EHcGAuVw9I4i232tGZryHDgeHAcGA4MBwYDgwHhgPDgc/FgblczeVqvlIMB4YDw4HhwHBgODAcGA4MB4YDD+DAXK4ekMT54vC5vjhMPaeew4HhwHBgODAcGA4MB4YDt3BgLldzuZqvFMOB4cBwYDgwHBgODAeGA8OB4cADODCXqwck8ZZb7ejM15DhwHBgODAcGA4MB4YDw4HhwOfiwFyu5nI1XymGA8OB4cBwYDgwHBgODAeGA8OBB3BgLlcPSOJ8cfhcXxymnlPP4cBwYDgwHBgODAeGA8OBWzgwl6u5XM1XiuHAcGA4MBwYDgwHhgPDgeHAcOABHJjL1QOSeMutdnTma8hwYDgwHBgODAeGA8OB4cBw4HNxYC5Xc7marxTDgeHAcGA4MBwYDgwHhgPDgeHAAzjwJper77777gu/uZl/rpv51HPqORwYDgwHhgPDgedx4Pvvv//y7bffzvvTA15Szh2PAAAgAElEQVR4h6fP4+nk9v/m9umXq2+++ebLX3/99eWnn36azeEr2Rw4CKj5jz/+ODX/Smo+G+v/3VgnH5OPV+YAe/Tff//95Zdffnn6Ho2PP//88+l+Xjnft2LjYkWd5uP07Ce3cmj03oc7T79c/fzzz19+/fXX2Vi/spdsLlZzoJ4vag5N8sQBOh8gzvM1B8XkaDhwPwd+//33NzuX+cD6xx9/zMe2G94BqNN8pPw33+URZyXvlbMP3L8PTA6fl8OnXK5+++23f14W+epy6wsjmzGLiM0lCcCiYhzbOU6fF1Xm0GUh1vlHP+eLccX5aF+dvS4/ndwtY3xtxP4q19VmhwUb5Cj5UPUe/Zy40/YRb1LuEX25S07O7IHrhx9++OcLMnk6k3+F+ZpLDn/+Ukm8zD0DY8ev9APPxJDj9v0CfC8+9rNb4rzCCTG/dUtcXPTfYu+ssVVO1fmj51zz3blwpPtWc5wP5BeePtInHy6xy+/MLn+tYq+h9YMn+XokJmz5sSjXmj6ZB+ujz8sjDjwr92f5vmWetUf+2Mvo3/r+pG/3vaOzZWftHeVXX7S7cqmz2wcnPzj8aP4kBnPmulq1VzFkbR+55u45f8FxdG5mXm7tr/aEW+19FL2HX67YDHiRoHWDuDUZbDKVwKuNQJLo38PjVt+7eiyYZxwWO/6f7deNcueFZYXFejyCDzs5QcYXjpRf8SZlHtn3ZXrXJpgfueHu+r1FrsslBx4cYO4Wm2c6K36hxxok3+wXK656YN6DTxvsSbwsnmGu81c5UfWf/ewarXvus/1iv+PUFb9X9qordh8lC3fypflRdrFzhVe5RuAwz7dw+Qg/9rq9wJdLz4R71mLnf8WBZ+a+w3HPGJcgzgJ+j1iH5Ny8rPK9u/a0Qz6PYtyVO7JxNIf9Z56V7vOZr+Sz6+ZKfTyjrC1rlrGjOK/M3XL+iin3hCs+r8iu9oQrNp4taz64t1h71uOt++NDL1eAg3CShhs1G+mVpEDi7ndmA9L653P8k5RHLkAXXIcDvFcWWmfjFcd2N90V9kfwYWW7jpP/jjdnB0G186hn8ezYY43I3R35V5RxfbgpvSVG8seB675zr2941PGGPeXqfpZYrnAi9d6yz0ECzi7+t8Rx1de9e9VVf7fIw094+ug1coVXnIm8TMFx2m7fAR82r8To+q97cNrBrv48G674OJM94sCzcn+G6co8OeQ9Rh36u+8wqz1LW9i+94X+KL/6od2VS53dPpcI1tCu/C1y5IoX7NQlv8TlGDxObju+apHP2mLrnrOk+nH9JcYqU58ffW5W+2I62hOqzns+wyswewaC+x6uPfRy9ejEQN4rBH60/7RHkkl2jtln/FVwiukR7TM3yUfgW9kQ92r+Lcbhw4ovb+H/rX24kV7Z3N8a444/vwASz478FZmvjRNXcnOvrGv+GXW7F9uz9R/NK17C7z3P2Pveei/4WjnwzD0rubub3125tP3q/ffg85WcfITz99VzeCXfO7Lblyu+/HDz9t9nkig24PyTWZXhy9juBssXGr4MY5cf/brJc/t3vh6inT54TIJf68CMrAcS8fg1TdnaKqtvW+V4rnbx1311YiMkLm10f2EDN18VUq7eoDMecZy14LF+1AUs2unw5iZJX90rWNBLH5lr8JiHrKfy5PQspso5ciaP1D3iDXPKW8fkjTZqW/2qq5ycUY75jmv3xpocY32az+qXOoANXllH4q6xsp6pr7gq5lUub93cxSkm8duCWSwdH5Jf2CAHxoQ8v8p7a1Rb4u5wEFvmVr2ai1wj+BWH8owRlzHTr/lV9qi96pf4k+PmlhZM+ALT0Z7DnHpglneZF3yscNd9j5rKyRoPNmrNHrVXrfA5XrGc1XQnt9jGbtYg+XFvbjteUatcCxnfCgex5JljveWINmqbtYUbrCN0ra/yriPXGByQR8iIK/3Vemira/GHX/zk/FHukcv9BTzmk3FiY20Yk/Gl/Z2+a97YwYmffH+qXKIW+D+yf7RnoXfrft75rPnN2hCXWFOOvjGDtdqtecl9IWWvxpF+yTN+0t7VfsdnbeQeyFjWRJkaJ7VN7mcu4e9V/OiIkTokp7vYsa8M9en2CvSOzgRj61owuJdg3/WD3yp/hIXa8bs3P/hMP+SqW18pQ37wW/HuPm9frggQZ24GgACgGxmFACw/ZTw0ukWVAJGnALkI1GUsZU2yfplTX4LwDNaqyxg/8IBXOXynj65vvN0ceUiCigdfKS92YmMcOfKFLn1l0xY4XbxuXsp1MTq3avEjscThwqwvR8aMH/PtIqmk67AgSyzqas9nMBJT8kjcjNX6OZct+cO3GxW28Yl+ypn79E28t/AVu+ilrrHpE+zGQM6po2NZa+S73Gkn2/SJPfATK33l5Aqtfn1poTV+8coB9MkhmB1DH5+MpY8ul9hFDrti2WnJCfGbE3x3drocEWPyy9rLG1r72O/sVozGYZ5y3tzmmLnAjzpdbtFBBgy01sYx40/bR/1dv9SNHFF7+vyMQ7z4QYbxKpN7TqdnXNQH3Q6zOZUbxFrraTyJyZrBQTmpLeJJX+Ycu9pY7VWp1/XFclZT4t3JLVhzr5Dj4NP/rblFXw5hQx7pgzF97ODQHjbVO2rdv40l+WW90QdPt1bJS9rnufq2ttY15bPfye3GDG/4EQcxyFHXBc+MY4817HmT/o/6xIR961OxYk9f+Mk85hrsfLgman7u2c87PxUzMsRFzcCrjnJnaxEddPmZF3krn7B5NQ4wmQuxYFd8t7RnZ4frl5Z6GYe+Mk7ihkfUO/O2u+9oM1s5gE1jdW3mHoAOz8iZI1qewZg2GUMWjPzok4czPurXGqYu9UgfKyzuAbT278mPPMiYa03Bm3mpOol7p799uQJITX4uHgOviXczcvF0oCxaEg057JtY9SSRSWLcAilDa2JyE8QWNs/kct6+9nzOtsuNcaccvmsO3TiIIWWzb8xgyPEkXo6f9cFb/WELYqWuMWdNxXuGhXrjx4WuXcbIjc/GlvVkDrlae3VsV5yTT8rRrvykDP0rfpNb1Q7YsZWcdsOtse7U0VjTpzFljq1Zrjc3u6wZuMCXYzUGnrWXmPXbjZ3Zqz46DKyRWvuaI/nlBq5dc0y+PByc63w5Z9vF5py58JlWefzlOL6S58xd4UTa6vq7fpWj1c5O7dXLerr2k2/YZF+r8euL1rzlPoJ81lh/iRNd8vjovSqxdX2x1JhqTZVLzDu5Na6M/9bcYqvjFeOsIzB3MTrGfOLQXh1TvrbdmebaTO5UPf1UfPitvuVP5rmztyu3irm+G7C3IJt+3UtzrMNSx7BTz378acczK88LbLCHVVzVNjYqzirjc5ejXf2qSy6IqWJWLte7/GZOLKwvcKccc7475Rmmjq0+zB/jxnG2brVxpQVnYq+6HR5ljPPs7L4Hv7r1PIQ/uZ5cm1Uuz01x11YfR3lAZ3dP2MGSZ7j+b6kvOaCGyVXWnLGIpZ5t6NRzvOZl9bx9uXKjYTERXILEuAuijh+RTlAksG48zHUbrQmmTf0kEOPKZbI6ezv4sKecPrOlANV/lXdzqaTGTqef9o0FmznexZPzqz7+OluMp44xZK6ZX+lnDlysVRcZ6q0fY6tyZzlB/4xz+qBd+UkZ+lf8Vt18Js6azxWGnToaa/oQby5+a5ZyK79dHVOPvvayPp09xyqvqr363GFgL0guoVNzJL/qwSwO65j7Ueer4lGfts6Zixxfyes/Za9wIvW6/q7fTo6cnOVCvVpPapN7NXJnL38cXKx5D8p8yTA2/dE6Rtvh7PJobXb0037XP8KSvOzkdnJrXGmLsVtyi16XD8ZXOWHO34qnFZvy2Z6daZU7qUu/w81Y9b0TB/Z25XZj1l7i7mqe86v+2fvT0TsQeFd2Gb+CyZjQ0eaufuqy/8LX3F+1l3KO0da17JlWbaz001Yns4qjq3fa2ulX7FVHPHWcZ+Osc9jMs/se/OqCI/3U9XR2blb9tLXykTJX9oQzLNZNfuifNn0ql2O1z3sCcpxVxMiZlDJiqbbJX76vps5Zf/tyhSEAsqAAicN8sQEE49WhpKugU26VnEoMdLoEo7/6JVk6ezv48Ktc4rbf4a/y4k48K33IRLHBCxmMrep28WjzqMVeZ4vx1DOGWruVPnjUV1fstVXOvHQ+0p7y2TJfMTOv75Rd+eFDARucvMbejt8dmYpthQFbu/ZqHiveK7Gji3zmiU2HFwHwsMb1l/Xp4nCs2kvbXV8/vnD7la9+nao5Ms7Ehf0jHF28FZP61S5y+kydlXytCzrEwPiOfsp0/V2/7CW+uHlI+ZU8D5jdPcdDyHqxdhjrMOYY9vErp9ATD3JH8VROdXm0NrVuOzVPnGdY8K08+Hdyi/zOPnNrbrt84LPLyQ4O7GWcxltba1brg1yXd+ThgHiRqeuh893FUbHwvJK7NWbtpS9jrjxLmVX/6P2JPHQ5N1crm4wfYbp1P+/8mQ/rxrtJrmF1lKs5Qo855Vaxdfr3xLHKrTh22oq96oi5jvNsnOYt26z5qo47+NXN/Oo7fYiz1qbTp7Y776EZc2fH+ZrDK1iwoe2KfSc/6HNmce6Y/8yVWJyrrTFcaS9drjRMcL6MekBLoLrYBF0Toi3aVXKwmcRAtksw+mzaabPrd/Z28GFLuc5uh7/Ki/vsL1fkj02LeMyluthM/108Ob/qg7ezxXjqGEOt3Uo/a6Wu/Ei72Te2zkfaSx37zFfMzOlbOdrOj5eqxIi9Hb+8VKX92u+wdRjQQ3bHJ7yofurzbuzo1TqCj7jyZVl7WZ8uDseQr5iOnsl9fkCg39moORJXfuDBzxGOGm+HS33aOq/PHF/Jdzy6won00fWv+CVHXmrAxd6debuy5yCLDfYxaodd96kOZx1D1jzmnn0UT+VDl0dt1rrt1LxiPMJS1+lZbrG9u8/cmtsuH/g1J3kRpvZn+x32apw1Rzybp1of5mre2VPgStanw935No7U7fB0cru5P/Kbvoz5DEvq1D669f3JdVlluxxVmRUmxm/dz6sPnjO/2gZflU25nKucMLa6f1R9fd1yLuEfvx3OxHbWr9irvJjrOM/43jm7V3Xcwa8uOBIDvjN2ceb+j3zVpyZg3nkPTX/VTs7VHO5i0Ya2aR2j3clPyrP/ecnyI65Ycm9MnVv6W5crgqnkoDgEZaAQn2fBCobiMF4XkPO0FL+TYWNIYiDbJZhEVXxp334lGuMm1TiUra1yHlQ5D/aKU/mUI56Kk2Ki76VLvcyXMTOX9rp4cn7Vx19ni/HUEUvNzUo/c0CekKt8SPv0u9iIHd20V/V4Fl/dKFw4qaMfY/G56l7xe7QQwY6tIwzO7dTR9XXkM3OibVpjNXbnwJc8AAeHvvO05jh1O3uOpb20s+rj84wj6NYcya98QUcOW8TV2azxdpiMIw9y5cyFz7TK0+Y4vsCcYzwznmMr/ZTp+iu96pe1xL5zxBvj2tlzwELOsUm7U++uxvAs83MUT/XR5dEYujpU/S6fOXaEJTHv5FZbu/vM1dyC23xk/Rgnx9SJ/hUc2FMv89L14VvdM1ybmXfkPOO0I26fabsx9NCvtU09+pUDV2PGd9rUXo5p8wxL1annfn1/8syq6xS9mt+0TV9Mdc8inqprTIlf/RyrPniuuu61ta5VTlvUkDmfPdPqXs0aQFY+3xsHtmptxbDbVuxVz5jrOM/GWWtbZVd12MGvbuYX+8Sdsbs2yXH6t5buU8ZjDZBd+Ug79MFbeaffxOfYCkvlhf5p0+dOfpDJ/BMXY+IRS/WZfq72ty9XADEJAGMzYAM2+bQ8sxkAFCCSygBW4Cxs2mfBdhuLspkENyr0xUMBIFUmFHv8Eocbt6TKuez/P/be3lyaYtnW9ea6gRkYgQ+YgAUYgAGIyIiIaKhoqKjffd61z3v2WHGiqrK6q3t2zxlCP5mVGRkxYsTIrJ/5sZYxPEiIhW/iwU0VE/O1oApWH6xnXfIoZ7TEx0ZfrhNXzUfx7eWCv6ylvsDBuPwx3nGztb5iYb25uRnwDQeZR/JHnx/54q9yKlZbsWDHOsbhrcul6sbNhI5Zx3pwrcalZujLuOSoL/ytYDCPjjvnbMmVmPilzzgtMbPeakUb7MxdTbmWeidm+oy5f91DjGUM/XV7MGur3uXIXLLFd/rJuex3HMF/YgOvHNWY8IEt/KTf2mcddtYWbOLb41Yb/OmDWqX/VU0Qu65NP/SJV7nr4sIJdqmH6uvMmcNaz0L8Vp6rb67Jh7qkrlib94Uun62adTyunlUrmuyw3Mrt2XPmLLfyC5/o03rUmp7BkVziL8+IWl/3hPqnZo7lWUD92cOJb6+O+oOPus8rBq8TN2Nncu7OF/NQt/hUG3mWHmnKPYg/fMgpnMiHNp47jBufOXPsWmypv2vByO+e87yLU/nFxjHrlWN5z+j2MrjVhRyr2zwb7slDbvI8tV4Zo8vXMbGnD+dsrRW2jtkyRp6sd56WvJIjtZVcdvj1m63nRu455jtd1/2EvsDHuD6tgzoHrznWGK6x1c489tZuYYErctcn7T38sD/SpxrIvcU8PDhGfOyO8k2M2V96uZIcCgVIgQpCh2wQNwI22FscbbZakiAx1uEDXxKPH9YxZnxaNyRziAtynNeH8RIXfcYtFmuInf5cl60HCXjcFMkJosJeYeo3fZBnrgEL/KaN4gQTfTcY/uSzy4d6pE36tC/HaWc8xuR6i5tufYeFeODGt2vwTf5isSWWNvJh7VmvXddSB/mk/lwTg1zwSU23dAOXGRc744Kji+cYtqk3cFrHjs8tDFvcGSdbfKS9+WrT6a7GhWvszRue5Bj85m+t1BR2+Kr+HEt/xrAO2IixtskVMfyRp4dr5kxfH1VfYMCf67SjTXzuoZzPvnpkjXpd4dY81WNym3kyT7yOS8apAbETU/a31nVx4SJ1Kr/4z5uG+BiXQ207voiFXeLa6sOnusKnsa3TVj7YVQziZFwe8a8da6xDt/5Ik1tY7uEW/sSCfokhH6ln+TvDLWvwRQy4MQ4+3If6XcVBXcRHK5/6yRZba0Js+oxZD66x5xyRQ88ta8E6fWZs7MHsGYTdFpYtDazk3J0vrDMH41ZtyK95bGFbfX6qzzDwRO5ys9eCBZz8PLNuPc+7OFv8Wnu4or9lBy75hFtjwFnyb82dp70nDzUnPvxZL3nKWLUPvsSuntOu00rO0695uge0Y15+aLlmrsPvGtuKUV0mr3nOuGfNi5Z7AeP6pLW2zNPPfZ01zDX09U8e3drkUNvEYqz0ew8/+CG/vA92OqtYsFnRSOLM/tLLVS6Y/v/+Ly29GhfehNyYr4Zv8Lyudh5RGw4mDs0t394Uql4dz0N4y8dnHOeBNm+G9+TIjZabBDeO9ONDkDfinDvq44u68tBzZPtq80eaPIN3uP1a59mWNq7U1FaMGR+tjQbeSwPzchX/s7TvLl7eznkwe/c8Bv97HSJb9eJL0d6XH14gtvTK2qteMLbwveI4Ly588Vv9Yn2UAy9BXQ2Ms/cFMn3jQz+07/rie6TJzPmoP9x+jnPqqM5H81dq6ijWzI/mRgPvoYFP93LFg8nWA9u7iZKHmNUHLR6WyJv23fJ8Bt4zXD4Dz2ePwcvB0QO4NeEBX93SOn7VC8Y7cU3ut/w1aStHzgReAvxnzNjxFydeXBmX9631joOLh0g+4LDuHf9qtaJJ811ph9v3eMhZqeWtNldr6lYcs260OBp4LQ3My9UL/+XqKz9kXn1QDJevdfBYXx/a+Yjgjwf/r/hiJSdXtrw88ZKb/3aflyPGzrwg+d8V4Gdq8z97abh9zTPlyv0zvqbGo4HRwC0a+HQvV7eQMGtm84wGRgOjgdHAaGA0MBoYDYwGRgP3amBerl74L1f3FnfWzwExGhgNjAZGA6OB0cBoYDQwGnieBublal6u5r/RGg2MBkYDo4HRwGhgNDAaGA2MBi7QwLxcXUDifA143teA4Xq4Hg2MBkYDo4HRwGhgNDAaeFUNzMvVvFzNV4rRwGhgNDAaGA2MBkYDo4HRwGjgAg3My9UFJL7qm/Pgmq86o4HRwGhgNDAaGA2MBkYDo4HnaWBerublar5SjAZGA6OB0cBoYDQwGhgNjAZGAxdoYF6uLiBxvgY872vAcD1cjwZGA6OB0cBoYDQwGhgNvKoG5uVqXq7mK8VoYDQwGhgNjAZGA6OB0cBoYDRwgQbm5eoCEl/1zXlwzVed0cBoYDQwGhgNjAZGA6OB0cDzNDAvV/NyNV8pRgOjgdHAaGA0MBoYDYwGRgOjgQs0MC9XF5A4XwOe9zVguB6uRwOjgdHAaGA0MBoYDYwGXlUD83I1L1fzlWI0MBoYDYwGRgOjgdHAaGA0MBq4QAPzcnUBia/65jy45qvOaODraeCHH374xm9q//VqPzWfmo8GRgOjgY/XwLxczcvVPIQtaODPP//89u+//3777bffhq8Fvj7L4f7rr7/+p+5//fXXW9T9u++++/bPP/98++WXX94C72fRybPz+Irn0avn/P333/9n7/3888+z977QPeLqvc+95vfffx8N3aGhV9iL83J1RwGv3lSf1R8HBS8m3BzfOccff/xxXq6+6H55l5crXgbnxrz/1ZKHX86jv//++xs34Xc9k77iefTqOaMtdPUqmuIv2Jxd6J2z4VVwDY7tM4qa8YHsnc+mV6jvR+/FS1+u3MRs5CNyOSRfdcOfySPz9CXiFb9c+QUe3hPzo/vE46WKL+orungUnltqytd/NQr+V705+UV3izsfJu95uT3Ln5ju/edpYOdGYx22crxyHMzEky/qTv2vjHGlrz/++OM/eNlrR3+xIjce/jK/K7G8gy/0RD3R9LPPQ/k5u59Y98rnEXpCV1fvk1fOGe105xL/uoF9lvvSuj+75eziDKX1PLsCwy36Na7PSY+8n+Z946P2uPnutfJYa/PTTz/9Z7+n/vf8PHvulvsI9Wa/HN2jyOWq+9NH7sVLX64gRbEcFXvrYDpa181TaG6Y/BAlBzwH2z0H/Woe4kE4rEE44ACTc6/QKuyPOmg47Ph9JBdnaqqmPKQ/ircVvnyR6WzNA5t7v4Sd4Q++eNjyQbbDtjrGnu4eYlbXn7HjzAA3+5h8H/kAcAbXlq04PXdWzjxsrrp5beF69XH2xUf/E98z+8l9/KrnkfqrD4n36ODVc957hrllX97D1dFaXmjg88juzPwZ/eoX/XL2sPdWzirX3dIa65Xv3eTF/abbN6+u/7P3EZ4/fFY5qsmV96eP2ouXv1xJ3i2b4dY1vEhRuHygY2Ot+ANv9wB1Jg9F42HBpgDTSvyrbbbyuTrOGX/yc2bNI2zP1JT6eTOifdd/agVuDpczfHKwdYffGf6Ix37gJtrtrzN4wAKme/0Yc2+PEMOzA/zYuu7VWvF57oB7tdZX3rxejZcVPDwYytuK/SNszuyndziPPOe7s2OLv62zBvtXydnzZyuHOn7Pvqy+rrjmXPBMu8KfPs7o1zXsuzP6cN1qy/mNpurvqnvHKo4ju4rP61z3DvoH99l7JPcocstcH9X/yL34KV6ubi0MxCOObuPdcnDciuOqdXv5XBXjnf28Y02fzbd/JepugB/Fnw833T49y8/skf/5t/633BTPcj322/9dBdx81H56lbrsnTWvghEcfCBiv7wSplfA8ur69b7R3ctegT8xwCM/r1+t3dP/3Ee2z/hTL1c83PAnTAitPwXshuMhxn9byz8Nyi8n/rkTH0cPTMbDLz55460F9S9FYuLrCAf3nkjBo2/XJZ6VPPRvruSJD/zWvIyFX/Dqv3KjzxWutaXdy4c5c7ROtQbwJUZa5tN/16+8k0t+kYAX/yRrfDZq+jLmKi+5NvPiqymcWQP8ET/t5dx6gWmLf3yrNeyqvy3cjMMlMTyUiFHzTlx7/SMduMfAmH5WuE97+mCUP+tFq2aewV9XD+KDAy5Sp7UmNZ96vbdHtMW//9yFmGgg98LZfVP3SPIKfuPWVo1mPbBH59pWG7QHR87vteDI+PTrmLwzTt9rWnwfxWcdeHKfspYx8yIufhLrrZzVdcTI84gYt+7rTpeJWd/kzO/dz6OsGbqCW3L0TCNH/5pP/Y7O+crV0VmDPTrxnIV/4qVW8uxTi/Lfnbd1b2tLu7Vv3BdpSx8+1HC3NrGTA3zKQXK7sh9cl635igFM7mdqIV7X7OEFA1zqK+vt+q6VG7EQEx+Zq+vq3tx6RrsVC3Eq5+oDn+Kg3cOCLXmIQx4zR8Y6fWWMrX6NzfkEF9Yu12U+8Fr1f1ZHV+pfnHABdvJSD1v6qfHz3kqu+MKve77jxLi21kXtiifn984mcLsWDGA0/lYe+j5ql1+uTF6h0gKqEiDBtNxgSN6xfDCgDxH4PQJJkgiQYih640qOwpNsfEPUke8tDGI+yoN4YONnfh5udQOSBz/GWYc91/CYOFe5zjX2t/JxI1o/7K0B2MHMGPP4qA8l+rcFP7ixo8+PPmu1YX6lLqu86DdbuCQmdTI3c1Aj2q/WlDzurSd5w2/yglbFstKu6oBYyTu+V7mvOOROLnP+mfxlXDGRkzplb5MzuaftSp913bnjHjEG9UMHxKWv79V90+0Ra9Xxq39auGZfGLdqAd9gW9Fp+rXvnvEaf8Sre8b9BV7rQLsXX26TZ7nFv7mbk3yD5VbOunX1PLpiX8vXVitfmae8VW65tg7UmRwcs+7EuQL3LeeR9bFe5gzGzOURZw148WtsWq7Ruzho3U9H+VkDtQm/7m14T5+1Lw91HB+pcefRQGJ3vblgt7of9FnbuveNoZ069Jq2csAYey+xbvGcfuyrVdo9/a4+o92DxXx95rO+1Cd538OCnRy5ZlVfcrLXggmu4UvNkbNnQK5d1f+qjszrSv2DF+zkBF5yMkfuJZmPOD3rrQ9rWVf1292L0p/9o32Q2KTDR3kAACAASURBVIhjPdUJfsBCHvgSn3xx9hrrbLv8coUg+GUABZ1j2ABU8TCngBSs9thZbMe6Fp8Woc5LVsbDBvta4LqW6y0Mq3komiwWfr2xUzjj4rNiUlT54I0dP9fRdlznvP2tfBRLVwM4dD0tseEvx2pff+ByTpF6XVvX1Jqv8lL9cS1/lX91UXld1WaNxbpakw63dUqewcb6HKv+u2v815j6T3s5yLHa3+J+y67DCpZH82cuWTexp9bAjUYrPzWf7pocqgaxY29ywOYacGBf90g3BpbcN+JOLjmntuJnXGwqFvDp68y5k37t479yx3Udyxw808jhKL6ax46Y+vE6ceQNTDvzxG6FM9elRo7OI3xv8bByTptDtur3M5xH8peckisaz/pk/vStRbfH0la76msrrs8RqSH5Zo2+9euDEuPaaUOrRmv8tNlaq03dy2LP2Nhi1+k8c+nsjJMta/CXZ2TO0+/ylZejunAG4L/6rNfa5bOXNUpOvRenHb7QUd1nWzHqeF7LedWpPK1i4byVN/VUr4krj7XGianrb/EAB3nubuUjt6kZseQYsavezCNxXaX/ep/yPpGxyLHaeW+lbuSfWuA6OUlf9q3v3j7Q1la+6h6Ar3qPJ37ez/Wx2j7s5SoBmBBtjpNQTTLn7e8RTfK1aKxjzcoBsYWhW9/loZDqwaGYM+cuj1U7BHhPPh12eOry73K3FtnCO+vhoD5MpJ19MdSar/Kin2w7/pjvxru8xJR1Sv/2yZP1XtPu4U671Ri5Zst/pwNzrevzWgyV+7Shr13HxzP5y/hiqtg7/ms+3XWn+Tzo65qu9p2Pyo+4M5eVFwXiW2f2GDeRer6cOXdqPlx3OXV8mgP23Py8iR/Fx54cjK2f5KLD0dmtcnb2POriM9bx4B6r+M3PdsuuG696wUeXv76zXa2fcXPtagzWwGk+9FB/cKe/2tc/setcXmtHm+M+RNZ7ivbpdy+/I7urHi4zjthrTnCWD2rmUu26uiY39N17dTyvV3nJNfY7XTqXbWfX5XXPM1oXIzHQl/MtvSTHR1iY94zD9z08Vpx7sclT+6N8Um8d3/ipOuryuEr/ib3j7OjeClbOmHxJwmf1Kz+2K/tAW1v5Sg6ZA0MdIz7jrj3bLr9cWRyFBxGIpXvbq4BMKEW+lVCXwB7RxOqKsEpMRyoYuvVdHp0d6+Urc8aWX+bY2Tl2xHX6sb+VT4edNZ39Vk7GyBasbAz8cCPODcJDEQcF/rTZirfCS8a1L1fJM3PdeJfXFi9wz+b1gQ3cFSPXdcy44qPdipE2XV9fRzrQLn2scp9r6O9hfSZ/WU8xkWfi7fjP+a1+p8GtGPjoat/5qPxQA2+o9PHl10u/jG5hZJybn/rDTz481Fj6UQvJn3PZdjl1fMpL9Xc2/pafiuNezsjfs6aeR+R/776uPCSn9Lf478Y7Drd4uhd34tyKkTb2iUuNPNfB7HmkzdVnTccVscTNvLG19XrLzrU+r4AZfaCVXNv1uxja1XNAW8a7n+vEQ+sYLWvgOMdqn/kjG3HkWmMyV8fhBZ+JOW26vvY5Z4zMayunrfVnsZhrxgTTvVjwoe8ux8pj2nT9PR6ynsbcyifjdjkSu8bS7hH6T+zEFr8cGDtxO1dxOo7P6tc52xWb1bMJHBUf/hk33tl2+eUKxxxG3OQJ6IsV4DNoB0hyadO2Syjn7e+RiA9waWvb4XAu2y0M3fouD+0qDwosc+7y6OzAt8J15mF/K58OO2s6e3PS50rLDRdNeLOCD/psZrkRQydiYmacLV7Shv6WXTfe5SWmrJMvVfkADE8VI9d1zLiJs4uR83v9FR3UmGe4r7H3sD6Tv6yHmMgz8Xb85/xWv9O8MfKvLa7vat/56PjhhcgzkzXUM1+SjLHXgo11rFeTxnJvuV4tJH/OZdvl1PEpL9Xf2fhbfjocV3BWzyNyv2JfVx6SU/pb/Hfjcpg+Op6uwH0UI+ezj76oEfuCFyzPd20ecdbIVd0ncsO88bX1mrazY5wcci/Cqy+Nub72uxjawE2Hx32qXW3FSJtz3X7IefrohjzqeF53mI2ZePn4ia/E0ekyfdvv7IyR/siJ88t1tnX9rVjMNWMS4x4sYtS31+k3ecz5rf5WbeGBn+uMuaL/Lkf8dLEepf/ETmzxm48YV++trKuc6CtbbPb2wZmzCb5qPfHPeMY8019+uSKwb717ATpAkkuba7uEct7+HtEckPiphxk3gW5D69OWtfjw2nY1D/+EW7/mwRW+8+Gny0MhJjerXIs12618ztSgyz1j0O8wsnmI73zNXwysTX+rvOQa+x1/zG3xLz7Xi0n+va4HG+vA6TraPdxpp09j5Nxev+O4s5cD57xO7YmBOe26Vjt0Xec7XWhvbl7fy5/+wKDPir3jv2Lurqllt+c5qOvDI+cK9vXGwFiHh3Fjwj8+69nk/FZLvhUHfOJbXs6cO10cfHV6Tvys41zLuPo6il9ztobi10/FcStn1KLen/I8Mv6VujSHbMHR8fXO5xF7BT2SQz0XzPfKs4YXHjis9VSLWUPjZw2sNXOOM1b3lHNHrTG6FzFwZhyx1+eBGkOMtDlX90PO2RdP3WPO02qT/j1DEi/x6tnWnfPp235n1+W1+ox2KxZj1jw8o5KDPSydPuTRnGmNlzzm/FZfvnKvYMs9Is9iNbSif7FkjvisOmK+y28La47LwZb+EzvrtE8fe/fWmifr8Fn9pr+Ms7UPxJF8y1etHXzVMeIzXuOuXi+/XBGoI6EG8gtrJuShmAcOhAB8xSei2BKGZIGPmPzwie8quIqVa/D6AIR43KCreRBP4Sg+N3UtVpeHDwB5w1jl+kw+Z2rQ5V5jKVxrSj3JD+zYyoE3Y+atixzrc5UX7bMVB3HdZMaucbq8Ki8ebD58U1/8gJH1GbvDbY5qAXtjyAVj4sZ/+sz+qg6MWfM33h73GY8+eNg7xKYPdmv8DP66/eBDQa1n5d+zIPdSzY9r8uj2vDUxDrxpm3VivDu7Kj/isS4dlm7MddSVeWKjRzCLg3b13KkxWAt+8Oac3FtveEQH3Vm6F1/c6ds9oG/zqjjM/Sxn1k7/rEcf4CfWvftabo60JQ7imsM7nEdZq9p3/8Gn+tPG3K4+a9SdfKML9G49jV/PPsbF6z5mjLqg94pfP3tt9UdMastv6xwAK5jxS0ziJ57V/dDhIq5cmA+xvGexRszuRfQvV4nDM0Q/1LGeYx0Gxjq7Li/3NLUjDj+xyBH+7sGCNlnvfRe/VUPE2MPi2ZH5itO9zJzcJo/Equdp+qEvN9YEHvAB9rq2Yge3NU+/+kzs+K3n6iP038UBW8eZ56KcwSc5Z80yLzjhl2O1f7QPVs8m/GztY8bJs8ZeuV5+ubKIBMsfBCloSWVeYrypuUZbSHXMg7kD7JeG9FntEDs49Ec/N221z2vwgJW14IfIM3ngCx8VZ80p5z0Ek9MUWY6bE21ynTlkv8uHsfTDNWu6GnS5p3/78Ese6YPrPIT0hY3cikN+zvBi7GzdtBxGYqGejKedWIh/pE2w6Qt88OVhxzV+O9ysMz/Ws65y7yEobmuRWO2v6KDGdK357nGvbW2Jyzp+8qi/R/KX+SZ/9OVV/jr+vXGqrZqX13Be97xz5OscMYmTmsYu8Rir44ezJM8lc2C9NxnjZks8/CWO7kwjj+QBe/Gkv9pPv8RxHrzqHBu4ltPV+OpFn7R1D6j5DsetnK2cR3Bj7eANHObLNViTT8c6XWZ+2Xdfv9t5lDl0fXjraout2seGPjVU60d6hFvWVf/4wBfj+KJlzzAuPnwbh3nGqalrmPO8qOOuU+f63GqJzRrsed7ALuNknhU7a5I7sBiflmv8dfthCw9r8myBq3pOiTm5M668sG+Miz9yU8Ny2mGw5nKCzVZezK08o92KxdjuZfnGX813C4s1Zd7fGX2531271cKtuqlnELhdVzWUNdRmi2/rSe7UCXtsjSsn1k4t6Ldr1RK+5aqL03GmP3LPNebvvG13BjtX26N9oE7JnT68mr97NnlxzHVyVOOuXC+9XAGIjWdgHTsOYY5N+7+b8xYu5HS4XuPRGwEH6S18f9QaD9mt+KODtfonf95MOXBz/KP63LQ4G6llYmCcQ3vlppbrvkL/3Tl71/Pos2uLhyVfljNXH6Lqi0naTP/8WfzVOOPlqtPXq/Aw+n++hpdernjQ52GgEwpvtLz5dXMzdr6gw/U5zt71YYaPFWDf2iOjg3M6gEfOIm5yW5w+e5xzsasxL1ucp/UDyrPxvWK8d+fsXc+jV9TCVZj8wt99gOMrPHvxVT7IXJXz+Dl//7iVM8/zTl+3+rxy3ej/eVrIui29XPlFmLff/MLDV8atm2EGmf56cYfrda7QlX+u9k/V76A1asxe2sM6OjinA25wvFjVvxLtcfzoOf+pSGqT85MvnJybr4T1Hi6ufKF4d87e8Ty6p/bvsJZ9xn7jg1a+RHHGMvZKH2Tegc/B+N/3Js6/V/5XCKP//67Xs/S79HIFGB4QOIT4yuOPg+mVRfUsEq+OM1yvbQa0pxa5eeaN8+qafIS/0cGaDj6iNisxuanxEp3/zhyd1o9UK75e2ebKl6t35uyzn0evrMEjbNwb/KjhPYN9iXbR3NH6mX/vs/ir12/0/3z9Lr9cfXVxTv7PF+dwPpyPBkYDo4HRwGhgNDAaGA28kwbm5Sr+12HeqXCDdQ6a0cBoYDQwGhgNjAZGA6OB0cBraWBerublav5JxGhgNDAaGA2MBkYDo4HRwGhgNHCBBubl6gIS54vBa30xmHpMPUYDo4HRwGhgNDAaGA2MBj5CA/NyNS9X85ViNDAaGA2MBkYDo4HRwGhgNDAauEAD83J1AYkf8VY8MedrzGhgNDAaGA2MBkYDo4HRwGjgtTQwL1fzcjVfKUYDo4HRwGhgNDAaGA2MBkYDo4ELNDAvVxeQOF8MXuuLwdRj6jEaGA2MBkYDo4HRwGhgNPARGpiXq3m5mq8Uo4HRwGhgNDAaGA2MBkYDo4HRwAUamJerC0j8iLfiiTlfY0YDo4HRwGhgNDAaGA2MBkYDr6WBebmal6v5SjEaGA2MBkYDo4HRwGhgNDAaGA1coIF5ubqAxPli8FpfDKYeU4/RwGhgNDAaGA2MBkYDo4GP0MC8XM3L1XylGA2MBkYDo4HRwGhgNDAaGA2MBi7QwLxcXUDiR7wVT8z5GjMaGA2MBkYDo4HRwGhgNDAaeC0NzMvVvFzNV4rRwNto4Mcff/z2/fffvw3eueG91g1v6jH1GA2MBkYDo4FHa2BerubB+tM8qP7000/f/v3333n4/qSa5sWK+v7www+fRrOPPuDH/+MeIjhv/vnnn//85oX/cTyPhofbqzTw22+/ffv777/n/vFJnxFSJx99Ps/L1RcQWQrus/d///33b/w+e55fMb8///zz288//zy1nTPrpTTwxx9/zAed0eRLafIr3h9Wcv7uu+++/fXXX3MfOdivfMD0wxEvKSvcvqrNR53PSy9XPNBANF+Nf/3115ciGhHwJQJsPHytFph1rGGjseFW111tx5cUcPDjy/yqf14gWPOqD5tgO1OP1bxX7IhLTdEFur2nvrfoiz1C/r/88sthPa/m6Wp/K3w/yqbWcIXPLSzsc7jht2WzNe5ee+TZlzp7ZJytHM+On9H4kW9rU88Lrm+p11E85/O+lmevfyHt6lA1iQ9qp8+PbJ+991OztXZbPICRc/meM3nL9zPHb9F/6q3TlvhX7bTP9paz6pY6Zsxb+jzwogVyvWX9PWv4KzM8kfez9wy6p/Y+sxKf829LD2D02fuenM+uZT9zDvJ8uoXtrM+z9rfsg1c6n5deriDFf3L1UUTvFQZCz2wSBcvDGsJmo+35f/ScL1h5g9+LSQ3ADX42Hvns2X/E3Jl6PAIfhzd15bd649/CcVZfHN4+GB7V9Gqerva3xckzxq+sIXh9iD+DnQMeTtmj6ODM2rO26IZYr3jG1lzOaLyu7a552Kj71D3U2V81Zn1zn9LfqsPVmrwqD/x8xN4/ezZ6z6q1vpKHZ/i6Vf+rz1GrdpmrWr7lrDpbx4x7ts89+aOfX8iXM8dnwGecucQkb36eN+ho676kPTi1P8v1PfbEp1a09/i5Z+3ZffBK5/Pyy9XeDece8s6u5QbSCe3MjQXBcBARG+FQkGe8oHBD6TYxY1t5VX481BU8uMFf7Z5xrSaeEetMDHBRY9fQX6nvXj5n9GVcDu6Pqo0Y3rVdqeFevbq8b3lYzxth5/PeMXNAX/l7l4fPezSe+Wb/Xk6P1nveZkz63dmcvlY0mfZfpQ93Z/TqPQw+352js/p3v69obUWTyd+9Z9XZOmbs1b4vEz6/8PCc9+pVP/fawX8+A57R762xeRaAYzhIH1wznmP00dYtL8rVz63XxKY+t66/Yt3qfiHWq53Pb/Vy5Vtsdyg/42C4RywcJmDsDlXGmOvyuifmo9ey+bpD4dFxH+V/L59X19ejOHllv3v16nDf8nLV+Xnk2NYZ8ciYr+Cb2jzjAafm6s373c7emsdHXs/ZuP4/OKHeuueArOGqXa65tz91XK/jWa59gZqPrec4/oh9cLa2W/Z3vVyxGevDgC8KjBPUa/5yoH3eyPy3p0c3Vh6k/Len+qHVF318EIeWa3x3f7FgzK8I2NH3SwqYE1P1xwsetj7YgYn+FsGM84VEn8Tz5wErR+RC3zw7v8TmS482+NWPGJg3hvZedz7JyT9Na2dbfRtDjrWzZd5cs6ZnMRmHlhqYL61fnGgdJ6ZrzNk5cut0oD3tXj7Mkx82VQ+d38on+tLOWuOz4ykxZb/mJN+2e/442Km78ZJD1sGjfqoGyZnYiaX2cy/5FTJ9Mkb+GUMfYkqtMHeE+ahe+s/WNXIJnsqF9uDNvNAQdXXeFr7IT62Rj7XWZqtNnbCeGoGp7jnxZoy0cU1yfksdrQX+PCfIxXHim9s9eVdu4Rl+UwN5XiR/cMEX3TyvxJp2W314Mx9a45APa8Amz8kxc7UO9VzRF/xpSx9/+gK7/skbuy2sjuvLdfjMH3bmlBwyfrSPjJFaxDfYrLU2Wy32xMXePQaeup489mpXuQeTeW35y72XnNDfwntFnW7VP+vAph4y5xxPu+QBfqtmbq0xnHJmyBPxV+qovW2ek/h03Nrhl7o7XvdgYoAP7Pm5J1mnL/DpZ6+teq65HtXPnDJePV/34tc58q88VJu8JpYYWNfVvTsXEm/6s7+1Bg1pc8TN1v4B58pZ7HrOT+J63a2/ch/kXkODdV8xDx44BEvVjPystne9XLkRPCgISvEExzVzAKVPMvRz0zDO2JEosJPoul4f3HwoFBggiWsIYt6f42mHTY3PGD/Eoj+ujYEfxt0AcGGMrZY8kyvt5Aj/5kZc7PPgIR6CVJSsd9NWUStY2j2scioubPFPnsQTY9eKu5sjl8rpKqbOX8WpDRgq1uTIGlUb12e7lw+1sPb4VEfkmT48gL2ZVD5rjI6n9GcfLrHFH2PWHX/a0FZ/7tGKh3yyvuImjhoUq2szTvbxwzp8io956pD4Vvf/KmbxJZa9vhhpwbmFm/hZa+zULjkYA16wky9arslbm61WLty3GSM5Yzz1jL9ae3h3zb11BD/8JG73nnnekze8G4PcMp8aV84TC2sZZ21ylnVJ++x7pmoLFriFP3PDnvHkVB9ZB2Jz9oPHPLATM60a8x5Baxy1e7S38Akvz9j7YpEXcqNv/lstXGVdWMM1mHNN2mzVjrX4g2vxqD/4S3+rvOQa+/fU6R79m4v7FTz04SafIbRjXB48M8BuHqtnpWv1Bc/UJ3Gs1tHY2eKL9TlGn7GsG3uQnOo+8Jo1Ys0xfdUzosbL9Vu5rtYPDdZ47tuKrcORY2fWwRex3XvghUfvFfrN84gxYzjftXXPuMZ8VrnZ2z+p4w4DY2BHM+AxT7HQug5c6tJ6qo9b9sHe+QImOOZscn+gVbGcbe96uSIYiScZjEkSICEQ0IxLlIUULD6qiJ3Ldms9NvgwjmsQKeNe01KQSph4UxSKMNd6c078FjrHck32O66YNz6+tPfQTG59cEo77M1TkabPHJM/RZp2xqVdzUncudY+/NWaan+ESR+1TS05R+4dR1nLLm/XZyu+HLO/qq8Oo7VEP1VXHU/GzLbTDnqvHK/4M8/UrByhsRoXjnOs69e9jsby8GONMTIu4+RW86gxOsyOVduta2IQC6zagJOxxOSNI+2w59ygvq7tWmN0cznW6YR9Uet8tOfdq9ZNjr02Jn5X6tjlDkdH9VnNu/MPRvioMVbqa77YmmvXym19QJHfrD/rt+pwdK6IOc84a5QY0VaN0eHusDB25d7vtOiZVfdwh5E8Vu69de1W7fBX46KNet/u+Ot4qXG5vrpOq/qvOaMT+E9dgU+7qlc4qPuk5mduqWliHO3/W+tIfM/RzMM9517wGtvETNzEZu6JH3vsjnLHbiXXjE+/qx9jNV7HbfXVXXfPjp3d1ljN3XMr+d5am+NdjeGrcp1rOm7kwdpib91qfdOXfX3WeyxYcp/r86p9QHw4qOcL5wZxE481E/PZ9qEvVxZSAUhULWQVzlYSW+slbGsjpL/ucNJvigJfK/5cW3PKmPbJE1F6batQq49qzwHEWAoAH916x4xBK9bE0Nn5MFDxpK+MW8e5PstfYur8MabY3dC0dUPIUfUBb3mA13muOy60Y/2RHtA5dvUgwAfj/Dg83A+MdzwZM1vWVo66B4kVf+aZ9VUbOSbumnfiyr75b2G4J0aH2bHEsNcHFzymTYcJTdWHRdZ069PXqo08bekk66yet/Y8+aSfLh9wYbdSR/d+vpwd3XxX88Zuj9uKb6W+5pucEaf+fPgjv5xzPW2O1/1mHdKGPnZ5rnSYV2NU315XLIxftfePtFhrIqZsO211POQa+vJSa9fl2+29zq7jpcblusMnniMtdP46fJ2dMYhPv94PXJN2jtES56gm5mYe1rjynH7p31pH1nI+sT7PIuLlQ6x7UFzGJx/OBa/Nvdp1+Fxju5qr9rZd/TquK7euP2pvXaffmvvWeaT9Vkt98MU+4Yyv95VuXceN+aS9dWMux7t+5xO7Or7ls6tNjSPGTkcVY+fP9dXv6vVDX64qCInqkiW5al+vt9ZjV8XHWEcOdlu/JHyV7D1MFT9xM4bz4ux4SXsw4cN1tt16x7ShFWv6dMxDkM3GxuPQz7Vdv4uh3Vn+EpM+alu/fLFG3NrKUVdj5rTr2r188FfXV3u57HLp1oOh46nDhh03IG4ezPvlKh+Ct/zBG4eqPuQm9Sb2HMPfFu4OI2NyUnExdybGCmZjbWGp4+RPPjneYdrKeWs9GnRObjNG7RtzSyc5rt/qw9xrvfRdx7dyqn65Zu/7woCf7ixg/Gze+N7CQZ78Eo855hjnEw9p2IJLvpOztLevr8oL1/io44ylT+tgvGwTt3GMS7saI9dkH/+P2vtiy1yNTY6Zm+O17ew6HlZrh7+KR/4z9iovucZ+h08ujrSAD2xu0b8xUj+e6WLT/xYPtSZHZ6Uxa14Zj/5qHes6rzkz8iUpNYuNnGfu2dfPFt4On2tst9Y6b4vdUf3guXJtDkdcGsfWdd19UZtssYNPnsXkKLF02HL9Xp8PTPqlRt0HpyNuzCfjyD1zOd71wU9eda6Ob/ns8j/aB8YibsXY+ety1MdK+yVfrhDOETmrZFv8lc3WFRUcFrH6qPYKr35t6NY7lnmKlbkc58GbTUY8fmzq7sDPNYm7jnN9lr+KqfPJGIcCP/pgZkOlLXG7h8G02ep3nGkLL/j2mrbay29+vdO+W89cx5NrsiXPfJik33FW/YEJnvKvsuJOvYk9x4i/hTux2Ucz1Ib9RcyqodUY2K1gNg/jH7VwQz5p12HCRo2lbV0Pp+DEh3bVxvFsjdnVj9g5rr+VPU8MfScmxs/U0a+bxOQsqA8Et+a9h4M8+SVPtb7gQffoSz7MNzlLH/b1VXlxfR3v6rByrhjHuLSrMXJN9h+598V25sxKbPQ7bVUeztSuck8M90HGXuUl19iv+BiXiyMt3KN/YxAf/JwznCHqWXxp5xht3SfYHZ2V+sp7QPq0v1JHbbvWv3rTcmZs7Wfy7tY7Jl5ax2g7fDlP37V7ua7Wr3KNf3VTsVUc9VpuVp49falKnmruYKPuNc6Za3JAf/g21io38pDx5J65HO/64CdunavjWz5rbbA72gfGIm7FWP1h2+Woj5X2kpcrgGUwBNQR1xHFoYJt9ZH+7Lu+2zidj44chLtyk1wlW0y04txqwUj8Oi/O6gP7FAF5M1YfduQ7D2h9Ziyxpk/GVvhIP/aNUR+imT/LX2LSf9fKAfYdl857WHQ+tsb28lnVFxu88gkW1ncHa8dThw+7WvctO2ydo19fFMwz9aY2cgwfXd76zhbtEQct2Oc6NWmMrDXzNcYqZvPo9JfY7OOXWF7TiinzRlfYVQ1R1+QSm/pQ2sXIePZZm74YJw/Gkx/1XGvvnq8Yu3zwjV+wGX+vTRzdDfyevOUndQEW4lR81lesXuda803OtM9Wu1ov+c36s26rDpXvjEFfjDlu7KMYuSb78FLrn/P2sUsO6VeNiS+x7J1ZlS9jZdtpyzjaeb1Su8o9PsiFcf05tsJLrrEvHq9pV+sEjspLhy992zcG8Rljr8F/rVO1cz1x+OV1XWtuWWMwd/cf/dBik74Z01fa7fU5I33Gyvis8Vw5qlmXe3ef2MJxlOtq/bqaUnfW19y2sOQ4deaXe4B5881+/WtSrY11OTqPMj5x6rOJL33ms8qN8at/1jOX412/4xa7eo+Vm+qT9alV+iv7gBgdxuoPuy7HLpetseWXK4tQDxUSQjBsHAExRgI1qBuEefr82PCV0LrOa9dDBH02KT/HK7ndA4h5MMc6fFNAfKZQwVSFqD9zZS3xyZWbtDi3ANxbDwAAIABJREFUWrkiDj7k0g2bGwob/BJTf+CFa3CJwYeDKj6xZk7mblz8ss56GGe1rf6Iabw9/rQhTvVxFNtaw4MHQq7BN3PkZBxaDvzkN9fYr1jMx5gr+nJDyjGxrbs1Mx5tx1PO20cLRzelzp8vCsZW6/hLPtRxxtjKW0y22JFjalAuiZ92xMWWNfzgGA6S21XMxpBr62W82hKD+MR1rsvbA91zRpysTc25F/XHXuxiGCtbsOJPvtGJY+aDPb6NYw3d89inT/pdPviQ92q/dU0exM2aaiueW/IWn9jxQb5VA8SSD/exedMyv8WZOGtLDLDL49ZewC98idFYrIUX8dDWc6ViZq05i1t/xMj9UfF6nTpxrGvrWbK6j/bOLGvcxWNsS1uVh9XaddwTp9tXq7x02Cs+bFbrdI/+65lFXMdSb47lWYDtrTXGD3zhFz/UjbqTs9fMwzPX/jqenOta41Q/2jIOf56j4sg8U1P0+YGjOyP0m60YtnJdrZ9+5Ah/3BOSR+JyzS8xdH1rCgd5hnDtes4m+p4L5A6OmjvrycN7FPHg1HVdfObxrc7wjT1+6LNmlZtOF+aXtexwMCaP2BKbnz6tG3ZbPm/dB1vnC/7IPfGKx/tFzq30l16ucE5gCsNPsRGAOYAxjki49rCmcIpIMKzVl/MSbdG17VrX48Mbv/FTOB7mjFXSKJiCZh4cSSDXjDsHjuoPe37a0SYvHXbsxUquCIo1+gCnOOSIubwpM5/48JfzHVbGWJc+xVrHxYJfbbpcHPMAwt5Nkfjon8Wk760Wn2hma75yRK3FtrXG8S4fawY3arTqwfW06DLXgBdMaUO/46naeO1Gtz62+PBg7Pyx/9xfYAKbhyw+wMVPf44RN3Mwb/Fkq65oHc+14HIcTWnPeOIzRo5tYdZfVy/nsk3+8MncVt7M1TMCDflAoF+uzVONefYlF9pnmzcTbMHHmHWQC9aAM2srJ+lPO9ffUsf0h77BpbZy7p688QNHqQHyS41is7W/rGPHWT0HEzP9GqfuBc87scFh+qx1sObG6TCzJmvSxcha6ytbc04/9NGE9Ul90Gf9mX0EF2pZ36xPHF0/15hHxwNrzWOvdh33rgMX8cSR48lN8qJtth2+M3W6Vf/EyPzUAq34yW/L7t4ac1YanzjGh5szdUwuax/NkEv6ThvPvcSB9tKGPuu1Ie/Usjqra/J6L9fV+oE1zyV0w1ryAxt1Iqa1y/hbfdbrUz9c49s19DN34rjGvY0t45xBxoeXvT3LHDZZ63pfW+Fma/+IGTxb9TfHzEf89Tx9xD5IjHKe+wpuwFhztNbiX2mXXq5WHI3N/37teScu2Gy5YcXOOKLf26zaTvvY2nvI1A3uOLWaGjy2BsPv8PsRGnCPz97/b/0NL//Nx0dos4vpw3k3N2OvWbOPqIsvVx8R+1kx5+Uq/gT+LNJfJQ43KF6gOBArJr7cM1dv6tVurh9/YPLyy2HUcc3Xnu7luLOdscfXajgejq/UwOz9Xk/DS8/Lldpb9cW9yWcI+kd/tVj1O3avU+OrazEvV1/4xeNqMb2iP/7szZ9JeUDPlygOSsa2HuhfMZfPjIl/NsGLLn+q9p8B0Truje0zczC5fd4b7VZtv8INeCt3x93js/f/W//Dy3/zoV4+omWf8rLLj+eGj8AwMV9HDyu1QCc80/g8s7Lm3WzmL1df/AWSlyoOxfy3qPy7U25en1n477ZRqYcHEocSP+o2L1bvdVN5N919JN55ufofbc/e7/f48NLz8uw9y32I+xH7df4zgteoybM1cCae/8kJmvG/cTqz/l1s5+Xqi79cvYtQB+cc2qOB0cBoYDQwGhgNjAZGA6+ugXm5mper+TP+aGA0MBoYDYwGRgOjgdHAaGA0cIEG5uXqAhJf/Q168M1XntHAaGA0MBoYDYwGRgOjgdHA4zUwL1fzcjVfKUYDo4HRwGhgNDAaGA2MBkYDo4ELNDAvVxeQOF8BHv8VYDgejkcDo4HRwGhgNDAaGA2MBl5dA/NyNS9X85ViNDAaGA2MBkYDo4HRwGhgNDAauEAD83J1AYmv/gY9+OYrz2hgNDAaGA2MBkYDo4HRwGjg8RqYl6t5uZqvFKOB0cBoYDQwGhgNjAZGA6OB0cAFGpiXqwtInK8Aj/8KMBwPx6OB0cBoYDQwGhgNjAZGA6+ugXm5mper+UoxGhgNjAZGA6OB0cBoYDQwGhgNXKCBebm6gMRXf4MefPOVZzQwGhgNjAZGA6OB0cBoYDTweA3My9W8XM1XitHAaGA0MBoYDYwGRgOjgdHAaOACDczL1QUkzleAx38FGI6H49HAaGA0MBoYDYwGRgOjgVfXwLxczcvVfKUYDYwGRgOjgdHAaGA0MBoYDYwGLtDAvFxdQKJv0D/88MM3fl5PO19XRgOjgdHAaGA0MBoYDYwGRgPnNPDjjz9++/7779/ymXperi56ufruu+++/fPPP99++eWXtxTCbPpzm374Gr5GA6OB0cB/a+DPP//89u+//3777bff5j540bPFaOy/NTZ8fA0+eLHiLHnXP1jMy9VFB+Cvv/767ffff58bykV8zgH6NQ7QqfPUeTTwuTTAQ9G8XH2ums4enXo+WwN8qPn5558veabm2ZwXNXw+K4+7Xq7++uuvpwN+FjErcf7444//5M/N5JF/sZJnxLGC6xYbbob450c+Wz5W7ep6/rJnHnv+6zo2F38RBBcvsHV+7/qWtcT5+++/v4F3z/dnmOOLELnewu1H57+KHQ2Q3zMP1Xu4IS/1Xv34V4E6/grXt+7vLexZ373ardoZhzMEPZw5g1y71Vozzrdnnhtnc9/Cf+849z7PEPI/e06vxvcBiVicW1vrvC9j192X1Sr7DA63/Nwz7r0ODCt+0CO2e1pf8XOPzS16shbP1P09OV619hauMrYavfIcSv/39r1vPvMPBmiIfc2+pN/t3VvygmP2FT5X9+Mtceqau16ucAYZH3kg1ISedU3hOUBpFcMjY3tYPzKGL05HG37VLrGySeHplg3z008//d+bd/pc6Z9daz1fXdM+aNB6EHEgrnCSNvx7Zg6cRz0QZayr+0fYuQGiOWr5Dv9umzqyzzlTuz1IHs+8OZyp1z37eyuON8OjvbhqR5yrX66I7bkGTh6atvJ5xPiZ3B8R3z3mh6xOt1fGVWfsA2JX354JzHOfqvNcUyf8MM9eg8PO7t6xs/dstbmF+148K+vP6uld7pe+LFB7dMMPDaxwsmVzliv9ZJ0fpT1j3dKyhznT4Iz9ccsz2y1xOTupCb+jM/8W/+TD75a1t6y56eWKg6v73QLgHdewISi+G4OCdQKEo6tuNsTD3yP5ctMfYV61EysHGfhvfcAFD7kTV5+r7S1rwQneIx5WMVxtxwsjXKA/X3RTj0fx5KTuYXwcrf3o+TPYOaS7ffnROWzFByv19FzZsjsaRxvPrOW9+3svHzS6ksuq3V6sW+aoV96w0dyzz42Pyh2+eCCi/vSveGA9qgHa9syD62rPPONwQr/Oc3bmOmrX2bF+tY5btuiWuYph7/qRe2kvbs6BeWXPuebV75fg86MHZywvDrw0qFvzuKU9yxVnOy/dq9q6BdO9a6i93ICX63pP8j58byzX4y/3JX0xaHNPq0bv8XF27U0vVxkE4s9sxFz7mfv+xeSqTQTHZw/qs/xykyHGEeZVu7Pxt+zdyN1NcGuN4/es1cdnb6n5Ldy+Ai/vjP1R/HHz/ixnMvVdyWXV7lGcf6Tfr5Q75xQ/HpZ5SK68+1ffe86FM/fuPdtn3LNr/ldcfyU93cvXV+XKDxz38veZ1596ueJNkkMNQfGjX2/kHih5Q/QBlzX0vaaVXA5MDkZsODR5c/VtGV/pr+LAnmLrK1u+VIgX/8yxnjWMO+Z1PmSCwbXpE1z49c/+2GR8+vpzPW3mm/7ElNzWnOSV2OLCJr+a6rPyA05uAs5vteSeOPEtfmLpI+3om2tyYAxyBq828A0+523xY/2JCWbt1As2YNAOTtSIfmp7Zu1RXVM3FUuXl7Uyd7m0rVi9rvVjPdpwnhYe1B/zHfdpb79bBx7y0UZ8OUbfcey8dk3NFT5yfY2ROJjDvtOy/mlzjTlXv9gdYcEmNQTf7i/8djjIxTXyYLu3r1fXpR0Y8vwDr3uemFx3P/JQE2KjJbeq3bQlNj/XpG/HmGeca/tcZ02YQ6f4Zk6f+qt1wR5szndttcka5FrtiG0tsRULvvM826oZ9vCPv9QCax3Hr1jxs3e+Zd3MH9/8btmzrCN+apQxa7yVe94HxZ65WtO0I1/5yzzyLMr6Y19zsl4VX3IrnpUWnGAhLnknD2LBD3PmlH7JJ++z9d4IfuuMD3+dXo5srUXWveYNni5G8ib+rEH6ZH3lnTXyof9sO26Mg12tF3jUgnZg2HsOwi7zYL2cVB6wNaeOfzAZt7a1pqxPjWJfbZgnXvVVryuH5JOaW+EKruU+/TtmLbi2v8Jt+qK/pQ/40C/1kt8tDrC1btjiN7myhuK3rXi8rtyv1KfuS33VtquPuWJ7xCPY5IN1+DN3WuZrzNXr5Zcr/qwGCIiVaA9ixgzIHKByjDk2P0XgkOJnnzmKh28PMFpjMY8v/YnDghMPkTgvjmyNnZuCsRQXfsCUhTE24+kPbBmfPjYURruao+Ndu5IT+RGDFnvwOsa1fhXLET7tsyV3YlgH5oiB0ImnrXbUWduOYzeyNrRwhz990bK21j9xsI5rbPDJGrhmjDzTV+2fWbtSV7gmLjmIxRjoKePDHRxZH/dL1ViugWdwqE2u6RNTO3Ov8ff8stZ18M01vtVurkVDxMsxbNUba5kTE3PwwW8r1/QnDvGzBp4ynrnauuYI+x4W1+qTmPwYZ5044F8bWnOlzlzTYgMfaVf7q+uoAf6q/7pPrFWNU6/B1WEjP+qAnvBFPGLIe9UZfuVdm6wj5ynXWUf8kQt8mr/4mOOnRuq8dtniP3MBM2N5lmPPGHHJy1pyTX3Tn5jlOufsG8OcHefa3Bgjb671Rcs1ObqG1rrRkjv45Pro5i3/yXHdK6u5o3NsE1uXq3jNS3vqQGzwM1axdb6wYw2/o31mnL2WGqgHuIZH7emrC/Ks9Vu9N5pHzd842e7ZghMctNbdMfcAvuSxxnNtxrM2R1oSlxwQL/dm+qx94sItMfb2UtpgJzbySZ+r9YcbbOUGzXd1TN/EVQf0+bm3tMNfYuWaOMTTpmutyxV7r2Iinv6tUeaaePe4rbitQacPMKgxYhLP3PTDOmJrR8t1PdNc77qtdqU+q/uyxug0Xuu6wiN6gAtylA99w1mNu3q9/HJl0SArnddkmEO0VbiCpVVo+DKx+uDjxuKwlCB8W/zEsNInJn6IRzEhsuaS4tYneTDuddeam5sEG8douzU5tpKTOBKzHGWMrTqRO7XKuLXvhtEfm7/jSbs8ROG046/GMA/Hrb+idjxbuawaIaeqs1xH/4q1WVd8kic8ZyxwgCfHOj7gcw9zh1eO9E0d66bv4mtvyzrie02r7y7HOmbd0WD68oE19YBv97k3ER98OvyJqetnPOc77EdYWON6OMOv17TmiJ4dx67WrHtQ1d52ZZ05VG27t+Ussel/q+3iaosmay7OmbvXtupYTNa5q4nnAPkQR36tS/Kq/7224kW/yYlrsavaVn/a0Lq/aHO89rvc8Ff3RF1HzmDJcXlN7Ylj79zDBzjqXk/f9FdzF0euF0fmZQ0rNrAk9x028q/nYOrA2GI5qwfW4Q8/7kGfI4hLnx+cZE7Yr94b5eRII/jcs1UL4DFv91D63vJBDubqenk70pJ2rqP1HM7YOW9/VU/a25pH5X21/l3Nrrhfds9X8rOnv07f5mq7ypXxXGdrzurCs9V52y1unbc1TurDumdduj3yiHuRuPP+Zhwxr+5L7W3NNTnjfKp7Rnta8SQXjFOHlWe69HXUX3654uCqNy+ck0hNphszKZLIQ3pLVGmPPw8ocNR4R0kyz3rikgOt/nKtQs8xYjGeY7Uv1iyYY7TVvl6v5NTh6GLs1ekoD8WKX+oCVx1PaZe5dPzlPP2ah/Xf48k8k199HWnhEWu7PGte4Ovsjm4WrMOGtTxU5cHBnA8+lQtrsnWzcF0ecvjbwtlhNwZzYDSWD7FVK2lvXHFU/GLpWtfoI20qziMsqTNqVvUj5iM7sBA7sdR+57+uU/+1zp1uxVbj1OsurjaVL8dpt/yzhh9nizU4qgn2nLNVIxlvpY8f8uGGjOby4T7Xa5djXT7ymvXNNfatkw8ptORfNa69LVjB4jXtHg7m0jb7crxng/1q7mdwwDU/8cAX9fR6C5sxrDv2nR61O6qD8WxZhz+uxcAeYtyHI2vMmOtoV++Nrl/BtmfbaaGz78bAu1pX12e+9KsOfcjGPnmp/dW4dV2HA5vV+hM3c2AtGrTeNZ7X2LC2u19iQ92rD7GiHf1kq7YqnrShv8pVVw/X4yPP1hqDa/Ee4eniuJY2fVe+H3EvIt5KffKsEWO3f5yj9UyGO/Z+njlpl325qDxWLlhzFD/9dv3ll6tORAKowuW6jplULbBiqOPar5DQJdaN6dNDuNqsEswNFiGSIzcc1tW1xqp51Zhc17WdDbGwy7kuBjaVe9Z069MXfWuBD35bL6Ha1dxYU+uFDXwbX9/G1pfXXWue1Tc+u1zTx5m1K3XFd5en+WVsxtj4bnoeDFm79YCYa8lVbXHw6MN85LG2zKcf+66rHDLf5dONbdWqyx2/2icmceSYGLda16xgP4MFW34Zt8PsmHWjFh7oubb2V9ZpU/nocta2xqnXXV7adHV1bst/t6bDpx/sK697mFzXtfjK39bDUBezy0fcle8amxs3Po2Hr+6+gZ+98w2/eziYq7G9XsW6mvsZHD5oee7w4CoX4BNb1ib7yW9Xe7GknXnvtaxLbXE28stzVmyV244nYuGPOeO6fgXbnm31i//OvhvDtsMrb2JNn5mvPtUs9zZ4yhfk9JH91bir98vV+mOXdbzifkle5LP1S86SA/mjzfHaX+Wqq5vYOgyr3FY8XZytXMCesV1bc3Z9Z1vjb12ztnuekQNqX9d2+6fawBMaRzfkwznFmHarPFYuWL8S3zhd+zIvVytfbklAArtk9sYgmcNFAfmglGtWCMYPIqGgFrETn2NVqBnP/kpOXaG7GPgiT33bduuds5Ub/PJDsKxz3jbtHKOt/HEzxkdyUHHoy5t4+rNvntg6RouvDl/arK5drSu+a55iYTxj84DmgcIc/ZpD2nd9dAqHrGXefDr9dusdc10Xv8unG7NW+rS1pu4Hx7UntmPiyAc157Za16xgP4Ol00+HGVw+wMEL9cj9v4V7ZZ3xVs4/bffiMdfl5Zqurs5t+e/WWBP/kqUPWuzBkGNcw1uOrfT1hbbgnOvUkz6085q2y0fcnY9cS5+ae5aCnf2cNivn2xEOMKbP7Iv1aK+s5r7HR8UB3/ilvn4hzv0ttpVzqNOjWFbqkJywLrUFN+C0TtiKreZU7fSLP+a8dv0Ktj3b6jexpe8tH2DKXFkvb2JNnzVfaodu8cOPB8+9+6w+V+KihZXnIHySw1YeycMj7pfEJx/ODvNbaa3JI/ee2GrdznBbc9nTR3LdxXbtlfeiiq8+z4gj969ruv3jXG3hTPzW+gyPaKTW4Uz8iofr5ZcrAwE4HbF568bRNu0glQRqgdnsnfi1r4c3vn3QTP9HfQ4WfUE+uOtBA46aC0VnXP8WMHlwI2ZxHDvanPhdyanj1BjJKXmCtz4IwFknYPOiNTf9WYP6AFXt9EHc5IDrurbmYQ7WRl/ZapO+mccXv7St/dW15nRUV/zXPMXCeMYH215eaWsfHB4OjsFh+ka71UbbvRYfVQPuv8ottpVbYiYOY/mAU3PVvmoRH2fxr2I/wpL17fSjDtwD5NjVxNz32pV18l/5cO/ljU5sezGZIy800tnBI366Of1n7tRuaw0x6lmsfc1H31ULHY4cI7Y6pHbol7jVT9q53phe03oeZI45n321hB/O1ZyjT8yj8w27PRzMVb95TYzKZc7TX81dHJk7+mJ9h4O4njXdvHMVT71e3Wd1XXcNDvXAPJoAf5491rhiXr03un7l3r1nC06wZR7a0zruWOI1r8wVe2y2fOZ6fNa9abyjFv9HccWR52mXB7HwteUvecAm63iEk3lw1P1R75fU/RYu4KH6rphWuBIntpmvZ2XWLW1XuK14rEuOW5eMzTx4MvYt96L6DJ1x6a/WByz1TD96Zu30wv1BrcnFCo+VC7Djh/Ga0+r18suVN3vFBmBE3BGguN0oHOACrQXOJHyQwIaDG6KSGGy9GeRNjTh5XZMHs4Qzh09IA3v698atYCgOY9hq5w3XgxdB4B+bxGAM4tIHo3xUfCs5VRz4wB9x068bybjEFl/HfWKxbtaBOccyhmNp50GhPlhLDZNjOOvyYAw7eccXB6KbreMH/6zhlznU/ura1bp2eRKzy6vWpmLrrj0Q5Jt45Jj6lX81iB/s06bzrQ7St2P4zDXkQ/2sSe6FtKOPxqy19vKZenCd+NUP6/EvLu2yFac28OJYYt/DQoz02emnYsMeXrs80lfXX12HHVqRD8+/Wk/zdV90MRnLHODDF4Mt7erHvWKu1NKYlTvWMJbnHv6rbvTNHBohJzAxTp5i0y5b7PCPT8f1w5h+Ojvsxc4a16Of1X2pX3B3Z6eaF8fW+dbhkOvUrhizzVoyTqzcK2JMjrDbi8kcNlnfDocY4cscO2xH59DKPoNf4lTNZzzzqrlWG3HXnDIG+fCTp6yvnKpVNOO5U2Pt2YKzctfpTx9qWlzwVnMVb2q6yxeN6K9i3rtOLGlX43q+W3vwaFN5X6k/sVb3ZeLyDLI+4CBe6kh+wEd+rKfe2CSP6Zf+s/YeOWTsM9zmOvrWIPNSc9YKO+bhu56/cMI4nGEHT57bGUtOrTVxM6a2K/VZ3Zf6tAUr2Hzm0I98rvIoF+Sgb9pu/+b8UX/55QpHgCYZi0JSFgNBGwwB5zjFNXEA09eW1sNE37S5EdKWPv6IBw5sweWmqbaIBzt+FkEBut41zOtXnIoj83N94jRGChic2IjROF27l5PxiCEOsBqT1tzwjfAVBnPm0sV1jPj6A6/+Mjb9LTvWuF4OqHPyCS75xN7Y1C7rhHbUCDjSN/FZl/b1gNDv2bXmSjz64Ko5JRbzdB221gcMOa4fWvBu6ZW8mc84XNeDCx7lNvGae9cSU0y5RmzMuQ7u9I9+uLZ2HR7mGdcXa7HXX205lM0RW+ta7bw+i71isVb6y3n6jG9pO8fNj1Ze9Fnb1XXmJh+08JMaAb+xma+x8pp1nr+01IZ5/eMna51rfaAQA3PYc93VKHWIHVwaL/3SZzzPJTBUXeca9Zd48WEetFx3dh1f2OLLH9cZr+uTDxx2cyvn2xYOcwBLx2vG29srq7nrr9YXrchHhwP/W1rBZ9afnLBN3a7uM7gExxbXxMK3WLcwpT6wrft+9d4IF+TDb+8cA1dnm1jhELs9/ekDzHDGvnAPm+sZLVUe5A0sXZ3Bx++Mnswx624ceV+tP7H1pw9bfKSmxEq7er+sdcfnyv5/5N4DPznCX62JXOxxmzzQ39KHPNIaB7+Oqy98wDPXztPCQce/Zwmagd+Kh+tb67P6zOoekceKdYVHc8WHunUdY+7fLr+9sVMvV3uOZq7/P/YcXr4mL97c6gHueB5oo5HX1Qg3FQ56D11r5fjWwev82XX6n/Z1NfFVaoOGefDYewH+Kly8W57cX3iBqLh9aHy1mnpfnPvlnHtVs+96PS9X/+eLzbsWcHC/5mHEjW3rKywP692Nb2r5erX0a2BXG79qdnO3rut8zdjr6eKz1oS/0viXGtr5CPR+2uMFhS/u/NWg6pS/MDBXX2Kq3bOv5375fjp7tkbeLd5LvVz5TwM83N+NzME7B4QaQMP+mZkvwIzTOt7d+Fz7zu1ny88ziYfM/NrrP+PZOqtuXffOtf/K2NnrWx9T3okX9MzHHz8cpObfKY8jrP5zoiO7d5z3L47UMV+iOJMYe0Wdet/go9RXul++qr68f23d314V9yvhmper+cvV//N165UE+s5YfFDhwcsfX+g4uN45rz3s3iQ/U4587fVhzDrykOK/X9/i49Z1W/5m/HU/3nyWlyv/4so/d/1Me7juHfdzHf8s17xUca/J/56EmnI++/Lyarl+xfvlq9VAPPNydf+95qVerizstPcXdjgcDkcDo4HRwGhgNDAaGA2MBkYDz9XAvFzNX64+7V9R5jB57mEyfA/fo4HRwGhgNDAaGA18dQ3My9W8XM3L1WhgNDAaGA2MBkYDo4HRwGhgNHCBBubl6gISv/ob+uQ/X6lGA6OB0cBoYDQwGhgNjAZGA//ft3m5mper+UoxGhgNjAZGA6OB0cBoYDQwGhgNXKCBebm6gMR5S58vNaOB0cBoYDQwGhgNjAZGA6OB0cC8XM3L1XylGA2MBkYDo4HRwGhgNDAaGA2MBi7QwLxcXUDifKWYrxSjgdHAaGA0MBoYDYwGRgOjgdHAvFzNy9V8pRgNjAZGA6OB0cBoYDQwGhgNjAYu0MC8XF1A4nylmK8Uo4HRwGhgNDAaGA2MBkYDo4HRwLxczcvVfKUYDYwGRgOjgdHAaGA0MBoYDYwGLtDAvFxdQOJ8pZivFKOB0cBoYDQwGhgNjAZGA6OB0cC8XM3L1XylGA2MBkYDo4HRwGhgNDAaGA2MBi7QwLxcXUDifKWYrxSjgdHAaGA0MBoYDYwGXlcD33333bcff/zxG+3Uab1OcPb999+/PGevVN+Xe7n69ddfv/3777/f/vrrr5cq5E8//fQfXO8gsDk01g+N4Wq4Gg2MBkYDvQa43/3999//ufdxDxyeep6Gl/fghedL9DwvV+v14sWKZ/Iffvjh5ff/K9X35V6uPKRe7eUKXL+R5FDnAAAgAElEQVT//vt/fmKcdn2DDlfP5YqDkD3EociBM/w/l//he/j+TBrgDJmXq9H0O2uaFyperN7hJeGVeP7zzz+//fzzzy//DPFq9b385coHOh7qVgWC2LGniKzhIP+ILwu8of/xxx//wQKef/755z/XuRnBaBGZvxInAsbnRz0Qk6dfKa3Fag2tG9jh8cw6bG/NnXXE5MX3bMxH26PjW/m4Fxux4Yb2llreG9/11OWRer5Fs9aFVpzPbs/q3a+HnE/PxroXL/O4Zd/v+f7IuY86V3777bf/7JePOjfk3PsgNWWPwYdzn7md8+R1XyBv2RvUk73EPZC/wt76gWArtveS7uzL50RwPGLfkI/P3B2GvZjyUm0SN/1ffvnlMuyeq1c9N19V38qB1/fgvfzlClAWW4B7rYWkgKz7qAceSSS+hQdT92DIjce/Yl394Mpm6WLucXjlHLlvbbqjOHsHzdFa5s/mzmHCyyi146XwykNgBe+Rzb18HPlfmUenjzrYj+K7p7gxuaeO1twyf1az2PvweOvN9hacdc0ZvYPZG/xHnZEVv9fW+ezN3fWv1n70uWKdP4pP78W0V39AfFSt/YhDy14BO7q8Jd6cJ6//grWyN6ijzwVXPFt2+3LrHk9sYvqcSJ+xW/S4tcbYtz73bD3nPfL5Vk62cjozfnV9u9j34H3IyxUvHBSuA1vHEIiHIGRd/bJS43XXvv2yEeo8Y/kww6ZOO/pXPrzi/yNfrsh/a9NVbm69hs+uzmdzx4fcq52rD7CVHMGRGllZ8wwb9pV76xnxagwOppWbYF23da0+uvlbNMvLTafDzv8jxsznjHZY84gb9dn8wAzn9Xcml7Mxn2X/0eeK3F65d1a5q+co58etD2+rMe+1Yx/DGdh9AKaGR/cC918Xf86T13zBOrM3sPX+p65rrfc0UG3PxCZuPiey9sp9RD5oFL1XnPdcw0fivvL51ufsq861lfrew8W9eD/85eqe5K9ai4AQqg/qV/m9xY+bHeHcsv6KNbfcWM7E5eGwe6h9hdzP5IGth9xH1uss5ne198Gpw/9ozXYx7x17R713OZsHbTc/Y+ceVDlL0PPweY63szqb8+Sx/J6tx4r91XtjTwMVz9Wxq/8z17y8vdsZwXM2f0k8k+dH2t6Ld+nlipcO/1sgvhJRWP/bHNr6UsKDM4XnwdMXF//5ViWLGwg2+q/+XN/584GWLwKu50+axK1x9q5Zy2/Pxjn+3S4b0vxZ59cRbJIr8MGXtjU3fWbrg4q5MUfu/HKMvuPYeE1fLtI+ecx4XR+/9eXnKG83O2u3HgrghhcrcdsaK3NP3pjvakp+ckvO5Jh2FRP2ctP5JGaHD5zJpZzlPjAXbWts1tyrDXy4p8yDePLHPhCHGGtMx2nhe2/vpW328ek/qyMeWNgT2hxpRbvKN7WEN+ezJUdzy1YbxrABm7Z1v53hR11Vn+TaYUwtJj76W/vhjN6POK16O9J6rWFiJmd57drMFZ48W8zTvGru1kX/tPaJUzGxF9EIc/o0xt4+qJiTm9SED1bgJAfXYZ/6BmOeK2e1od9sk0Pikyv5Y8Oc3GUdc49hJ8bkMHOVK+3wCXZxmAfj+VU9sWGDT9eA0bMHuzynsTUH7Y/aPX/kxTzapy/+xKP/o5ppZ6s/fObPecaMr23N78x54h7Br9o1bq0rGLIG2tlaV7HaukdqXcCf+sX+lc4T8dvW3G/ZG/iCj737m3WVV1tx1BZc2Mh/t9dcY43dK5kDNu5JMLhmz582tp5dXmdbY5uXLbbu/YzP+JEuxI0vfBhXf4znWeI8mOCim9OGVr7w4z7PveMYtvX5AWx5/iSf5EX99N/ticSxijfX1P7Sy5WJkDAikSAAQyqAAaNzRUuLDXOOca0dflirWGm5JoY2tJJLqz+LTOt6xS++9LHXJy/w7dkwR+FSPGABK2OZP+OVKzAyBt69ONqRi3bGzbHkFDtzp88csdKecWug362WtcmH8eV1K2/FbD22/OM7/Wtn7mjAWGwg8FB77Wi5XtGOmIgnLrkyBv6MLWfmSIysbWKw33HNnLGNy9g92mA9euOHH67NhT6/7tCtuWFH7iv86deWuKyDf3jhh6at56pWrKs1wC9nifwbL9uaa85Rg8QlzrwBYL/KD7as5cca8hQjcTK2uKwzLTZykrbZty7YyoO8pN5XOVVvR1onF2JSN2tIPDg0h8SZffkDJ+Nw4hmYa8mn+rMm8kJrnxzBlLpKTHJljKN9kJjp1xo5nxgYg5PcX+ZB3q6hXdVGrrGPL3I1l5qbWImhjbxTY/3QglUOHXe9axnHF/XQxpaxvCdVbJ0v6sg6Yqtbc0hfxABbF9f4tHv+iAGmvf23WrOMSd/c6jjXYE49ql14THvrkmNygf8cV8+0+CMnsBML/WsrLutHC5ZaZ+1tjYutdXn180TstlV/5iQXcnO0N8i/7jGu0ZOxaPWXY1t9bcWCnWdujjFOHH5ZZ+JTc/0zX2vaxdA+2719xRz8EJs1nmH4Th/YZPzV+wzruj3NWN3/xpOnzN+5bLt9xhp8J8f6U+esg084Nm/8uj/J0/W0+MvcEwN9/R/hrevyevnlSkCATQeCMEnmAA34BGaBTTB9ZN+1OabgkjQPjRSMRcix9NP1XbNHdLfOMbHVvMifQ1Q7WmJQ/ByrfXmuOeCvjhmbHBA84tJfZ99xq322rD3iw9iZt9hzLP3ax3fn3/VVY3CW9ugAjNVOjaFJY+kzx5hjfR4E5uM6WjV2lE/HNeuNXddjf4s23Gt5I0689Ls8xMFctc9rOAZbjtU+uI80XNeIKXlAr8l/XdNd66ebA3fqHxsfXNK+87HFD3yAs1ufNcAu9Ym9h3qurX3jVh1Xvdd1XJtHcqq/I61rl2s9B/HbxWNsa9+py/TXxcCHXHkjN3d0RQ3BkfHhgrqaLxiMlzXINV1/Czv+E3e3Fly1vlyvaKP6E0feL6uNufoCy7x81frIZ/pwfebl2ZiciYWW9V5XbORf9ypjK2cY+LBNfF2/8+fDUmpiZV/hH3+1ZjWuPNVx1199nhhPvonjPknOu5qu5K0v95R5vep5Ij7bLf05TyuHK3sj19HvtKi/attda5v7Ss5zrDuftDuqcxejw9JpRDu0jx+vadFy3Q97Plzb4Vk5S1xvS/x6XjhXW886dczZU+9p9XkXH67LOOJPvWDr/SbPw8RxBm+uy/7pl6taNEWT452ItUsRJhD73VoJ0oZ2y18nrFzX9VcO4m4dY2KreXU4utyqX/NKPrHp/BmbOcSQQunsV+IbC9uKLa+NnXmLPcdyjX18d/5dX3Ov9m7uumG69Y5VTPCTGMxHjLT4x66uTRv6HdeM78XucsRP9Z3X3ctCztPv8hBHjVnXwscRhpUbdfUrJnn0EDzCs+WnjnMN7qwnY8ZN+25si5+qu/RpLox1dmcehioPnb/MYQuHeSQ2bCs3nd3Ky9XRvsu4XQy5Ag8/9OyDsy9RNU+4wJZ5b7Ar+6D64ZozMl+I8If/zjbHKn/MdTVSW8lD+qEvh3s2W37AsaKVbr319YEFLNjlg8gWNnKF/8xlCwvjabfa3/JX62NuR37xV9fWNXu+uvWdfTem9pnLmKu2nbY+43mS3NDf0l/ayWHdP51+ch19eMUux/WXY1t9bTO2tc6xrfOJ2Mzpv6tzF0P7bLu1zndccPaxRhvaPR/adXhWzhLX03q/r89raVP7agGMYMh5/eVZ5jy5Z54dfmy3xpnT/xm8xs/2w1+uECUHPIRAjL8EKRE51oma+U5Yua7rsyZvup2NY3xdoajg5YYj3txc2HY4zFFfXWteVVCdv44XfXb2K/HFjq2+aFfyFnvlIv3Qx3f1z7jra+7V3rxrnG69Y9UWfhKDdj5scIDUh7Gah9cd15lPF7vLET/67NrKQ2cjNzlnbjUm40d7L/3Q38o17Y60Ip7KS/ro+l1u2tV6Mt7Zd2Piqfx0fLs+sTvmwz+HM2eDWhJjbc/EPeIU3/pLbIxXbtA2+NA3fWzAih1xKk6vzbP67+J2Y/jpOGW8YjQm9sx5vecjbbo+9cEX9dGPNUt7xngIgh/sO2xdHlv8pG9tcqz2tak8g4O5tD+Dg5zyJYm+XODTuOZc24y7hYXxtFvtb/kjv/Qhxhyjv1KzumbLF3bgWYnd+VD7zGXMVVvt1OZnPU+SG/rmXcfzWpuVvYHN0f1Nfxljq69txrbWOYZu0E/3S03Rz2vidjE6PN1a7ZjLvY2OwKKe0q7GX7nPsP7oLDEGLTVYfb7OdWADd70nyTlcpT197DOnLT63xu/BW7F86MsVb6eIoBNmApWIHJPgXMs85Hak59ra9yZai1jtiAVecDsnthUcisW1XWteNYcuL2N3fjr7lfj4qgJdzVvslYuKDxy5AZx3fc292pt3/bLQrXesYqo5goGXZurLHD8OkHz4EGdtsa2YsdmLXe1XaoMN+Gr8vJabHBNHxlzde+mHvrzUca+JdbRHxJP7yPV7bZeb9uCqmursuzHxJD/4rbpjzPWsMTYtZ4jaoeWG4otL2mV/NS52R5ziV38VW8cNe0e8zIO/7qfESn8r9y5uN4aPjlPGxVBjYs9cjjMG9hxb6VMPfLHP2dfdDd+XqrwXsIaYGaPLY4ufXKfN3rmiTVdH5tLfGRzUl1xoedCqORk3c89Y2cdPh4XxtFvtb/nbwph+V2uWa+ibbx3nGjwrsTsfar/yc8b2K5wnlXf5uWJvrN7fjFmxdNfa5r601jmGbrqzpfrEbktj6a+u47pbqx37l/homB99sDtvW30Qc+U+w/qjs8QYtPjs4qdN7XM+ua/ZC3kvlfNH/eXqFrwVP9d3v1z5Vpw3ZopGUTOghKRosKkEdWsV9ZE/5vF5tpBsxK114NEffQqdOMSWeW3h6HJLX/TlyZjOg4/1XtP6tTnH7Hf2YGdcm622rl3NW+yVixoHf93Dketr7thn7hy+YCT/9N1pUZ8VU82R+ZUDMePZxxcHgde2e7G7HPHj2q5Va3sPP9pkvh6EGZNYK3uv4qAOezwxv7JHiF/rV2PVa3Prbr74S42wVvv049gRP6zB35bPXI/Ps7ngX32wPjHWuFyvcKq/xIbfyg03Kvbfno4Sj339V914fmZcbWtuaKdyin/2DzgrJuyr3qxhtRXnXksc/FGv+nIv5ryX4avyx1itEWPiSh4qFmNwVtU5r7f8gKPyCQ7GXUtLfRjrcJC7HNR5z9U9bMZZxaL9Ubvlr2pFbvQnnys1c42tvp51nhjP+LTiz7rS/wrnSfKQXOzpTw6rdqt+uK7nVLdX9NdpoOLTNmNbvxzzPDw6nzo8e3s38bC23hOcZ26Pw7TDNq+rzy5n7ffOEm3AQS2OuNCellqAg/sUfe5VdT8wVu8LxKh138KPP2zzpY3Yt+BN7Nk//XJFQgqJliRrQbiuwAWdRZcgE0SU3VqJyALpL2+QkpsPugpYzJl89o2b/twkFAhbHwDciPjUfx7u4qiCMIb5Znz7PgjXg4G18GVsMOnPtdnu2e/FZ47asV5/q3lbk6yxPrL1ACFX4lmvrdzRXN1IlXe1mIcFMTtMXY7yucdN5pB9uabu1MfadbHv0QZr0QA5ipO85Q9Mcqj2wOP+ERd2q3sv80z/6Ys8vV7VCvboDLz4JR9qsKcdczMWecFJV098mjc25qGPI36w73RXcWNHPfRnnJVWLObjmhp3ldNObx03aAbukxdjH7Vgy3No6wzMuPT5wRHr6x4lppjUtvbgrJpY2Qdbecg5OIiRduwV4rmfmKc22OZ5yBrG+OX6Ths5bx9frPUsJx9iWo/OD3NgqzrTVo7IDw6xpW9MW+1rPs57llEPxuCAfck6bbawsJa4yatYXNu1W/7gCK3lGvInhtydqVn6oa8WzA3fYAE/MSpHxsZGX/qwLuDRTr/aOt6tT1s4059rV1qxpC/WVa1+1HlCXpXTmhfzV+yN1ftb5Qzesz6JD17rvurOXNYTn1z0RQvvxNOn/lb3ruto9/YVGPWZa2r/Vl3oR/x7NQWn56nr9lr2D9x5/mBrnHw250wiT+awgV9wsDbPH+3AYS18rndt4jmLN9fW/umXK8VPYiSCGDMZDxDmKR4BPQAZ48c14xCIDWP4RXiSgW9sJAIbx6o/hcS8MTycFGEWq5LANTlAtnjEhB/xUhz9YQdW/BpTu8ShIDpeKg7W51rzwo45scEV13KVN2Z9Vntwao8f7WprDHKSw5W8iScPtFxX317DtTzSYsuvy90bAT5zk+IDfK6hpX6pxS1MXY41vrlgm3Uwh2xZq08wgWErtnjxf0YbxsMv9Rcf8Tw0tIEH5pMT7c0FPYh5a+/pr7b4cC0x0JW8r2hFf+CUjxWeWWdu2HujEgs5qtnu3Mi4R/x0uiNveQQ3tcBnjjtP6z41brasNXdsrUsXd4XTLb113FCr1JCYwQO/ibP2iePexXc9A82DdfTNkbyI69ouDvVMXOqyYuAaHGnb7YNuHWNgAnc3j24Sc+br+dPVKDXAetZ1/hmDh/QBJ+xH5rb8iIlaeW7oS06pB3P4wq7DgZZSbxUj2ODSeNY47ZxLLKzhmh9rtBeb113b+Ut+9Ff3tByv1KyLy9izzpOKndjgz9zdO6kBOaVF7+Zc89nylTzSZ91HnSdogXwr9ry+am+cub91GkhM9LMm5ADf/LI+WRv6yX13luV5uLJ3E5OYc8x+7sXEBx5iYpfYzujCGLRHZ4nz3qdzbddPPsXEWO4R9pFrOcPhzRxZQ0znabFhXu3RZ013/p/Fm3G6/umXqw5U53jG3u///fwr14wDyQ2dPHhQ1U2bNtP/ulrnZsWNMw999OC4D4avpBEeFMDljVZsPkDQOjbt59K2D51T19esq+fGZzxPeMDt7rGjxfNa9Kz2o4wc+jJC6xit4zzP5Pg9/aOzhBfAj77/+XJVeeryvhrvvFz9n//z1Y7sGTu/6d+RMw4evmh0G5CvLszVw+od8xzM1+vZL9IdtxzWR19qu3WPHgNT95GMBzu0Xh/sHo1n/F+vy+SUh1rPNvrz8vxYvpP7s/3Pep54tqjDs7yM/X9rVj7ryxIvr+zxji8+At77cnvmLNm6z3TYHjV25uXqarzLL1c+ZPLA8Cgixu9/b6BX5IPNxQPYK2K7FRMHFRur/rMLbgSMbR1Wt8abda+v89UaoRH2Aze5/OsmD7BXH9armI7s0DPY8p9rgJ0bL+PshyMfj5x/hTPGunYvoY/M/RG+4ZPa8uM8e0SM8XnNmabuPtt5wj76ii/1jzzLfHHghdwzuxtjznH0dc9eXT1L/Mta3hPviXvrWt5XuD/nva7z9Qi8Sy9X/kkRkPy+4ibpCvIVxx55WHwkn2jch0t17r/N9eD6SHwT+5qHl0fwyMHtvlA7PMS+6jmJnnl4Q9/i5aWqPtA9gqsVn3K5YvsoGx9yeSh5VIxn+eVco87w+tEPO8/K+Z3jzHnyumf9WV09+izjHsO9hv3tixNnlmOe75wBzp/NIe1XzxLy5pdrn933hQkOuL/t/eujR+Bderl6NikT7/McLlPLqeVoYDQwGhgNjAZGA6OB0cBX0cC8XM1/c/WhXxe+ykabPOemMhoYDYwGRgOjgdHAaODza2Berublal6uRgOjgdHAaGA0MBoYDYwGRgOjgQs0MC9XF5A4XyE+/1eIqfHUeDQwGhgNjAZGA6OB0cBo4EgD83I1L1fzlWI0MBoYDYwGRgOjgdHAaGA0MBq4QAPzcnUBiUdvsDM/XzlGA6OB0cBoYDQwGhgNjAZGA59fA/NyNS9X85ViNDAaGA2MBkYDo4HRwGhgNDAauEAD83J1AYnzFeLzf4WYGk+NRwOjgdHAaGA0MBoYDYwGjjQwL1fzcjVfKUYDo4HRwGhgNDAaGA2MBkYDo4ELNDAvVxeQePQGO/PzlWM0MBoYDYwGRgOjgdHAaGA08Pk1MC9X83I1XylGA6OB0cBoYDQwGhgNjAZGA6OBCzQwL1cXkDhfIT7/V4ip8dR4NDAaGA2MBkYDo4HRwGjgSAPzcjUvV/OVYjQwGhgNjAZGA6OB0cBoYDQwGrhAA/NydQGJR2+wMz9fOUYDo4HRwGhgNDAaGA2MBkYDn18DD3m5+vXXX7/9+++/3/78889v33///bdffvnl288//zxvw/Mi91QN/PTTT9/++eefb3///fe3H3/88dsPP/zw7ffff38qhjlEP/8hOjWeGo8GRgOjgdHAaGA0oAYuf7niZeqPP/749t1333377bff/u9LlgGnHfE9SwO83KNDXu59yUKfz4o/cUbro4HRwGjg82nAD8h//fXX3E/mo/FoYDTw/2jg8peruZF8vhvJ1HRqOhoYDYwGRgNXaIB/xcK/bOFfFLz7x655uZo9ccWeGB+fT0cPe7nyAOWvV6vCcQ1/bVhds2XHoccBzm/L5hXHvenwz9du4cG/FuKHfwr3Cjnyz/HAw1+SVvGQOxzwF6e9ddjgm1/nm9j4eMWbINj3cPHwscIb/GDHP4PsODgaY9/BET74Intkvzr/KL8Z39ypc45/VJ+anTnzOpzUAT+3ngGdzyvGnsk19VT/e5p0f8PZFTk+w4dnVpcXeeydd0f42HN579vTEWests+8V3DWGPuZcZM78z6jG7SW9aF+t9yjE8f0//ehGm7VxmfgxbMJrT1KJ7c87706z6t70/vRrc89j9bYQ16u/G9dfLiiXUkEUrnxrNiu2FikFdtXsmFTgp0b4y2b0g33UTeu5BL8HJjksorHNXCw8mXTh5WMS5+1xOafBV6tLfyjaw4qfFMzfqv6JUfW7u0NbY4ettQLudKvPKxcs2fB0z3wrazfsnmUX+OhKbT1Cjdlc13RrPi3Wmt66xmw5fee8WdzDY97mmR/eE6uni335H/FWs8MzmjwV5/ke7Tf6xqvOXvYB54p+Pds7PjRnvNRH89q0fe9HyHuxYp24HvFD1yyF72XXH1OrmD47DY+N1KXd88VvfjswX7mP5V5VE5nn/fegeeVvek98p7nnqwJNSMu/tzf1O3W+/lDXq4A6EMeLYdSJtH1seOg624Cnf3KmG+2K7avZnP0YLGHF2FczeVevL05sGw9SGyt87BA7Fs2OW6+OUafh4d80EhdVtuz12Dzvy3M/6ZL3R/5c81RjmcetuCBnI9id/PsO2Lho5s/GmNd91B4r9+juMzDIZq5FftKjBUb9NBxsLK2s7nnDOj8XTH2aK7VC1rMX8cre+js2XIFB/f44Ay68h4nFriAL887x2m5/9aYnFNweuuDQ/q/pQ8PR2ffLX7PrCF/OFtZw9kit+Du9Lji56wNcT76XDuL+R57uOUc5QXgHj8fvZZzSb2Ahfty3YOMo79uvMO/pQX0ccYPvl+F5y3cZ/fmrc89yTM1oxacicZnLG3O9B/ycnUGgLaQs/ISpv1KK0Ertq9oww2I31lst2y2szEeaY8OqN1qDPNdtX8FO3JcORA4fM5wcWtuHCrEuvVGjk47nPf6vTWfZ6/zRShvqFdguPUMuCL2K/i4R5OvgP9ZGDhP+OL6rHifIc6rPx/wADz6/99/NvgZNJc5+C8dVl6u9rTg88+Kn4z/0f29/F99b65wd+rliiJyiLPh6y8Lm3Yc+DxEIo4tQMxhx9e3LRvG+dqGnQcOxREPbf2rgQXCPxhYx/p8APLhj7nMwbW0xKa1zzU++MIiD8zt5biX19Ycb83435rfGq+b7WyO8GheyYlcJw8VQ67Fh1zT6pMa1HVewyF25OBYttZSHYAJPKxJO/pgyRrR36tRYkw9WQdi5AsR+uPh17zwrwatQcXEtfXQtrNxDN/kh615knvyw5x85HjWq663LsYRE+tzXxFzjzP8JgdywbrM9civubku1+ITfGKkFTd+zRMO8qzBF7+sK2tZI1/M1/zIKXVjTtbC2NnqM8eu6Ku9M74elS9+k5fkzr+cwBHcwiGYPXcZZ+1eHrmf8GHucFvX7dW9xvXMsI74rf4ytna2XXzX61s9ucZWu6op9gwxnadVx/Ca40d9fBPviF/9sAeoi5jzrNOGNjnGP5ita9rZrzniv2La0xB+Ui9yK5dd3YxNS3xzgltiyWmXIzzjO+OwnnXpl/4RZ1u48ad+2CPigxfi1jheJ3bzp8UXc46BK2251kfVNDGzftUPvsWXe1t/tb5ioD3SbF1LHOtpTHkiXvJp/GfgTQ2BBw7VEDkyn3/ZYA5cYrQ94p7czTt5zPrpK+ubtvJFyzhr6etXfvXjuOsY73je46DbR7W2iXFLF0f5sw4/e3uz4jTPrZa8rSW+uzM4bbZqu+W/ji+/XBHUAuKEQlKsSh7FYlyRaEciNbjXbpq9w0ZbvxDjz5cxYoCtHuQWiJZ1+HeMa336YCBmxpnP/FjHjzniEF8frq9i1v+trZwjojM+XJf5iDHH9nLkcMh6G58xeXCsttYTHDknrr18rGVdqx94zw2OvYeGNrTmhh6pO9esO8IuxuQJf1l/rs1RDeIfbGAhnn4Sk30wYev1Xgvf4EZb+OXngQgG1xIf28oba3O9PIDTtbTyzrg5qQHipW3Xr/xos+qXvLr6kLc61Je1ARd4vabl2honJuvFmPbWyHzBDA58+PCTfLvO3LKV4xy7oi/GvT3Txbk635UzT11WnuAcfuCyw8qYWvMMTd6rprfqXveUeGjRPT7JAz0ln+DNvVP38hZmxs2NNVx7ziZmYqEpcIAhcyPv9N/tgZzv+hV/Z+MY+Lo9U7mjDtXOfaivbMmp7hu51m5FQ9iu1k2/2aoj8nFf55kHTu2pHTnRqg/HrCe2q5zt4SZ394V7Wnzi6drUZc67v/GLH/LOejlvDPKBE2wyN+3Iew9fV1/zdV3iyz7xiJv6BzcxscN3l6e1SF/Pwgue1JB7jDHvxeTFfiW3DuMR9/o84k/fHUfMqSew6Mv7Jny5/tgTLyAAACAASURBVAzP5LbFAbVLn+TPGP75repiL39rTwsW/DrGtfHFmeetc9nKkfwYO9fVM6+uSX8r/eWXKxLjl04toGMmyrhjtIiMQmWhcx7BUpAc2+vjq9qDrYrcYlAY/YlFkhmX6Bxj3Jy5ORKz5qVPWuYrPzl/S//W4nbrzua4Zb+apxsu86ZmtW45T38rLnMerPWBBJ/gSl+MVT3ISz5Y5Rr6WxrGV+qDgwzd5vrUCVrAJufpo0Wwbu2Fao9tjaOPqjdsyTF9dDg6HuS9apy8a5z0bx+bzu6M386H62k5wMmR/Lfq5P6GX7CrN/1U3vGXNwvtaM1Nviu3zvtABybHrmqtVeJZ8W0ej8jX+HCXNVf/PlRoxz6oOJyz7faTNU7eHas6zbrrU+6yLvKSGLVzHa01PeK923Ps1+TF8wkdZQz0Wc+Ibg/kmq4v1uSps9saIyZ5OC/HyZFzW628Zl30s7WG8aohxqzHUd06vx0O7NAfsTIn8866qKOjurs2MXS4u9ocnSfps9MX8+a5VfNuP7k/PRPTT92fxL33XDSP7l7snG2XZ8exeT8SL5jAkzwxxr5mz6Ze0Du25kF7lvsjrem744g5dYfWtLXWVR+dj45n/HQcYAsHxrEemcOqvru1+hVTcr21N7uc9GPb+aO+8uNZlecDa/Gd+0B/K+2lL1cmn0UGhCSaSAJTBHVN2tR+R6bkpW03JpYUQzeGH9dLcBY649DHBvs6fs+1myaxrvjr1p3Ncct+NU8PHTmjZVPmDbPLZSsutvlwnWvNN8eIVeuh77qBch19DtF86OEgT19qNh8k9AE//FiPneO27hF5cXyr3eJbbeY6bOsewy6xYy9f8OF6uVlZ75psuzjMn/Hb+XC9nHpTlcd6bqQ9/uTZcdrEXfnt7PDRcasfdFlfgJ27t+1qteKzy4N1V+Rr/OqLcXhILsCRe8m12R7tp9TkUd3TVu4ylrz8/+z9PZYsNde1C/fm6wbNoBH0gSbQAux30ABMbExMPFw8XNx9xsVzrvPObz1LkYrMyKrKqmXkkEJav3NNKaSozX3fkoNX5Id86td+xwvyzzXHXpSYaAMZ9H2m7dZAznf9LqdObjVW4xDjW7lXe+RIPqyHui6rrM/IJ1aM79ZNG9musOjGa97YUe5W7p3uUdzVXsebzMP+Su4ozlvrKfFe2al16eRu7Yvm0L2LnbPt8uww7uLAxpXxai/3CMaIJ7FjrNb8Cuyx2/06jDIGsEm9Tr4b63DGzo5sV49dXnS6xt/FtJLv4tSOrfs57yJqVs+hqz2POOCvds6025crSeThBhLhNG/3ytQiCwrzNTj0b718q04HZleMbsxYMsZuDJ/o86v+eQYHD1XEw28l2+nvjK3wvKXb6Z3NcSW/m6ebDKQlXlrwuhX7yi96XT0ZN9+0bU26tuNh6lJb9MhBv/KeZ2Ps7NzCB67nmkm/XX9lr8MC2RoTcpWX4kUe+lzl1Omrk+1K7ozdzob6GSt+uxwYV77i4Hi1U/HlxeBhmD42qRdydUNmzi9eyQ/Gr/qt8rxl/xn57ux5vqRcO6x594BVzMZaa4Z85fQKj86Gsum3k3PMdUnduSjsvJfgLHwxX/eO5EPlmPGgy5zPtN0ayPmuX+PvZHIMeXLVPzFkHB1uqX/URxfcsAeG4qLODoc6/+bInLa6diXXjZt/2lGOto4fYYbsUdzVHvjcygWbK7lVnOg419nHHnmbm7JdfCl3dl/U/lEOt2TO1Kfm9Ui8q5iJJzFBrtZcPB/BPnHJ/ooLxtDVsMbR2ehwPsIAG8b1CM5iVePGdhfTSr7LyfiyZS/ifYR81RFD52qbdnb725crDLJZ8iLBsRcrwNWZAdavVoJSC40edrpxbXZtBQaZrhjdmLFkQbsxbWKjxuClKg9bxNTJVt0zz+KZse7od3pnc1zJn8kTvvAjZl64O3ms/GKjqyfj5pvYEKeHpRzf6cNp9PnLFAuyHrKMcfWXqxUPsIXdHRyMc4U3Plg7ytEiW9cScjUe8co4zGlHP33a7/wwd8ZuZ0P9jBW75rC716zsdPhi032OeThc/Zg3Fwdkcx907orWPGv+t2xfne/unpdrh/1xBxtjrdwjx8pp8aj16Gwom1h1csyzlrPm5FsvBmnHPjl6mSBW+jUPOaSOLXxnzmfabg3kfNcX87pPdbLyFRycr3GI207+2qgtlyjwzJh2OaT/tLmqW8rQX8l14zXv1E98djBD9yjutIds5TVj3W8lZz7VLjac23k/KVvt4Bd8MqYz+2LqYYva51jtd3nu1gdbV8arvbqOiadiUmsuno9gX7HxucOIOWPoalhz6Gx0OB9hgA1jor2XF2JV48ZmF9NKvssp46t99mz4iJ4fwcQwz/RV7+zz9uUK57cOqx4eqxwJkEh9ITp+NqEOzK4Y3VhXIMcqEXkxYCNBVbbmQkxVNvXu6VtwfJ7R7/SMeydHfHXyvsR387S+bDS7Ovqt+BKTedU5F0pixFi+2HNup68+XO6+vNeDAzbhMTyo/Ncf42djwp4XVO1YB2J0jHa1Lir24pi8EvfKD3Srfvq0jwyY+Gx7xi42yEFdWjmUsTJ+a69BL+0YR7WDv8wPbMljd0+inqt6p/97+12tdmxdma+26rqr2BkXeIAhbeWTMrXFVuW5NU4bjlXM5UnGKHbpy1zSJmNn16U24U7lmnO27k+VU/isOWMv+aiNW60+yCVl5bPj4FwPfvhjXD0xupWX8rTgWWuCH+1qM+uDHvM13926pX/7+sn6Mtfxo+aNnPq02tzBDNmjuNMestisMeovW+TqPs98F2fqHb2fsv4rO7Uu8qhyOH2u+uB8a31Vf9hibTCedt8iXvzht9aHPHa4ehb77nyROdsnpo4L8m6HY7s4H2GQNXmEF9ayy393ba7iFDNbYk7uEjdj1tj3ypk9T9urdvtyRbJ18+yMCoqbKABCtkpKdBnryNLZdQyAAKXG4kIENGW7MTfZBFGgkafPD/tsCDVui2DcyLJZdS9KSW8BiYvY+RmjBEsZ59THp2PEQ5w+d60vNWuAzJkcb8nf8m9M+iTfjMX5rj3Cw9pbJ/RZmDzjA3/axB9j1NFxbINfLjLla6s+dVU/ZayNLypsEgdcz3qpgw3muo1Ema4lB37qYYecGEs/YlPXBfHzS9sdP8zXfJTv9J3LNm0So+vjjF1tuDbRpV7kSu3SH33nkOMZGTBOfqhza90rJ/92OKJs1kE7tvIk17c1VUY7KeOc+uljZw+4Ml98E7M1pb7UCm6AtbHaWnN0kHX8qJXT1h78HaucXNWd8fShftbS2NImGHecSVurPjka80rG+hIfePAzNuZSr643699xI/XIEe7z02bnh3l8WJfV/gkeyMk77FP/xDL9G6dYIIe+NTnDIbFJX13d0r99sca3ONC6LyhHS46Vo9262cWsi1t77t/4Ja9cTxlT7RMj/tEBQ3mrXfGuetZDefS1Ze3R6ewwT3zIa1dcsybO3Wq72uHX2NA3NvlG/Izt1OfqeK0P9czc4BS1yDFrbtzM7WJv3O4LYLKqZ2JUuQCO4ATOxrbKYRfnI/2sySO8OMp/t/arOMXBVj7jkzFr5B7BmNg4hixyyVPt7bTblysXIUHmj4CSWAQE4SAhcrQEZ1IGJShJCOeOWu1i2w1LgjPGAkC/GyPOjD3jJj9t8xIhXkiPfAUXvymLHWU9gBCDBaQ1J/37LDlTxjkXjc+0+MF3jmU/64TcvTlis2JCzcwTfNPvqo+cNVnJ5Di4g1GHB3LwBXvIwD2exbnmy5yLFHlqk3ik366PvVUcyDNnLLfsW5e6Djq/OUYM6BI7PvhRAzcAZZFz3nWROvLSOJAVLzBJfWSw2+nrr7a5XogPm2ftpg1wJQ7XB3WsOSMPv4ydlueKMXGIDS3PxJ+1k8/oJmfUw3bdB9BBtmKRz3IzeaRN5cwxZZy7Zw94Rr67e55xg62YOnbUWkuwyTqKVdpSNusOTll34lUXOXyv+FjH1ZODR3ETl/LZsnYynroXdXzu1lvHn1U87M/YEBfiYS0mNnBN3hND3T+1TewZT7fnKEuL3eqbZ2JSbodDZ+qm3WxdS+RmnsknZbNuyDG+Wjc7mK3iTk64r2Z9ktfGli0xmQey1KXGqd3Uow931CWOWo9qh2f0Usf48AummQ99cqn7Yo2DZ2LULjrElusj83RtyH30sPFW8WZ9qCu+cy0YT625+CF/C3tk+IEL/sTE8a5NjOQC+tYEG8bQ5YDNtLHCGblOH5/6EoMreIEvfmCG784Pceub9laeFT84mvwlfmurLLng29yRMSZlzrRblysB7IIhYIE+45hk79E74+PVZXmhgW/mwRgLPcc+cp94V5v/Km54gd5q/hXHqSML9xVj/0oxewjIFz/5+xKTy8yzyfv8LIyevQfs5nsmP7DhBZUH6zP6by3Luuz2VF/yqzx4wZOnL3rjdnzWe//fEYnTM1ovV48cip4R16vbfMY+8UxMXi3eZ2LxTNuD83qP27pceUPvisQliRdMN3c0hs5sgOvC8ELn8JYYeaDjBXKE7XvOEZsXI7/4nY0HTpH76lBz1t57y3PYIp+PXLf3xuij+F/tS649PzDRIsv4s2J/iz1gN99bObJPuVfRvsrF4mht8lcd1m29PIkFFzL3Osds+ZjSXdicn3b97nsEG/bY+t58xN7o/k+drton3grPV4v3rXC52s/gvN7Hti5Xbli8MPPAy611Be5REdH7qIdnDgbvfRDmZc7LmV8e3ogN7I6wfe85uCInaDmgnI2JnNEl/9XB5qzN95Rn3cxfadeb0HvWpvrmsFx5y57HQZlx1yP1fOYF4q32gN18K071mb2J9erHtnxPVNmP9Lzaa9jHyGd1eSIH3xVctOUFrePY+Ei5foVYvBDDw6+Q71vleNU+8dXi5Sx5tIe8FR7P8vNqvHgWDp3drcsVimxaAAlZ/PHyueewj52PSrj3fjGCrQc3X9hd4T7qGIdCcuAg6lf+e2LlcMbhFTsflSs7eXl4g1c78iPzvpcw6uVl2H0ODjLmhYFDM3PPOjy/5R6wk+8OJ1nrxv0sXHbiuEeGPcvLszVnD2bN3tqDkeE9qB4ttl4Ng3tw+2g61JG1ai3uOZt8tJw+SjxX7RNvlc9HiRcuvvL55Va9PgrOt+J8j/nty9V7BDc+3/egOfgP/sOB4cBwYDgwHBgODAeGA8OBfQ7M5Wrxf943JNon0WA1WA0HhgPDgeHAcGA4MBwYDgwH/n/f5nI1l6v552rDgeHAcGA4MBwYDgwHhgPDgeHABRyYy9UFIM4tfb7UDAeGA8OB4cBwYDgwHBgODAeGA3O5msvVfKUYDgwHhgPDgeHAcGA4MBwYDgwHLuDAXK4uAHG+UsxXiuHAcGA4MBwYDgwHhgPDgeHAcGAuV3O5mq8Uw4HhwHBgODAcGA4MB4YDw4HhwAUcmMvVBSDOV4r5SjEcGA4MB4YDw4HhwHBgODAcGA7M5WouV/OVYjgwHBgODAeGA8OB4cBwYDgwHLiAA3O5ugDE+UoxXymGA8OB4cBwYDgwHBgODAeGA8OBuVzN5Wq+UgwHhgPDgeHAcGA4MBwYDgwHhgMXcGAuVxeAOF8p5ivFcGA4MBwYDgwHhgPDgeHAcGA4MJeruVzNV4rhwHBgODAcGA4MB4YDw4HhwHDgAg7M5eoCEOcrxXyleDYHfvzxx2/ff//9bHqzXocDw4HhwHBgODAcuIsDnCM4Tzz7zPLV7T/tcvXXX399++eff7599913U8TZBIYDD3CAjfDff//99sMPPwyOD+D41Tf7yX8+Ag0HhgMflQMc+v/+++//3nU//fTTvOue9K77888/v/3xxx+D75PwdX097XLFpYoL1q+//jpFfHIRLea0n/PFyWb4888/zzqadTQcGA4MB4YDn5oDnBnncvWcswwfajmXX/FHDz72YosPv3PO/9/1esrlioMgPwrIwZCWm/IVBZ0LxP8uYofJ77///h/pHzmUs3j8kkQdOz+rMWrtwnvWn6DJjb+Osrif5WOV3zPHwQ7c/cvvL7/8cgp7YxN/8HHsqGWDRPZef0e2752Tf8RFP+0czcFXdN7rr32//fbbf/6J4Sw34TV6Z9dcYmN/dw3vymlXrtyT26uu2aypONT2Lfa96vPRZ98V9YBEbeFhHX/U3736ydGPEtO9uaSe65065Piz+8nns+v4ytg4G7pPUuNHziy34vKdWPdW3xe39J13bRD30S/9qHP0V6N791Xj6lre565jLq1X/ecFxEqtaDPPLoZnjb3X2tnJ5ymXK4rHC9QiUtz3An8HhM8mA9nZRMCdOrBh3ZsjhwUW5tn68aLA97MP6i6u93w53IvtSo/NF/z4ncW92vRlUse7Z9Yr/qj3R8KTS1S9WBG/3CTemg/xowMHkavzb/Hs4eUMlqxVYqYO7p+PxipOt7i0K0c8jxwCXnnNsiY7vlmjt9r39Pdoay3gal0n8JZcqfVVfuAgHOcHVmftsiauiums72fIgzHrnTqwXz37fVlzuGePqjYeeSbfPKtUDj5ie6ULznUv5PloXVdb3dpIXsLT6ofcxHu1ph7ZV2uMPPs+gV/w7My7qLPXjbGO8dPNPXPsvdfOrdyecrnCqcWEcG6ot4J5dB4/K9I+avtV9D0gu0lB+u5LyRmsrOEuBvjE/lWHw+rXDYi48vcZas+GkYeObuNyY6+4dM/UAYy6udUYL7yOMyv5Z4+TA7/Oj/Xv5nyZvRcv5OmZFxr1fsYBC5xWGCZ2u3Kps9MXC+tl+1612YlZGdeQMdvWuj573zOeK1sOtjWPK+1ji/eA+wnc5pDHwXP3QOZ+J+62O3y+Oper7ZGDOLBf8ey7+2pfnT3X5bM50Pmu+XJmfMbeh285U9surp0x8ILHKYvt3M/Ip+Mouqy7t6gz605+0ebZImO/t0+O/O7Vf0TvvdfOrdifdrm65fjqeYhayX21j89i7yxW4NptEh8BD1+87/FyeK/8/fq145+6Ub8d2Y8qQw4r/pHbR83vPQ8utZa7a3hXrto/8/zKa9aansl3ZPf+KfsuTnA0D7G7eiP3v+sgn7/S+/PoffIIR4aX/5tfj+D56rpblytuvNzSJQ//bpMvTzx3X6A4vPMFwn+ShBwHQsE6sgfxmfcvMPo4uh0zZzzI+2PjYM5nNpCUzQ2FnDLevPETd7WDbTEh5voVghywoe9sVwdFcxADWvQYJz58eLDGd2IqtsjwdcLY0M0XUeafMaWMtmyR62IiR2Vsb+GI3C1+aKtriVOcaMmV+LKW+jjCAR1sqc+z2NHn1+GbMWV9scNc8oQxMNJexmgOlQvwHr/OU0ds6ldOaNPW+doqn7lVm+oQX8Usa3wWq8oFY6U94pvx2JJDxck5bfpsC2ZZH/TBwHnxZZwcabG1wiZ5p0/brKv2adFBhnn6rsmOV9ZHGeLrMLrFj/SffeJIDM2/jvucmCCbPEiOr3JP34kdtuSRurT45ecY+tbEuGntM09MWWP2bzjHnDbTXsaBL+Qzr4yZfq0J8vqrspXryKVt+taWOJC3BhVfbNfcxIc2Mahx7OpVucRO/xlv9ZPP1RZ65H8kw3yux5TNfuKKXdYOGOTaEJsco+849nzWdq0tNUj96oM568XcijtgIW607t20jmPHOK7ep7Sb7VHs4sI6oW+MdY9yHBltu47BwzHXB2OZZ2KXf53K2JARL+zRxw6/Gh9rYIc/lZvER+1yDXV5mM+ZljgTn6p7a++u+VZ9n60F/sQrc3AM+W79aOeozbrgR75TO575qZ+cr/nfylkbta11I+fKyYyReTBITlQ8kRe7jj+JlTna1rxqvN3z1uUKRUDCESC7OHyB1Y00E3UTQ5fgDeLIHj4AEl3kWHTYVHfV4qMDQZCJk9iJA3u+eJ03L3wSAzL09acchVEXf/hVF1niRhd/9BMD9bRZW3Ll1+UPeYgHe9jGLyTUBuPEzc+4iQu5SswVVtrKFlnykbzY5pk4U058xAK5Dse0ldgkP9KufXIgFuW0z1jieoSD/Mj83Zhu4WsctviBC9gSb+bIWT88E2+NkXHGcpOnloxV/BjDl37lnM9HrfHREuMqZnxSF3Gk5Zlc0v4uVugTtzhYK2xmLml71Sf2xCnl8MEvx1gbO2vgaK2lPfGu2KxiUlc9/Kgrh1kryoEH8d6KeZcf2s0WjDJe65NxII9crk/qxvNqrZtX+sq++d5as+5TaU/fxk1rHywyTjCUm9gwP+0RB/I+1/mM2T71IG/3WHSwUfm2u++RD7rYdY0bB5zVL7ng5+z7Y1fvCDvrRCzG6xo2vmw7n76blLOO1Ad5nsHVWipXW/dNasccutY4Y3Jd5Biy2LdWrkXtrNabNtCzf5Y71lR98+KZuhIbY1fvU/rJ9lbsxESuO3tUYqKPxNgxbIm7Y7SMJc9rbMYCfuq5tvDjuHKuIWVrK+/QFXP3GcZSXl7l2Nl+h4825KgxExscRMfYkDVfc1U/W/MCZ8exga3Uc/3ok7mjGLVV66KetpnHjvK0ylAbx3dzVt7W/NwvyA3eZM2Yq/s5z2CqHVrxvMWfGr/1yfWadnf625crjAEoSaVhgiaAHKv9GrjznT3AqQl1xdRGtivirPyrC0lrUSRG5qsdCqYuLX5z01COVjnJn+RzLlvwzEXDnPmnPRdOjkmkfEGiT2zECGH0tcLK+WyRrfhoM+V2cUwd+uJ1hA2xEwdYpL45n8FB7Kyjm3XiY0xuTOkz+9Q180Y+OZP5ZYyMk09uGGnXvrGlrmPKHLXYxw9xKkeMjKVN57JVN8f0fQsr5VJX3G/5TR36xkHMq1/Vqc/oVax5rmvNuFn/2kCu6romlelabeV6dF9hTh05nHLMucYSa3Vs9XEL05o/61n+a4sWuZ21jj9kj/yeWbMre2Ivbq5/1hj+k9fE7wtWXIjBOG6t5cRhVRP9pmyuf8eNt+4FxFzHyDHfoR0WO++PXT1z6LCr64F4k6vmZ6tP68K4eCuDv8yPceuT60x52w5XbdeYujj1QZ5pa1Vb15v7FHL6O8Md4k9/5oP9GrdztuRR9xqea13M7Qi/ndi1k3uP3K2xdhgTG+PGT+v7JWMzFlpkfK64YguctCe/6l5V5ZTPdsVzsKwYi0Pqn+13+BzZ0Cc5Kme+OeZcttbIdQdmFSPyTCzRJ++6FtPuqi4pY9w5ZtyVMylDX92j/Lr9Iu0Yo7k7J+8SB+PKMeQrf4xLW7TuA0expnztn75cVfC6xVWdmGDV7ciIvXuJ39kjFv13IFWSZuzYy1hWdnbkdl6O+N7Nv4uFhUQs9aUpcTL/FVaZv/2aH+PaVOYMjurYmkvlh/O0Lpx8CTCubuZ2CwfyyYVZc0m7RzEZn7l3tUtbGSPjHa7atDW21HVMmaOWmPCTMh1mOW+/0+18ay+x6uTu3axWuBInudX8jD/bDuvOrnEn3p0c/Lnlt7NlzInVLb5mLJkT/ZWPKmf+vJhWFytjI9/U10eOWfOj2M6s2ZU9YiF2fuDk3uYlKmOirzzzvlCN4yjWaudWTZR37ed+4pyY+0zLWNaeMWNWrsNi5/2xq3cLO+NYxZvz9OGT9an7M/P4q5wyVmpT7fF8C9eKYYervGWOGLGJ7Vu1Rd563sMdfLg/sN54pgUH+ctY98N3xYrnOmZuR5zeiX1lp8OzGyMuxjMXuSqGzOGHQ7Nyq9iwB07KyZOaZ4eTOrZHPF/hqe49bYfPkZ0O+1W+nR0xJBdspYzrp47r07WQOvS1WfFOOW3kmHFXfylDX90j+91+kXaMse41XQyOVX+VP8aVfu49r2jjKZcrFhcAUHRuzyTSEa8bQ+de4nf2SHQFcM51pMBexrKyU+XI34XtZupXFDdbC1Db3fy7WNAllmpT4iTBVlhVXZ5rfoxpU3nj2cFxlx/aTn+ZA+P6zfEzOKTt9KfdLp+Usy8eHugcp9VWxsh4hyv84KVEDnAIGX6pq6/0sep3WKziYRyeqqPvtN351l5i5ZgvVGrOAad+gU3bqz7x8OvmuxiRow4cojz4IVdtdHbNj/j155i15cVEbcxNudqql7aQIZbEijgY29Hf4Ue1o0+xomV/XslVnMwj5a1vzS1l1KsynW43hq2uRoyTQ41T+YqlcWRst/q3aqK+cWc9netiZKzKVl/3vj929bq4iLnGwVgXr/llS06+6/Miow3sdL+KhTZv4Vr1ujiRYVybtl2ezCmPb2Ud83m3ZZ3i23WGnW6/uHKfqrHtxK5M5oydDs9ubIUley97pDHRzwO9frHZ/dSTB118+Faua7HbyTBWx42ns7M71uGTujt79yrftJN98sAvtnNcOx22jFU81d3BoZPRH3Paot3JOeXp38JR/zWHLgbHqiw+kgPKuUYfOa+Yz+WXK4JikyVI+jgy8Ap8B+IjxO/spf8KcM7lVxbBWRWg2qly6HPrzcMxL5x609ZPtrv5i2nG4kITd+12ZFxhpU62XX7aVM54buF4hh/aptVf5su4fnP8DA5pO/1pt3I2Zezz0qC+cL6+RJDRVsbIeMWVefR9ISPT5e2Y/o9asUiZLh584jtj7HQ739qrWMGFXAO8cPMFmzEd9YmDXycDhvxyzktVvnAq1sh3ds0vcUCW+poLbe5v6Tv7K1vEkliJ8611S0z4vsWPjMG++eOD2HmuOSKrnHq05pFj1ryzoZx6VabT7caw09WIceKkJvqyFUufaY3jDPc6O2lL+8Z9a99Tnriz9ox3vu59f+zoncGui9dcupbLAhzNjyjYgHOd/GpMXCtWyHcxdWPWvfoQ71vrDT1tnOGO/uCnHAWT3I+QecY+pe/d2M0PvFO3w7MbE8vUpQ8PkaeFE8iljH4rJilDXx508VWbVRf/nQxjddx4qo0zzx0+6hP/zt69ylc72ebFHJ4ln7WDTOrc6ovDEd+VSVv6Y87xiidw8QAAIABJREFU3ZyVtwVH1obPtdU/3Mq5VQzYYy5lO25cdV7Rz+WXKxPvCp3AE0BHxkeIvyqKoFeABaG+DBhn0WMvX5orO7VQ5N5tpvo7anfz72Lh0EUsdUF5mMqarLDqYqv5IWOdU34HR/UyFnOp/EjbymQ9mDdn5pV3bIVD3dCNSX1a/R3FhBx5sLGxGdlfbXRpC9mKK7X3ZWwsxpb5OXa0AaqPTfz4TGtuaROZim2nq+/OXuaH7TxgpfzZfrcmtEHcmZ+51Y0XGeyoR9vZNb/EhrGzh0Psd7YYJ5bE6hZfXSvEu8OPzNF+5i9Puz0q5dQ1D59pxTlxyvmUqbwy39TVXuKCDThU68Y4L19irWsZ+co7bdf9oMabz+ZceaTflN3Z95SvtWec/BhXhvp0tXF+1e7qmUOHXeVXF2/6B6e6Nqh35oO/WpO0sepjo8bDntfFxFjlie+9al/+VT4on7jcwx396QeMwMBxWu1WfnV5kFfNTX5iJ+1mXx81z5RZ2dnFmPogmzbtU3NrX+O0jkexYcccqn6Hk35tXVfun46ztlZ4KnNP22GmHfxVLnfYr/LVji34YY/c6JNTXYfdmPqrVv9Hdenihsc1/92cayzoHe0XcqfmS8zEkGvKfGjTT+UP80c+U3e3v325YsMhoJqQi0sCu6HQEgR6blr5kl3ZI0FIkQmoD6g5XvvEgi62kdWfoK8II1mUR19b5oWvzg7z4IK88VhQ7Di225J/LXKXv7GIM/aJhfzRFyvrQY4Zg/lVrFJGmzU/xo0pc9zB0XiMG31tiX+NwWe5YW7gzEIkvlxQRzjgS3u2+s9c3CyOYsIPOCa26uXLNDlCnx8+ySd5gw653MpPH8aGrYzdvGixj018Oi53cj3IG+WoT6e7ixWYoK89fWcrXxK/nLcPTvx8zpbc+DkGdjyLP/7BqWKNfGcXWfSTT3CMvPWx23a2qBP20x4xir+1d50kNrv8qPFhH5/JNeLAZ9aok8NWV/OOQ9Uvz2CMH/M6WrPGSBz88Is++Ffb7rHMpTw2ktfqkSe2jIP8wXO1bqxT4rNaE/LY9YgueuRNbMagzaw9c8gSt7LmtopNe7Xd1VOuw4457a7idZ7W3MUcnVoz9yvyzhzxf5SjvEvbjom1sYi39SUucVXGlhhW663WBh3snOFO+qGu+EpcmSdO5q7cp/Sb7a3Yd/cobB5hbF3Tt7bRy3H72hMbbFC3rG23zyAHdiu72lfXmqKHbWpZdeWVfMw1or2j1rVS7aqzu3cbs5xXP1u4Uzkl1p6rkO/GsNvtp2mfHI74nusZPeIRv6zdbs7pm7720xZx5zM5wAHf09QLTGpuHZ4df9wvmKvx3Pu8fbkicJLhZwEFlDGKYRCOo0PfZFK3s2cx0p6HDMbQcfPUV7bMEQey+mWMZ38r0gKuusgSiwsNH9WOcaQOPpElXwiqT1viT4Jk7PQzf/qMdfnXWDIn5tIO8Vmv9IecsYtVzttXhhzMr8akLO0tHJHBDvaO+JE27ROzi4q48OUmiL1bOCCvLdsuF/wkP9OuerTK0DqeeFlD5rChPONwy1zENce6/IhLP/CInJFzg3HOVpyVYxwbPPvTJjgaO9zFJnghZ35nsKoY6g8f4qn9ri7mYEzo03ecdjVHnIk1sYi1Nck14hhxGSf6YpPjztOCkzIZF/3USVvGhT5xqoedjIncch65M/zQLm3iJNfwZyzG18mtap44rDDAN3Nij31qvVqzYGZMYME+qm63b8LR3GflbeZuH1uJL3aJw/muxb6YaFvOipl6jCsLNvjK9wdy5pa179bove+PM3oddhWPLl7ztUWHXFO2y736Q+aIN9gnH/HBPn3G5J5cRhZb4u+6tFZdPMgzri25aV7Z4jNld7ijPnrI+5zt1ftU2rZ/FPs9e1RiTO3FmHF92sJ/8MWPY9laX7lTa0CNrA+tfDEGxpIDads+8WmfWmDDPcWYuz2O3LC/qp32abGpj1VMO3v3Kt/qCx/8yKfzn++N3JdyDaXN2j/ijLKeP7BJHx3jst47OWuvttiwzvggD3woV7mTcSizwlO7WataQ3NB1ny0u9tuX652DY7c/xysKEqSAVwoEkW7t1iDbf+/sDS4fDxceOm5+Wd9GGcN1INnynykPmuYw1q+sIjPcdb5R4p3Yvl4a+FsTTxYnH1/3Kt3Nr6Rf32OvUUNuaDM/jhceQuuPerjGeeVuVwt/idRHymWN+1qg5clB8t6UKty8zwb0itzwC9GvFxrHnzBZg0gU+c+4rNfNbvY+GLHWu/mZmzW8L0cuPf9ca/evXGO3nC8ciD/qkd/PiQPRypHPtrzs84rc7l6wuWKTYUXHQdJicSXer7kM16/SCpzZeuf67sD7pV+xtZsnpUD8Bue+89znIeLjO38Uwt13rslZi6DfNnKv7ZxaFgdZt875q/mHz5Ro8+S973vj3v1Pgtu9+TxEd6T7jHEck8OH0kHDnLO4cde/5Fim1jmrNJx4FnnlblcPeFyRbE4jPEncV76/DiI1QNaV+irxj7CS+OqXMbO622KfA3yY4JrgPUAL9/i48KVnOEjiQd4c+HgMF9lPwYvrc2VNX9PW/e+P+7Ve89c39v3R3hPfqbLFXs+eyRrMj9GvXedx//H2Ks/ah2ecV6Zy9UTLlcflUAT12www4HhwHBgODAcGA4MB4YDw4HncWAuV3O5mj/dDweGA8OB4cBwYDgwHBgODAeGAxdwYC5XF4A4t//n3f4H28F2ODAcGA4MB4YDw4HhwHDgVTgwl6u5XM1XiuHAcGA4MBwYDgwHhgPDgeHAcOACDszl6gIQX+UmPXHOV5/hwHBgODAcGA4MB4YDw4HhwPM4MJeruVzNV4rhwHBgODAcGA4MB4YDw4HhwHDgAg7M5eoCEOf2/7zb/2A72A4HhgPDgeHAcGA4MBwYDrwKB+ZyNZer+UoxHBgODAeGA8OB4cBwYDgwHBgOXMCBuVxdAOKr3KQnzvnqMxwYDgwHhgPDgeHAcGA4MBx4HgfmcjWXq/lKMRwYDgwHhgPDgeHAcGA4MBwYDlzAgblcXQDi3P6fd/sfbAfb4cBwYDgwHBgODAeGA8OBV+HAXK7mcjVfKYYDw4HhwHBgODAcGA4MB4YDw4ELODCXqwtAfJWb9MQ5X32GA8OB4cBwYDgwHBgODAeGA8/jwFyu5nI1XymGA8OB4cBwYDgwHBgODAeGA8OBCzgwl6sLQJzb//Nu/4PtYDscGA4MB4YDw4HhwCtw4Lvvvvv2448/fqN9hXgnxuesq7lczeVqNoDhwHBgODAcGA4MB74gB77//vtv//zzz7eff/556n9B/X/99ddvf//994e6XE2Nn3OBOrqYzuXqgsV0BPDMvT2pXxFzXmz//vvvf5syG+Er5jAxD9c/CwdYjxw4+fEV+rPkNXnMGu04AN+5EHRzM7bPGf5aBY4//PDDh8Nyarxfxys4/+UvV7/99tt/h1oOtjsvUeT+/PPPD7dwIIMH9LPx/fXXX/8fBleQ6siGhxZw5AvPkSxz5IJsJ8cGxhzxf5Q/wZ/lk3lxiCMHctnhoXr3tL///vt/uO3gf499dc7WGj1i2uWGfp7Vnl0Xxv7LL7+0fH1WnI/YvbVnmNO9nEwOpA36b13nM/Vk33E9vkU9xeOPP/44xR32QA5zYHm07+/KdVy6xZFOh7EzeHc27okZHD7aXw263OqYh3LeA+Rd59/imXcXvuEgOOZ6faZ/+Wvt0tfRHHLEix5ce/QMcA/fMgbWHx9Gf/rpp3epX+K26r9FjXPPf/YZY5Un44/GcXT2PPLr3EtcrnzJsfFYLDaAq77weyDe2UxYyEcvMYF965aNAXxc4Gf9+yI8q3ePPJsPOFrLIxsrgpsvBx9i58JwZOct587wKeMiJ3Rz7Oq+ByX8PPoy2ontTK2xR0y+3D/CS+rMumA/kq87e8kOfs+UcQ0d7RmPXq6IX84lJvR394ArMThTT7n4FusEH+4bO/tiYoLuzntpVy5t73Ak5Wv/DN5Vl+ezMfM+8D3Y2fuIY+ToO4z3GH3G3iNW36fi+FZxcIniV3O2/vC7zslNY77iDKA/9sTqr3tGnriN4eza7Ww+e8xYn1njs+/9Z+X8SBy+y++N7dTlCoLnC/Jep2f1eOngNw8vVx5CrzhAnM2pyhPD7oKuujyzsbBYurmdsUeJtONDmSsOVuTLoQ2bbHAcyNls9fGe7b18eouXKj6esYatacXd8bMvHTbFR9ZDjePe53vWBesQPt7r8yq9W/v1o3vGUZyuAWLI31keHPm4Z+5MPa/8gLcbK+vlnn0AjHfWy66c8T7KkTN467O2Z2P2nPCMfa7GdsUz7zFw1hZr5JF3uXbOtrxHqRctusT1VnHgd8Vf94+azyNnAN9L1SbPZ/hGrfIcssqh8/MeY29VY/F97/3+PePYvlx5A3yVDesMcSEAC+o9c+OF+p4LE99gcAa3e2Xfk/D3xnxG7yPw6Uy8V8j61b3aevVav+W6qNg98vyR9ms58J77q1i+aj2Nf9XuHgh35VZ+zo5fgfdbx3w2x5F//L9lgSf8OiypP79u7t6x1fsKe8O3x+vpnj+Xqxv/ow4QkT+1S3Lb//N//s//35g3eFpl0Lu1ADgIcLlQhz+z1qLwzDgytPq6ZZt5but85cgcciHnYZi+cvWvY/pPXf8JU45l/rcOFPy1JXMXA+xVOzwbg3bJja9LaaPGDQb4MVZ8kGPK4Y9xsVJmF2fwNfa0wVj6IZZceNTenIgBXWuaNh2zrfmQW+qmTWTNj3F8Iktc5llj1M+qTT5iA/zxg/wun7SdtqgLeZsLcfNTdtUif8RxvuaSo7jgp6ttxbXypPMvttbfFtndWsPh1EOXWPDPOBjp2xzwm7Xtcupw0Q+tNletuWkHnc4P+uSaNSBOOcF88jntYbPjX90XM+7Eo8aOLXFLndwzapxpDx2e6/5T/aye0bVGtOat/1VdsXcLw5VPx7H96D53FJ9+sjU/cMu6UgNxhd/WpO5V2Npdn+k3+/jOfUL867jP5Ci3K0+xSx4f4b1CLFfGLC7P3DvAlpj9uc/meoIL1k/OyI98lyAjn7O+act1pb2jNtcm8aWvnZobo7zGV/L/yPfRHLllfikrjjlGv671bl1VHZ7xo81slWUMmVtrBPm6RxMDetqqdQI3McQHmCtLW3PK+Fb4pH7lkrkoc6vG+Dc+Ys3zWbdPaLe2cBLfyRNzyTH6jmPDZ+JwPPmd67f67J67OJBjvL4Ds25XcHr7L1cGmYkSpORJwBhPkLqkHdOu+rxkADCJ5GFB39r2WVurlg2EH7aRUV95n/GrTXxSXPJTjrbGxhi2M17GtKm9tNH10a82kBNfFi0vO8gO+bVLHyKwaFxYxI2cfsi7ymEv/dFHjxZ5bDkmbtpbtRKSVhv4wW4Sl9gZIyZywh7xMoZu2tdmjtV8eO7qwhg/akk+yonFUYzpr/YrH83Hmlh7fDu24hP5EY9ytDxbG1r7NY58PuK4G5VYkzfy4A0u2mFcbBjnV3mibG3NuY6Tz26txShtqI/9HD+qbcqBHbLkxjgYEE+1lzrZRx95WvnimDa129URnNOefKbV3tEaMU5ksYWPrFnazr640eY4upUrFZPEx/2n2kmb2beG7j/Gjc20wXj6wQZx7GCY/rKPzVv8tXa36tnFl75q/6iu1NfcXSeuRezsrs/qM5/lqGP4Y6y+vxhLjMSMNaIubcrAGfOzrsioyxwy/Op+sYt3+q79K2PG9lvsHa4b1685Wf98H+Z6FEPwp68eMmDpM6225FbOdf1b762dmhMT9ah5WefO784Y+jU/9fDHz2fayj2eqevKRurSF7s6zvMu36yxa5kY3KPpa1s5YrNW+lcXWbClBqwh+vxcd+ppc9Uml5DRj/I7NSZ2MMCW8bmfEJu2jlrlkyfuczlGjuBifTNez4Q1d2R369zFQU7goF1ansk3cxL7HDvTf/hyhTMJkY4JjF+OdX3BzE0bMgqehbbI2gDgnUJL7NzMtGHbxdARAXniMjb1uzFtWkBlV21nA9mOHCsbK3nqQI2O9PAPppBdOTBnbDcHc86Nxfizfo6x2euLlhgrttpMuS4f5bLO2KqHBg9/mdNqEadP+ys+Ok9rLMnpjk/aqjiIO9wFk1vraIfjGV/GmDh0uFa91bM51/lHa60+9tN2V1tjSA7A36rLJlp5lrazj9y960LdtGeMt9aIcql7hqfilvXFllxJbjLOXkqe+kCO8ZWdjMv+is/6rLF0tdGWbYehc7Xd4a/2dva5nfiMwXplXcUy+YffHbvaq5jpr7bYJDfH4bg1dIwWuXqIsPYpV/vyIHO5Gu/q0+crY8YmONX3gnhfuXfsnItcG+lXrPOdScxZX/Iw5h2OuDbTpviuWuPImiPb8ZfYGF/ZujWuPjZWv7TRcU88EsvUyb6yOWYf/ztrBA5VOXyjT3zaE8e6HpHLM6xyWc/d/QJfHZeMYdXqs6tx5oA+Nbp1jtTPkd3qy1qQa2KqjcQD++BW14J+a6uN6rPKyb8cN64cO9O/5HLlgdUXFi1FyBfNKihkkOVHMevC8KBZAd4t9M6LQxCrD4pYi4LfWthubGVzhUNnA1nJUWNb2VE+4wbbGnPVZ558c1xbu77NubOR8Wg3x9DpMOhsdvloM18eu/bU3clzxcfM2ZirvconbdWDrvG4ibiu0kf2dzie8vS7GDtcq97qWXt13lyYz7mztTmjn7hXzImBFyL+M55VH7l710Wn2+HUYdTJeVjP/FZxa7PKypXKKf2Ra172V3Y6v7f4XGPpalPtdhhWGZ93+NvZW+W4E5++xc9n2kfsaq9ilvazT6zkxvsUfteDnLLK+UyrrxyrfXNB1rmr8dZuba+MGdvgxC/9iEHi3dX/zN6xcy5yPWYs9PHNnOO7MStfW9dm5ldl6nNXc2Q6XIiP8Wpj97nLT13sVtsd94yXXNVdtda7m8fXih/Ke4nKvdK5qm9cFfsdOfZp5HLd6ae2Ky5VuXw2tmq/83mmxmfsWgt8sr68A2jjFm6ZT+1ro+ZX5brcjKvK7j5fcrmSaJKaNjeGW8FAIL9EADC6vvxNkPHud8v20aJVVx9dEWtROnvd2MqmPmvb2UBGctTY1Acn8EafW78YZdyM5bO62aKPXI7d8p2y9M05x7WR/rsxdDoMOpvm2LXpZ9ee8dBm7F2/i6fKKVPt1Tqs5Iwnc6k+8rnLM+fpc+jiRYAsLyaxyxhrfNXG0bO5VJlVLl3MnY179DMn83XD9uve6vBZ40cfXHLcmNIP8zyzj6kjxqm7m6M+/HrIOufFU7+4p+3sq19jNLaUpW9cVX5lp+rfY6PjG/5uYdj5ZqyzV2W7/Fc57tjTvvj5THvG7s76TNu1L9dsfRd3cmCQ413sH+m9Qk5XxUze2FrZo2Zigwx75b17x865CB/WrLYZI/18JkbrljEbe22VreP5vFNz5IkTe6lrHjl2pt/lp764+EzrWNfW2FLP/hEe2Fxhrb5ru/NV9ZWtdapy4A/f2Ofp44u9EDn2B32v2iMM1XmrGptzxYdc6tiqFtq4hZu5da02qk/Gb71nVnF1frqxSy5XGIYQ/OhzAKiAdM7rGIU3IQ8VPu+Qq9rjGcJB2G7OMX3UmDsidATuxlY29VnbzgYykqPGxhx4gTVYuRiVx78+yOPWZRf/yKlzy3fK2Tdnn9NGxtPFiGyHQWeTOOVH+qr9XXvG02FcbRqPL9w6z7My1V7lk3Krv1wx39mvY+R5xHHiYD4PXPrOGHd4Un37rD2fbbFf82bubG0qFkf6mRP7Rn50oF9tGWvX4of4c86c0g/YgnGOdbodTtqrcXEZxib+rc0R727FyLwxuV+oY1wZP3PGVsfVy/asjcqLXQzTZ/bFKMdq3/xzfJVjjS91at/cc3zXLnI76zNt1z6xkht1ZW/kuauZcqlfY/9o75UrYyZvcOLXYZCYPbp3YP/WuYg42JMylq6/G3Ony5g1Xu0fuzXHFvXAXvoiPsZz7Ey/y0997FbbPO+cAbRRW/Go4zxjm3hyrsq7tq/8yxX+OAvkng9/6vkg48o+MaObY9l/yxqLT+UJ2Naxiq0xayPXJHNdfdSprTbS5+57ZhVX9bF6Pn25ygNaGvWLsF/Hc+6oDyHqV2QIJbn9+lNljmzmnAAdXc6U6YqYRcEucRmbfnim4D7TggNj1WbKZB8b3cKQHJ0d42bRaEv5jBvbtzbwLgdtdb71l63x5Jg2Mp5uDB1i4Jf6nU0uirfyOWPPeHbyVPaIj8Zc7dWNRW7Xl4Rr6chHh9GK42Dqhw/1uhiR28FVG9lqr768xYv5lD+qdeLmP4W7Vx8/uzhmfPbRr2vbnDJOZOqLttMVJ+3Tai9zZOzeWqTNul/zTKwVEw/klUPGlrlm7NlXtuKgz2qjroddDNNn9sH7FmZdTYz7Vnzpq/aP6nrLLjHtrM/qM5/BDjuM8T7AHu+TWs+UU7/G7vNHea9cGTM5g5NYVQyyVsjUdaL8bou+vK4+seHaqHWq9tHFTo6fOWPI8VU+uzXHf1cP+Fbjy1hv9cmvw0d/1fbuGWDl13zr+0p/NRbl0x7rq+431JFYcw8U++RW54f11q3Z9HnUN8YVl5y/ta6NDfn013Ew57NvztVGxx3fPalPv7NB7J2NqutzZ6PWB9kuN/HS1tl2+3KVSdFnkeZCdZ7Ad2/aJgWhJHkHhi8K5tDBF4kngVeJQzTsAx56yGEn/5LjJpVxu0jqwZfFVBeU+uKBHYuVNlcxMq4N5InT+LAJptpOG27MtIwTs0RNbLBZCYW9lHFzFCPsHfnOOOzrOxd357sbw0aH7ZFN5oyXmoJ5+j6yJ98yT3E0n1ULVtjWBj6pl76zltpgjhoQs2O0lSfkAV/xYW4p3/WxfcRxYsO38YoVY9RCm11dKk+UrW3VJU/iquPqdbVRVoyIl37lLjY6/Q53dLu1Yxy32t11Af7EZM3gUqdrPnIF/+ad65H97QwHah7EQe7ue2DAj3FjlQ/uI+KettA5gyEYYF/bK65168G4bmGY8WW/w5H4E9euJl2OXXzpq/a7umo39xXtur9jZ3d9Vp8+W2tycww/4Jkc6uSQr7HLB+PGljKJ5ZV4G3dtr44Z+2+1d+DL+FlD4FXzyzrRZ54WTqS8exucQoa5+u6otuszXCB316Z+aHdrjk3s5Bp3ryJH8kWGde/+U+PonruaKIcdfj7Tyj14mT7rGSB1sq++fMYOOFivXEvoyX9ktOPhWxvMiY0xIes+YO0Y6/yIWfrQ106LHnVxz0cHm+41uzXGDniTc/olN8Yzt5zPfsXXOfGRg8kdZWwTI/r8iAmu1PqoU9sujt33TFfzav/oeftyhRHIQWD8AKUaNvE6fvSMTTcJCodtyJoFFFTmkAHczv/KD4WUGJJGAkt8fVt0fTHuS8aXIGMSFp/EZw7EhrwLBTvaXMVXbWALHX748peLU1sSAD/0iUV540YWXWJjDlnwE2NtMIcM8tX3rRxcuNrXRuJIDNipY8h22HY2keXHosmaop8x7thDnp940XYY69MW3NI+9aLezKOvPfI0psw564It8Hee1jrqb6fFT+KBDTlOm/yk9vKTWI3R+Fc8uRWHBwD0qQ92zSuxTezop11toOc+IJ7WptNf4Z7c1g4tNuR/+s9+6t5aF+ApbtSB/MEZX+SC3Y7PK4zquLHjQxwy1q6PHL755X6J7cQQmzmvLeT0S8uzc6sWmSOuGTsxadv1sIPhyq/j2LcO5m2dz9Szi08ftV3V1fxou7yJB1tn1mf1zbP54keb1MEcaHnu5LrYsSlW6NIHQ/OxXshdhXeX1yq3R2JO3tM3B3MTK8bFwDnbnb0j88EO2OdY9qlNxuX+kTLgn+sKDNzDM+bUqX1spJ98byFrvrdqnlwiVuJwrzNPY8NHjaM+Jy/VV+Zo7tYZQBur1ncNPrCFXPoDD8ZWfGOOvFMHfH3vMg9W8oaW55Uf6pPvcPWoB7Gid+uH/bRBDhnPTo3xp2/XunqMk+9RHMSQNtz70GFOvIiTZ7lTsUMeXW057zqwPqtYVnHAzYxh91298rMaP3W5WhlxnKQTSMenvb0oBqPBaDhwLQfcXGkTW8dvbc6p89Z9YuNlUv36kssXZpWZ52t5NHh+PTzdI67YO+Zc9PX4c8+e4YcKLlmpzziXmjlbvxaPHrpccQP0y4S3wSTF9F+LDFOvqddn4gCXE/enmhdfzbrLS5V7j2cOdLxM2VOrf76yMVcPfVVunmctDwfu58Aje8eci+7H/Stzlr/QdP+CgMsWe75/RfrKGL1S7g9friQErX9afSUAzsYKyVcHtrO2Rv7xTXjq8TiGn5WH/nMDXkp+DaR1vLu8fAQsiJH91H82YUzEy9hn2H/IhbXbHSbMd9pZ2+/FAfeIe/YOuP3VzkXvVSf8fpYzAPt6PUfzLxS46DPuO+w9sf5svp/JnYcuV35hpfBf5Vb9zGJ8NuK+RT5TjzmAHfGMQxIXEnjij5fVR71YmQt7qy9V4+bfiZPPZ3jJzuVq1q1c/6jtvXvHVzwXvWcNP8sZgH2df/btfw9EXpytGZt/Bv6c/fKZ3HnocvWeC2p8P4dsg+vgOhwYDgwHhgPDgeHAcGA4MBy4jwNzudr4X2AZct1HrsFtcBsODAeGA8OB4cBwYDgwHPhKHJjL1Vyu/td/NP+VFsDkOhv+cGA4MBwYDgwHhgPDgeHAVRyYy9VcruZyNRwYDgwHhgPDgeHAcGA4MBwYDlzAgblcXQDiVTfdsTNfTYYDw4HhwHBgODAcGA4MB4YDr8uBuVzN5Wq+UgwHhgPDgeHAcGA4MBwYDgwHhgMXcGAuVxeAOF8XXvfrwtRuajccGA4MB4YDw4HhwHBgOHAVB+ZyNZer+UoxHBgODAeGA8OB4cBwYDgwHBgOXMCBuVxdAOKPG9LhAAAgAElEQVRVN92xM19NhgPDgeHAcGA4MBwYDgwHhgOvy4G5XM3lar5SDAeGA8OB4cBwYDgwHBgODAeGAxdwYC5XF4A4Xxde9+vC1G5qNxwYDgwHhgPDgeHAcGA4cBUH5nI1l6v5SjEcGA4MB4YDw4HhwHBgODAcGA5cwIG5XF0A4lU33bEzX02GA8OB4cBwYDgwHBgODAeGA6/LgblczeVqvlIMB4YDw4HhwHBgODAcGA4MB4YDF3BgLlcXgPjZvy58//3333788ccvu+C+++67//Kn/ey1nvxe90vZ1G5q95U4wDuJd9NXynlynTU+HHgNDszlai5XN19Of/7557c//vjjptxnXfS//vrrt7///vvbXK5eY1P7rDycvIZ/w4H/4QAXq3///ffbDz/8cOl7icvaP//884133mA96204MBy4lwNzuZrL1eFLhJfYX3/99WUvFlyouFhd/RK/d8GO3mz2w4HhwFfnAJefn3/++fDddS9G7PVcsL7yv9a4F7vRm71pOPA/HHj4csXBmy9I/HZB5cCKHhvYRz608hcL8nrrTZYXx62vcsw/6+vaL7/88p9/8v/pp5/u+qcX/rXnDC92+fNsOTgpvnzJBIN7fP7222//2cHWW3NoFa+5vfqFGUzf+6+J1JQ44PoK79U4B0P2v3v1V3Z3x3f2tt9///0wPvepXZ+35Pjr+Nm1Ap/hAXrP2g9vxX3PvHssGN+j/ywd8JSXz/Jxj10/chEbffDbscM6gxu7vKIe7PngAB/x9V7/auNoj3DtEecKB2VW84+MH8V2y661pCa3ZF9h/l6c32Pvuue87hp6673qaF+HQ4/eIXx/Y+eed/gtbj58ucKBBbvlzHnISKE4fL73AcmYunbnANLpPTpG0cHFF0ln71mHCV+ubp73XAqoL7Hfo9vl6piLHPvEye/qBe/Gz8v7ikXnBetqLMTkTGttze1q7M7E8qgsOcAxuPCorXv1qSnr8N6NmUv7I/r3xo3erb3NtQZ/WROdL7C/6oBkPEf+uhgYI75n7Ycrn4+Mu7dm+4i9q3Q9sPDu+Qj7VebFBYf9it/ZNX9mD6Ym2AcLfvi7d31n/Pf2V3sE9bl1RrhyfXbxr2LrZHOMuNi7dy/IqfsR+4/g/B5715nzOjyjVqwL+PbWNcMn+Na6M8baZG0jA45VZvcZHpPj1R9RTl2ueIF1m+4ZcpEIoJg4RXvPzYs4iP+tY8BfRxpxgSwQ563jgmAcwonjnsuLGy6tuVzR8jVR8nuwZlEZ6xU+sAHecJI+NTiq0Y5P7K3WzY7+WZkjXrHuMres9Vk/H0EeTlCfbk/6CPHdioG44cZbr/FbcTHPC/hqXM23+medPervlS5X5Oq+RfvoHlPxvPeZffWey+29/nb14E2eGeiL346Ns3uwlzE4ha9HDm478R3JuGa6PeK9zgjGexSbMrVFB76zd9e5r/r81nsX+ONzB29kXWueh95yPeCfX8b6jDsE5yIwgZ/p65H+9uXKQ3Pn/EyxHgn2GboQBVC7zesZ/rTJC7aSxrlXbnkZ7S7cV85zN/azL/Zduyu5z8qrVb6vPH7P4eSV8/XQ+owc2HM+4376DKy+ms233oOvxPcj7xEfObYra/BsW2+9d73SeZ1Y32Jf9x7AO+qqem9drnDIn80gQf68aFksAvRw7Z8Sa6Dcgvlirh0Og/WvHPxFQsL5ZY/nzqY+u/jQqf7zmduqvoyHls3YmyzP5kks+kGGuNXf/SsKNsg5/dFPAuE7MWKOPI1dn6njXNemLeqDTObnGOPkZHzkepZsq8O9vCBXa0YfH2CJb/8ixTgxZ87MUwfsWINdzNGtueEDfX2vZIiDmjl/tsU+voidvrF3uIqLMl18K/87vEImuVAxTl4h67omHviy8n00njyrGFReY6fGCHb+5Ds4wRV5ynziyZw6xI5NbCcHyf0o7i4WbKmHTeuUHDqDIXgQJ/q5l3S43Io153MNi4MtvmpNUrfiD8bYQ8Z4aRPL1F/15ZJx2CKfmKmf9l0X6mStlWcOH8SvL+xae+XOthVL4uJnzbFvXOCi/S4n59ImHOryUbZra43Il3hole+4mZgqZwsncm/AVu6/mU9ijJ979wZ811yw5xoztiqTnFTmqAUbakR96IsNOWI7dfmLCvUw35pfXTvVXmKG3Rq7XJGv6bvru+bwk/O36nVU67Rzq49fsSBmsBezjA1OK1e5w3PNV13G6ftMm7HvrP0aIzb9Ye8ox5Uv6i7mR+eS1NfPWY6IDbiKFViKs3ZX7Vl/+khsK8/1dYtnWfOMf2VPu12Lft2DsE+8KX9rjWIH/+BKDZObR7jC7eor/Z7tb12uMJrkr04sFi2JUzTH8s+/Jg0hkcniAkDaBQR+bHTIYYdnQEs5/DCuHw9WLoyUXfUtQp2XtLlA8YM8hcAXOmJTXwrVXj4TN78co48NbNd86guYnDv9ao/nVT3wkzhRA3KreaVMZz/H0F/F5UZES37E5WKiFWf8ZRzYd4NThhYukEP6X/Wtkbngv2Jovc0fGezjx3qs7K/GzQVfxk4tyQ9/6oEFvvjpiziQq7VXp2tXvMImebj2eK75Y48xfrfWXed7NSauxCYG4iLW6IIBMcIF+vzkjHrIZR4pk3tIp4cuMZAfeqt4V7HIVfXAkPrIKcd3MZST5CMOrkHi196ZVpvGRIxyOHO2Jonr0f6MnLbVEePd+Kx5Jw9mdd/QPi15EL81INa0Qx2SF8jzjN2UO9O3FtYmuSa+2FNOXPRBTDUnZbUppmlP/a41LzCxntiqvpjruEk8jKdtMN3Zd3Z5nbaP+sRIjXK9W1/1jjgJlsodtfKO3K0RbeUHvsDG2rh2GBNr/Lh20p4+1EWuy09OG8dR3Mx1/Nitl75u+VjN8w4AI2M1lvqMjHnLb3xrFxy69e17EHvVtrHTHq19cc+YiKeuO2Pp2iNfYK1tfZmrttT3mXaXI8jCL2LGDli5xs/sXWf8uQfQiq1jPJvHLs+u2BfMmThca+AMNowZ0+4axR667GvWS46Rl/ayxQ91yLFH+pdergSFgARGYjImCVOOcRKqRCLROia588UKgIwnCACaBcm5rt/ZQM5iZA6MI08uaetsYZDfjRF/VfaMPnGCOXiCDc/Up+bAfCUefs4QboUlPq1fLmA346whsR7ZEXdiQ87no1bf+UJmQ0pcEx9tuZgrVs7faju/2syc3RwzPmxTD3JMzI58rnhB/LWOxpbrCf2ddXcUQ51zHZFjzpFX8k25XG87XFAv8RRjN1b9kluNw7lstZkXWzfslOt4uoth5wPb1Cl5mf5u9a1pyrnGEld95xgcIZ9uf2bf0LZc9Dl9HfWP5DveKq8/bBt3rStxu7cZg2vH57Nttx/KAWLTnjEllswRU61jZxOZuja1XdtuHSOD3eprxU3Gq9363MWOffykrDXKPSTnj/ridrTGjjhZY1n5Msa6t+bh/pZu1ta46z4CZlfsZxmLvpJvOW+/q5d5K3Omled1naUNY8v6Md/tX3Cn8lN9Wteqe4+x31r7nV3rmrEe9Ttf7pmJ++pdpH76MLdbHEGH2j26d53xB2b4FGtioM6MYSfzqP2OZ9ira1FMdveF1Trv9rUak75q7MSK3ZQn1tVeKy4p/0j/0stVBmKxM2GSqiRCp0uKMX5pswMRABlPOXxU3Zyv/c4GMl0OjHfyXQ7VTz53+eV89vFX8zmjry0PnJ2ucxVLMd9dJB02+teWz7RnME49+uSBvzrePbNJwz9+LLiaj/nXFwW2Ovw7H92YOec60GZiXV8u2lrpO1/brrbIkDdzKS/2+QLt9M/GkD7o66fDIGPq5FYvtPShXuLJPPtA7jfI1ZdA2ql9dKk9takHM2U7vu9iuIq709ffrdZapZwHBfw5ru8cu7U/M5+Hhc6X9rv2SL7LuZM3bubSR7dGO/3UOeq7H+TaUL7W3JgSS2RrTNqssRtn3ZP0ly01yAO8cx1+NU5kkWNcvVVbY1cX/dQx9pp7yhz1b62xW5w8su3cKkbrVuuhHm2nq17NuWLWye3sZ+lfG0cxIl99Z+xpb7e/c9hexdZxsRtTn9jZl2/tLconFp3dey9XiY2+aHOcWNM/c3Ik5Y706xq6onZn/OEfnzvxpgz9LtauBmJS8av2fD5a5xUvdWxXvrpadblr52hOmTPtm16uusIQbJcUY/wymQ5EZCiMLyYWKH5yoaaNrt8VAbkjwhJL2upyyPna7/JThth5gfri6XA70tdO14phxcdc8dX9dhfJCkti0XfGpd9qv7ODDBcjsTbOtHfU58WGPnxBF4z9emMcta7YQxafR7ZXc+Z8Kz9zqnZW+lXO5xUvxKprM+dO/2wMxmIrth0GiSu1cJO1LtSLmPMLJnO8/NHlpWxOmQe+PSC4N1Dv7rBsnF2LTX2wHrWlLL6r310MxWVHX3+3Wm2CG7JgRdz1Uqlc1oRcsh76Yow5n22Juxt3vrZH8keYpR3jrph1sR/5S5tdXz+Jj3L4Sv8r2RqTcox3v86XPm2rb8c7/DrZVS3vfeeI8U7sxlpbbKzWGDkQc9VZ5VHleF7FaD2yluwzHM6x73uCGDI/9XIMPzXW3f2si9kxfWWMzO3Uy7y1dabd0V3FBna1Zt2Y+hVH4uz8K59YKOd5hv2Zurn/7eSsjZTVV42tW1Nn9Ss2lTer/DO+2j+Kt/rjGZ9pY6W/w7OutmJS8Uuf2e8wYL6zvbNG0e1q1eVuHEdzypxp3/xyxYu+Btgl1YHaFQyg3ZgBkz5y1cfRc1cE5FeE6+S7HI58dvkh76UqD5P4Qz7trfRTpvbZeMDfC0YeFM3VTarq7j532Khr/Xym1S9tjlc7HIrZNFPuLOba56VnLG7CxvFef7kyF2IzTlrjzLxzvvZXvABPc606+dzpn40h7dEX25pDx2v+ypKHGviafzUCH9Y4uYiV9okzfTOPD2rKesKuOim302ddoI/vlK88ZW4Xw1XcnX76vNUn38SQPSXXOvr6zpqQy+7+jA15cSse54/ku5w7eeOute641Okby61WP91lvNZc2cQS+zUm5R7ZY7FJPWv8HX41TnSQYzz1H3nniHHNPe3v9rs1RqxnONn5WsVoPawxz6wbn7HV6apXcyZW8M0Ybu1nKdv19UUczu/Wy9jVO9OqW/eNtNHFxnzHxW5M/YojNvS/4w9+uN/R5rsh9Vf9I181tm5NndWvHOl409lcxc/4CsvONv4ZT3ud/i7Putoaf8UvfWa/i5P5aht7O2sUXWwSR/rpcnf+aE6ZM+3py1VuPDrqgloVi4Tz4oANDix1A62gItcVDLlHXlbYJabuhdXloPyZoqFTf8QNSXJcf3mY1B/yKdvhk/O1z6ESjNks7fOch003pqp75hksuwsKNqxf2jNn2hyvC6OzCwaMp96qj2zlCfknruRfD89wtfO98lPHzflWfqwr/NQYeVEwnnWqPvKZfCqvmIffNbfUs49+YsL4Kgd1brVHNU5f5EjsdX9I+8aSeGifuZSlD37yupuv8j4ji67PtPC68o3nancXw1XcnX7GcdTH5k6d9U2rPThCPhV/7HU2ybvioa2uVb47sHU5K5+2jLtiThzJJXQ6/bR11Idf2KwcIHbG038Xk/o1Jrl45Ptojj2rqwV2q68OE/QZ14ex3/vOEePkkbZvtehWfOsaO+Ikudzywbwx1hz1JR/Br9pUN/MTsxzDT8V7Zz+7Fb++iANZn2su1XfmfctHN6+f+j5KWWWMzTlwrFzkOXmHLLYZw466tuLuM23nD7nKodTZ6R/5qrERb833rH7F5oraiU0Xb/XX1aLq+7zDM+xVH2JS41nVw5jyvY5s3deQ21mj6Ha10k8Xx9FcJ39rbPtylS8L+iwMF54bdgLjwlGGQCwYSSDLj4XRLbDuhe5mmAVHN33cSribJ36KyKGCjRY/yHU5eNiuC7rDoPPlWOYCDrxEfHHTR45x5MCiEqrDR9u1xQ76uSmAIdjpCx1jygs0GFCvanP1jM2VvLXOw5sYp08xztioDzmTC76RP4M5MWHDF6lcTEzcEKw/ceADPf3iG1u1His8xDQ5a37JIeybozF64coYV34cT3/YFEPrjU9zAQNyyXp0vEqb+jmDgTWmVZ8Y4EriaE0yHuVtxUS+ICuvrJuytOaNL/PO+VVfLhgzfsCGvNVhDLtZR+Z2MTS2GnfVF5fkkDHUlrjB9FauXU30Q47o8xNbcUh/zh3VK+VrvuirW3NGr7NfbSBHnJVLK33kKt4ZY/b1Dy6M0zqWazL9J27klPzGhmtJ/jIGtsmrjKH2rZv+wY+Y8FVt4Dv3PLmRa+HRd475JDeJo+Zd8+CZeIhFbpFLzeOIk9als51j+iEm+YYu2Lg/Ik+feNx/kSEXxjI/a2Dc6CYH9G3s+nT8TFv5fqZecjX9k8su/8GLeogHdsBIezU280KHn8+08kTM0BXbro5d7J0/bCCbvs72O1/WONcpeYNfcgZfR/rmi1zHkW5sZfMoL+O95Q8b1JU88K3Nqn+GZ0f1pmb6OGr1by2JDc5gO/eS3TVqrbSn7y535+ASe4LPtGfWS+rR375cIQwAOOfn5i6xCMIFZWEY4+fixAZgmyBz9OviEkDmJbLgM4Z/baZ/5vyhl+SpiecztogdXeyht8oB3/pw4WUMYpD2uz4+3FxozQeb+iAHxpUTC1pjcKzz4Zj2aB0zX+ykDerqHPLiod6tlnoSb5UjL2M2jooxNUbPeJHHP2NwxLjwAY98aWqv+sxnbIsjdtFh8VaOZP5i48tEe9jZ9Zk5W+PMTw5hm/msLfnmvP6P2hWv0KlrD1/GxHz6lhOrdbeLQa2x/qxl1pjYc29I7PJA4HoDR/mpbIcXvuTREXY5B9/AIGvFc3Ih5/S7iyE4pL7c7/SJhfz0kXHWfrUrLmCgj1VNsFU54lqrfohF2+RR51fPHrKIB1/IdTl39mtu5tNxqdPHFzHjbxVfjsPHFdd8/ylPLNYT+/DE/aZyL/cYdOSwtm616KcvcMEXv9RlXGyoIzxCFwwYVxasOnuJVVcjck4O4A+bu3vDzhrDXsdJdI3/VkvOYFxx5zn3/6wZ+DDv2iNP8uNnzo7hX5wZs967+9kqfnxZF+zK9516XcX/rDt1FfdVbClP39zAAn3yACtyEVu5qWwX+8pfchDb/rCJjjZX7cqXdmjFPWthjXf0jaPjSDfW2VzFzzj2M94jf8StLL6P9InDnKkldq2hte3qnTVB33iOcmCO9bbyZ6w7axRb2iFX8mCsyz1jgjPkl2Pom2uO7/RPXa52DL6lDEXriue4C+AtY/rqviTwZ8aBBXjvgvssuDwDAzZlNtE88ICXm7UvuTMYYos9Ii9FZ/Q/gqyHkJ2XFOuv46br8pVxuKIW+bK91x42OAjcq/8MPdZjPRg8w8+OzWfsDTt+P5rMM/azR3O8gv+PxnCVvpdXD8/addwDuePT/u//PGUw+b+YsDbyIy7YPLJeXvpyxSFi9ULhFtodMoZM/5dMz8CCr4wQ8p6D8DPiudomGzf5+QXvavuvYO9ZGHAJ6g6t+qsv0RVW2NAO7at/ZGHDX+1ziQGXrxU3XZc7F7S0+Zn6YADH4NMjeYGx/HrEzpW68GOHI1f67Gy5Vr/y/iguV+1n2nu0vYr/j8ZxlT7vA9ZiZ489E/y7uRl77hnwFfH1A27uW4+ul5e+XPGCY3GxyHxh0jqeQL1iwV81Zl7ybGyQ81VzWMUNt559cfzo/H0WBh1v+EsLH0nOHIqJj48rvmBf+a817Gfg4v624iXjyIBT/Scx7IPdP3k4svUZ5+DRo5dLuMQ756Nd2PlK/xG+1D9rb3hFPl61n12V+xX8vyqWK+ywr7kWc4/n/cw+CBev8DM2PvdlzEtU3dMfXS8vfbmC9B6kWGT+AGUuVu+3ILzg8rKnJrM5nasFnAa3r8ZheMMGJ2/AgJckY/nyvMUnv2hi56thyOWB/Q/c3A/BAU7tXNBuYfuV58E2cd39S+qzMcv1Qu2f7W/s7+3nV+1ng/cabw7GXGLd62j5kPTsD6BTk3VNXgUbL+fw5RkX8Ze/XL1KISfO11+MU8Op4XBgODAcGA4MB4YDw4HhwBEH5nLV/H9QHQE2c7OghgPDgeHAcGA4MBwYDgwHhgPDgY4Dc7may9X8M5LhwHBgODAcGA4MB4YDw4HhwHDgAg7M5eoCELtb64zN14zhwHBgODAcGA4MB4YDw4HhwNfiwFyu5nI1XymGA8OB4cBwYDgwHBgODAeGA8OBCzgwl6sLQJwvEl/ri8TUe+o9HBgODAeGA8OB4cBwYDjQcWAuV3O5mq8Uw4HhwHBgODAcGA4MB4YDw4HhwAUcmMvVBSB2t9YZm68Zw4HhwHBgODAcGA4MB4YDw4GvxYG5XM3lar5SDAeGA8OB4cBwYDgwHBgODAeGAxdwYC5XF4A4XyS+1heJqffUezgwHBgODAeGA8OB4cBwoOPAXK7mcjVfKYYDw4HhwHBgODAcGA4MB4YDw4ELODCXqwtA7G6tMzZfM4YDw4HhwHBgODAcGA4MB4YDX4sDc7may9V8pRgODAeGA8OB4cBwYDgwHBgODAcu4MBcri4Acb5IvOYXie+///7bjz/+OBvJrIHhwHDgTTnwww8/fOM37463eXewz7Pff1W8v3r+f/7557d///3322+//fbtu++++/bHH398aT581XXwlnnP5WoOFV/2hcOGyyb7lgtufL3NYarizMHq77///u8F+9NPP03Nn7Tv/frrr/9h/Ndffw3GC4w53P3zzz/ffvnll8FogVFdv488c7HgYP1VL7NfPf+ff/75v7XGO8BLFvvUI5wa3fd5j78S7nO5eoPN/ZUI8VVi5YXDAZCDzqvlzOWAwxm/uSic2+R5qQ5m5zC7Z33M5WqNMRz8/fffX27fuYcHH0GHAzUH7I8Qy3vE8NXzfw/Mx+d6//sq2Fx+ueKlylcifl8FxFWefsXlIF9l+IoGRh/5gE98fO2/8gIiJkdfbf26VDF79Bmf5OQB+55/JkLd/AsIdlYx8TLHF7msZO4dx6Zf4Y5i2LVvPs+IdTeGe+Xcb1ax85dJ6sAapHZXH7KwySX3PdZxcnGV/724ntEjjuQ6nLxyzzAW/FjPK3iv3bdojRseHu19q1jgLTxz/1rJPToOj/DxqJ331Id77GngRf8evO+Nn/qCH/vBIxz1XYWt/GHXf9q2inEnf2w+a8/Av/tyd/Yh7mf6X+HCBw38rj6uPRITNUGf38r/s8czhhXuGQP8JN63XB/p/6if+91OLke23mvu8ssVibiw3iupj+JX8lZyeCCD1GD1Ub9iEh8vqCs3YS8FLOqKi3V7xgtezF20K9/GcNSSA/GvXp76Io97LnBHvp3jBcaBjdaxR1oOI1fW+ZFYzuquYnd9yeOrsDI+7LE+sA921MO5t2qJAS6+V+3wD/5ivVoTj+LBeiVP9sqr6+ihS9vkcuUlXGxoPfDfgweHwqN95x6bVQce4aOOv9Iz65Ba8nuvdUGtqPUje4K8FHt47/sL27xnnMt2J/9n7hnE7b6YcWX/mf7Tj30uHpy1XIMddo/GVOul77dsvWDtnG92zmJvGXv1BdepyU4uVfcjPD/lcvUZNugzxSHfM4cKFqEvbzZMNsNusZ+J4VmyLsAzBPcgdBQTm9wjL54j291cYgzW1KCTW42ZE4s9f93LG9vkt7J1xTg+rry4kUeXyxWxPsNG1iD7+mJdkY8Hcdbb1TXhReY6xi81ObNOjPXRlvzfq3bse2Ig5o/m0+lzMOLXzT0yxiGYHIjdg0ny5hHb6IrJFTx0Dzrzrnk0/lfTB6Pc2+m/17uVdcHavHdPoM7o1xqQD+PdRf298yc21s+V76aa/9lnYmHvyDV41dmDXKlF/d1b87O5VXk5c8b/W5/Fasz5bPwVz1fc8+Zy9eB/c8WChQivWPwk9ZV9DylX2vxotj5bzXlJ8PtoOO/E88qx7+R3SwYuvmrtbuXGPIejz7bedvKuMhyYBofX+W85PBvwPqy13Hn2oNnJcmmEC37Y6GRm7G25clSvt6qFMZy5XL1VbGf9uN+9ai5blyu+RvCVhMXMlz4WNP8UhGfa+mWIFz1zbC5uAujXjQAZfnkxkRyMUwyfLQy++OqgLl8kiIn5LIZ+kcs4eO42O2xgS7vZZnzGQZs4VHnmHKvkqDmQDzFq+2zs6tlW38Rv/bCNL2KyhuRda4gMXzQSkw43fdpae3O3dR6/xGA8lT+ZuzqrVhv4kFup7xj6WV/0dnLRb6eLz8oLeWZc5FZltNm1yFoT7Ce3xTUP0fIdWfo+03b2Hav8wyZ+0za1xy6/1DO3zMuY0cc2LXrIZg2wUzHSh62+Vm2NnbUDThm7uoknMdZYlLPFtvll7Og5jh3lwXmXy+Ztnmf4V3MmltTHZsWeONEzVvr6Tn5k7ZBNOeTFjFZ9/Kfd3I+v3svww/rDd8ZtrNaFWiOX+ZALFzP5yJz5GD8tY5kD8tQrZbq+NTUGYkQ3v9pXGWLItdPZXY2RPz6q/q6PM3xdxeB44sUaYDw54hjj3f6pnTMt9Uy/4M5z2qgyuYemXO2nXWNf5VN9oLviy2pvqv67Z+pMvbs514SxKlNj6/LPNaJe12b+6GAbOfYe4uKX/rPOzIGLOpnLrn98pSy2ci3jD9yNBz7kvmhOO+sj/ah31Fab4CyHqt5RTVzTtBlD5kpe1KLa7Z7FGXv03Zs6XM7sB+Zr3Tt7tf7K0hJLF2+OISMGtHALXeJEjlabjjEuJ2h9ts/zLv7Imqe44S9tIbP727pcYczFDIn85zW8RACBQAhKp5ksMsw5li8ekq7Apyz2JAt95PEF6MjxywIIvsA7R2scLgBsGa96EgBZ8qx5KV/bmoPzbk7Gwzi2MweewbAWcDd2fdVW39jVv1gyZg3NHVzSRsaYOMSPy8MAACAASURBVMODlOv6+qlz+MSu8dDyDNYpa+451vXFEvycJ1bqoQ/G5W7N2Xqr27XqupkkFqnPOHnwIy5s4Y9Y1O3sOyZmxk2bvMJ+xxNsm6862tB2tmIGB7DJnHFWDmo79fWRuTNPbPzQwa68pr6pjw/kKkbVXurYPxt7cq3iq83arvJDH3uJWdpHj+cVl2/tQTUOn80ZfXzzY61mrag/vpVRB5y1QyuXKz/QT3vuHbUmYujeqZ/0i8+0hV/m8UGLjjkwpq2Ms/b1W+NGDnvYAfe6vhm7xUewvHfNVi7XOMkT2/farzh03Nz1ATZn+Fp912f8kj/YUwPnyTV5I+dqbVJG3aMWf8RPvejzo49/9Y7OB8ShXNfu5rPLeX2AEXH7fKaVT52OXMi1dib/bp12foyhrj38pm/3DOsMTnCB3MFWO/rY9Y88svy6tXxrT8H37ho8ExM2kXf/Ah9yTT4S+1FN0LGO4nuUq9gdteKMHW36HqdG6p7dD27hbB74x0etv35XrTG6TtUHT/NAl7jrmGtSPiY3z+JfuSKeq7iPxrcvV4IHCGmwLirmSA4AILayHSjMIWdBlDUh9CEJCTPnSzrtMg6pkVEPsBmvz4yZh5tAytH350shC+tcbbsckNFX2iCHutkapwsVXcfMJe1l7DUWn/WdCwrciFUSKgt2dcw5W+0Rl2Or1thX8zkuV3LsjD6YkZO85IWbOWMXDjGePvBb65Dz9pN/jlGTWnPXgZuDsh4Aso7OZSsOyW24kngjwy/1rAutvtJGytJfrSHyrLa7Ougv48IuuthIf+onrytuyO/w70zs1qeuE3xXHmS89ruao1dzVt4WDPDhM60YZP3FsMaXeva7/cI5W3y6RzomF3ym1S9tjqNfa8/aqFgRCz91u9jMN2vu2L0YqK/f2hJ/xsU8eJBDrgVf4FW/Pnd4VBmeO9zhjvg+uidUn9YPPJx7xMcRX7V/1IJtrhX4XOvAfOURfnf23vRt7u7zzLnOlcM3NcmaM4cv4lBu1e7ks8t5fXQYO7dqzZVc6k9uKZPr9kz+6KXuKhYxTtyRBVNj4Tl5oK18N+Mra7DrH1tVlzHXcsbQndnOrI/dmFY2xd/8aR3rOMke5d7m3tjlqkzuqekj+8rmOcQ65L6ROvbxDd98ptWe8TEm9/L9pVzqdvXIefsrjolz1ljfOYYda2eu8vUM/vrbwdnYj9rTl6taIJPN8a5IylVQKGbqEqyFYg4CmiwLuh4iBBZZ5gHIhLXjM61xpM9ObpcY2OxySF+ZMzGCTxfTLbJ2saed7CubvpnvYpWYqV/72kvcqozPHZ7O1bbjyhl97IEbeWGrxudiq+P6kFs1Lp7VdaGmTMXRw2zdRPVT65C26Ms3XkDo5GambFcn60I86Cb/1cv2aA1hP2WNPcf0x1yOd7Gpn7lX3LDBmq6+07b93djlQ/rFBj6wob1V64vbGtCiV2tb9bFPfjkuBjm2wjBl7OP3Fjb4rDJHfisunb4YmDMtsYgJ8XWxmduVe1mXi/jQdpwCjx1M0o79Dg/nshUj+Mu6EytlHt0TtGMrtuDh2CM+wIdctUV7C+uUpe8e2eHtXMabPo723uqHZ3AmXnLOw6Oy8PHofKDcUWvMXT7o7XJeHx3Gzt1qj2ohF7CvnTP5r/LTVrZgmhcjuJ5+xWz1nqRm6Ge9z/jvZDtsxITW+M+sj86PdrK9ZTNlb9WE+XxndzGYa+aVPrK/kqUGzKVs7eN7Zz8Q57Sn37TpmeZW3L6v65rWT+p3Y/g0dvcH9+Iz+FvXzOGR/oe+XNXEAA4Q67jA1vGu4BYnieEYt1xsUJi6oVTb+bwirnZplUd29cuYdmPXbm0738h0sYJfxRUMID3jbIzGnDFWnz53sTtHXOBszbTrPO2RfsplX3t5+GNeHPRT26xN2kvdLmfs5Lj+qw1zOfKjDi8fF3i1jww++ClPa3479pHHbrWxsm3snb/M/ZZ+xoZvNjxftLxYiClfMOkv+7uxGzfy3S9tdn04hJ4XBOy5N6Q8ed3DZWtWMUzb9onjlhwytaZioB1a/WY9GO/0PTCJAS3cTHvorX4Z81EsKZe2s9/p5zwxVDvgsYMJduAeuXl47/BIf9nnQKAevM4DAv6xlfL0zafWocrVZ+uXuZ7xgf49fK1x1GfzqWvYeFccOZs/fvHl+wjc3UeYW9VthVHNw+dVPvpY5ZN10dZZ3+rRGkeO2ffgmj7P5E9c/LR31LpHizV6WWvrnLFo7yimXf9drB02xpG8QpcYjMdW/Sq7E9Mtm/qgPcq/i+so14w1fWS/y8s4an2wd89+gB6xpz3HfE+eOUOvYtYmrTl2Y8x1uJl3V9Ouhisb+j7bvtzlig21JtkBhYxFS3mLk8Rgnq8uvBwhDT9etm4mqd/1K9GU0VeSA1kJqFzXnom90+98I9fFWknFwuAFRpz00dNexa3z3cWOHAc0ME48utqt9DtfjOXhCH4YM3PGnS+DlZ06rm6Xc8XRPNI39swlc65+6jOHey9ZGXetE3rGuGufuLFTfXa2jT1l9VcxOdLP2MjNwxGx0K+20l/2d2M37nrRTlu3+vDIvQbOVluPcHmFYRcTOddLTZXrcBGDlNVv1oP5Tp/xxIA6dXpvsZd1uWRexF85dMTH1PVSlfVd4ZF6tQ824IWutoiB5yv2BPxZv8x118cjfK255jPvSPKGB6yTfGcab+5hqftIH5v4g5faAWvXrGO0YpRjq/5RPujgY4fz2j/jWx3bI94TA7GAsfJn8icufuoetfAX25yRwCcxR886r/5y1fk547+T7bAxjsQEXWLfWYOdnw4Xbda5LqYzNcFeF4N2M6/q2+eVLHEwp9wj+4E4pz3s3nuGXsWsn8y7G8N3hxvjZ/DHBnuKGD3aPny5YpMjgVtf7FagoEtSmYgbR47R98Dpy8t5Fntd8MxZNOVojSOJwVinn3pHfXLoDkD6olUfuR1fu7Frt7adb2SINXNnrBJT37khaa/qVr88q58vWn3XDRjfxJR21M+xVd+XIbHSZ3HUl183trJXx4mtvrDxU3Fks2KsHiTkcmJZffCMbvIa+eqjw8r1lxzr7DumjRoPGDGnHK11SNvdF1Nk0d3RR6ZilD6P+uiCya3Yrc+9fojBeoJBt7aJ414un1lL5HxrvyCWFfaJZ+dXnlV99OQWeXbzb7WXycNad3Or64Rx4q0xa0c98ch3F3MdnurYolvr4tpgDjk5VHm4uyfoy9Z4ycOxXR+P8FVftaUe7I2sN/s8Z50e2XvTHznXfR1ekpdy8JHn3EeZo051D1cnW3M4ymeX89qFgxmj4ztt5as6xNft12fy79aH9rvWvKkBnKsyxFPXA3Ug91o3dM/472Q7bFwfrj/87K6PMzHpu+4b4p/YONZxsuK1ikF/mVf6yP5KljowpyzPV76/iK3LR39HrXWr8Vi7zFvZzAXb+IYn1c8Z/MWu1qra3H0+fbkiCZOlZVHVjYtnipebrC/q+qJBFhtsGARNgurXJAQWELHNzxdVtYuucwmWL8AspD4z3ur76Nkc8EMe2u5y1j+x6Y+8yCnj3I19FVfnG/vUBcKlHjWlBo5JajdR9IzH3JTtWnNUFl1suAGbN/attWPY01fi0fnxJSMfkcEnORr7agx8usVY/RiL/FphQfzmJ5fFsW4E1QfPxAwW4uBC73IzFnAmB3RTrrPvmLwgL8bwB2ZwAP/K0VpHZclLPKyt8ujz85nWWmDHcWI1fsd22zOxuybFhTzBtMa98o08sVJTbaSstbZeZ7gsrjuxdLLgoK5x1tpZp1xDKUufH3Jd7clVeXDIGoqDsWEDWcbB6uq9rFsLxkB+xEcMjtGSEzXKMTFxfdKi635IDuC6wiNtkWf6RRc7+BQLWnmiz25PMD/10k/2xdvaM7frwzj0cYavGYN97MA5YnfM+MSTcWIFJ/wpB39z793JXxn3DupOndKONWGM+PhZ824NGw/tbj7meIvz2iaW5GHGqMyqFTvniZH8sQf2PDtHm7aZ47fKH+z4pf5R37zRqX7Rsz5yk/q4B8v9tH/GfydrXmkbbCrXiFXuK9utQWLr/GTM9t1zsgar9XRUE7ms3VUM8oAapGzX72SNF8zUERNruYpfnLGhrlyw1oxT/8RD2d0W7InJGoEba4d6Zt7Ey5i+eCZG9HMv0O8Z/MmRGNw/sIF+7mfa3WlPX65IikRIkEBIzALh0GIwjxxjAMazPwF0TnvYZs6FSlJZVOQBGjlt0U/wkeHnAkKOOPVFX13Jjc8cd564lNFu16JvDuLBmHZoeVa35kCeOX8mdm1mu/KdORInOvg2TuvFuHVEx5yUI7701/Vd5Ni0PhBVnKybtcYPdrrcO/uZo+RnLHPMOPGj78yps51jLl5yTz2xEEd08F/xzBjSbu2DV/KaWKsusbjhMA833TzQpV/tds9gIU5yL+2mjnVEnj4xmLtrI3O2Fswphy7YYFdeOWeLXu4jGUP2d2O3buYJXuimrVt9Yuo2bPTu5XLlqBgexYJMcpc8xMpxcJSLR2sIW2JCfuyv1l79jIUxfORY9p+9l+ELH+TX8dtcmHe9kJe8MvaKiXxkXBvoMS4ePGeu2Qc3sdFXtwaxV+MxTu1RT2wYk+PZMmecyCZvdnzcy9eMIfvGQut4cjGxIz/nkAc3+YvuTv7Ej039ggHPO+eDjjfGbKvdnXxucV6btHAi9xBiIfYcS3n7yVfk/aHHXOKnDm2NreNk8jHrlHa6PthQq26Osayz9ek4fcZ/J5vYEBM++IkR7dn10flZ5ck4OMtpMOZZHhuT+l1NGHPetouBPMyr2lXPdiWLnjbce+7dD8A57YlzHdcfGCljnF2LvvsuOmDpWqn1xJ4xgBlrQV3OKNX+Lv7oEQf1NH72qrrHVPur59OXq6PFtXLy0ccBkCLVOBkH5HvBrfbm+f/+T90PFl8PCzdg2qy/46y3HJ/++3OEl9bOy/GZtWL/ZR/+jO8ecCMvDgvPxPAj2/7M+cPb7sD3kesxsb3/vvtqNZgz9P/mzJe/XHGwYwPkllwJzY2XuXoYrHLz/L+JNZgMJpUDfMDgsF7HeeZrUfeBo5Odsedxi33QGtHnK+JHwBt+fJRYrsaD3D7rxXEHq8+aPx8lVmeLHVxG5nn73GB7HbZzhu6x3L5cedH4bF9h+JMiXw3Z4PMSxcGCMQ8az1iMbLzPtP+MmMdmv5A+Oy7wFL4+kicHSGzkP2th/TnefeB4xN9b6X6mdUwN2A/9a0L3z1feCtf0Q1zgzBfSz/QvCcjrrf9i+5H4+h75J6+e1WfdsI7eurbPymfsfs33/k7d3/MMvROfMlecYbS1025drrh0sFGwKfN7738mspPYGRny46t55ui/+4Q4Z2ydkf1IL7kzcY/s19tor9qYOLTz0cK9hJa1xyHrVXn1mdaxXyHZC/33+R+lLnAEroA3PPoocb1aHJ+Jrx8NezgKvp/1r3EfDe+J52OcRd7rDH2m/ledYXZ9bl2udo2N3Mcg+tRh6jAcGA4MB4YDw4HhwHBgODAceHsOzOXq//1fFxzyvT35BvPBfDgwHBgODAeGA8OB4cBw4DNxYC5Xc7maf14zHBgODAeGA8OB4cBwYDgwHBgOXMCBuVxdAOJnum1PLvP1aDgwHBgODAeGA8OB4cBwYDhwHwfmcjWXq/lKMRwYDgwHhgPDgeHAcGA4MBwYDlzAgblcXQDi3Ozvu9kPboPbcGA4MBwYDgwHhgPDgeHAZ+LAXK7mcjVfKYYDw4HhwHBgODAcGA4MB4YDw4ELODCXqwtA/Ey37cllvh4NB4YDw4HhwHBgODAcGA4MB+7jwFyu5nI1XymGA8OB4cBwYDgwHBgODAeGA8OBCzgwl6sLQJyb/X03+8FtcBsODAeGA8OB4cBwYDgwHPhMHJjL1Vyu5ivFcGA4MBwYDgwHhgPDgeHAcGA4cAEH5nJ1AYif6bY9uczXo+HAcGA4MBwYDgwHhgPDgeHAfRyYy9VcruYrxXBgODAcGA4MB4YDw4HhwHBgOHABB+ZydQGIc7O/72Y/uA1uw4HhwHBgODAcGA4MB4YDn4kDc7may9V8pRgODAeGA8OB4cBwYDgwHBgODAcu4MBcrjZA/Ouvv779/vvvQ7gNrD7Tl4fJZb6kDQeGA8OB4cBwYDgwHBgOnOHAu16uvvvuu29cXP79999vv/7664e9vPzwww/f/vnnn2/ff//9h43xTNFHdjaJ4cBwYDgwHHhFDvz222//nRn+/vvvb5whXjGHiXnW3nDgc3PgssuVlyQuSruk4ULF76effvr2559/but19vVf7WCfmH788ceH7BPjL7/88t/vGZdBXxhXxNrhc2vs559//u8CeW9u4I7uLT/d/D2+9cfFt7PpGHW/NydtZKvfHPso/au4vpsP2HPAAd+67lY2kH3VQ5F7zC7POfiJzwqP3fEzGO/aPJI7ux/JPfbII7vvOedesMvVK2K9Z41c4XfXRsZHDVPvrfa6jGGnNqxD1hZrAt2M+Z7+W6+ts/vIK6ytxB08z+zxZ/ea9HWmfyWf7zmznIn1lWSP1s8ff/zx3zoFr/fMiX95RpxvGcdllyuAc9M4CyKL64pNkgVdN2c3pkcvV+REjPwFy4V1hc3Eyk3marvp46jPBRIC1pfskY5zj25cZ32DEfWmHkdfL5G7Nydzy/bRPNPW1f0rub4bm4ecuu5W+hy+qdmu/MrOe42f2ePIkVyvuHAcvcCehcWZ/Yi/6rs23mv/2sHBNUJuO/JXyJxdI1f4PGOD2nV7pPU8Y+te2bMY8S6+6p/qv8faOrOPvMrasvb37PFn9hr9nG2v5vPZM8vZeF9FfrV+WJ/wXD5ccca/BxP2/PeI49LL1T3khaCPvOgobPe7pwi3dLiFS5ArN3f9+uJ/r8PJ1RcR88qWHOFJjtG/xzcvZLiDzWpvnt/uT+6rzXVVAw8L78XzVVw747t7HLkhS647dj+izD37ES9S9sn3yme1v2Q87N3PqM3/097ZW7tuJF07mzcNhaEglINCUAQTgAKQKVvmmOPJHU+u3PutR2s9o/2VCkCDBHl4eMrg6kZ3/e7a3UCDPPe6h6Uv+2fXiHqPao213ju7vflRMVS7ZzDiYanqf6br1X0kc/rotZWxHPXP7vG37DVHMTx63jX0FZ4/zHUVU+rPGuUZDR2e8696GbIaA3Ly0DjY+591f/rww9UZoI5k2bA+8uZwFN/R/EdvMC6gR24WLLiuRs/wfYT/zN92IDvzUPTZMb7loeiz5vzR+9EtuG3tL7fYOqvj2/dO79XXCPE9ct/vMKljr45Rjfee66+0j6zg9Bn3mq/0zLK3t63U9yvKnDpceepjE+TDT17yWyc3DE6J/sYRme53jtUWN0VOtxRB0tJuFaXqcxqtN1b8GuueLX3gHxvq8LOzjJ0+fpwnX0/E2DBn5hMDrhMn/dW2bjDigH7GL8602KDlw5stY9M2OFEDxo9unvqrcoyTm3bABbv6yLwdqy3yia1xmkP6pg74QIb5xFi7xKgMcRGDcuJxJnfspk3jsxUDr42DFr9gn/llvWscmV/FMu1mv3LTOGiJe4/rR7zVT+ZfMVWma4kBzMmTlusur6txwl7yMjGh38VaxxI33nKBgTzvuGd++sYP8tjRdq2341tt4l5zgHfyHN9p4whPZYkn9y14Cp+c32qJi3iIIXFJbqvr+hC7Wv/EudrrcD7iu35tyTHXnzhimzmv8a1OxTXlkLemGTv5qZ+tvNCPrTJcG4uyFSNlM3f8dXjfWlN8dPaJjxobw9aevso57WSbfvFH/mKM3ApGWYusZfqx7xqVk9jPD3KVA+qyF4C789jIWJWrObHOqI3zW60cMEbi2vJBnrnPVd5krdIeNjvuHO03NebEPH1jWzyJAb1b+ZF7Tfpf5fkZjNJ+7Yslewkc8LrDEp+MEzs8kCvUFhy0bW7IOkYrdsx7bZ9r+tqEG8SiXXzwAR/5jXzGkbXSr/xQxxhslctWripji4zxIZM69DN+5HL9JKfAEVljwpZ5Vptcp27meAsfz+LXxbM1tny4gmhZYJJnI0lQLQIt8sg4xrVBmJBkseAUDaAlLa062RoLti2CBwvGUtZCbNlSFlLiHzuM4YPCUXSuydUFx7X+6ublYqQVAx9syFt/XYsvMXBePxl/5o8cOZu3BFOfVjzNJeey38nhn7rrn5ZrsEhd886xrp+x5ry+sW0NrAm2U5brLiYxSB9gBaZHuVfszVOb+u/yJBbG4WJymfjVMw5wMz9zhh/Kda1y5oAt7OBX/qPXcf0MbztMa527+MA3MZCfrJ+UT5krcKI2+MAfflwr4pS+9/quGeyBNbJiXuvPNfnS4pc8HDMO9OlfyTvyrLGs4Lm31yY/O3xcE/gWF7GCa+qs7hHykzy0pw/XRGJvHcGy47v+s8V2xYl59xL9qmMtvTZGfTtunHt7uDLqZLu6RoxTPORhxnNPTbXvfSvXYfog9lv3uszbvn7Ni5rCq/S5ipE1qrXUly08WNkf6toCX2LJWOEfY91+W+VYl7kXGE+2xIY9WmS39hFsY89cabmu+7K1otVe99whR6u9bs1kvFXPOfRSd2VPUjfbzv4qz89ilH67PtjKCetofLTqgKGclQPynDooR2stckxZbWLLPvpd3cU6cSdGdInbOIytPlugt7ImMk765l/HuRarnGN/yfjVl3fIuo6JyXHlzCNtZl859ZxLXBhb4eMZ/PSz0i4friz2nlESo8i5AQESYwkCtqqcQEAQgZPY1eeWfldk/Fb/1R7X6FYidnI5hl1yzrEudmO4hTDqJn74k0TeCLxZ6j9j0gZzOV77q3LWOfU7vzlv37i9ttW3eTjO4kiMXQhVTp6xYF1Q2qBOR7l3ceEDXe3QruRpLtUntuBu2sMv8eZY7Xc+3Zjxpbx+c8y5bCtvVzBN/drHXr3ZdzeTqme8t+KE36pLHMmX6rO7Fl8wzXn3GdaY49jG79Eeh3wXn3ZsV3nXyWnDtsPTHDJe5OEce566Xdvh4n5Tca/64pTjxscazXFwyr1XvynT8T3n7W/hpG9aZWnxjU6OgU3Gwxw41rWbOvS7uJXBz8oa6e5DxJd7xD01xX6Nw/Vfa7qXj3mJa9V13rbLyznbVYz0WWupHVvs1bi6/WGLM9qhFYv02WHp+jjiCj6JL9el97D0kTHYV9frjC+fmcQpnzu6XLv7XNqmL0fqfRde7sVrDLUO1X6H7z0838Oo+q7X6mZtkKHeuQ7NrcMEG2nX/HKMvhy19uxzW1grs/WMUzlHDBlv+ss4ujWR8/S34mcOP5mv8SfvkCPX3FfF7+h+UGPhWh8d9rfwkdhW8Oti2RpbPlxRpASwM8g8QeacAGbC2KobPDrqM18BT5t7+jXGzn/aou+GeLQBVD1yrf46EhrDkX11Eyt1c4w4xErCuhFoI2PVxpH/VTl9p4/Ob87bR7dixtyW7yrvBlMfhNW3JuKBbcaOcq9+0OtuOit5Gkv12cWBX8bFp2s7n93Dpn5pOzuOiZHXR5jWPNSzrfYY72JW3tZ4q/1VnDq5lRuF/m2NteLWjXf1Mo+q38WnT9tV3nVy2rA1jsRzb68kPnW7tssfudW8qn3j63AiP2PQr9e0Hd9z3v4WTqu+seO6dw+hBUdu6Prp2i5u5cAic2S8ym/dh5RjHr1ba6r9+kCCza6m+jWHrhVXZLt5xvS7J4PcCkbI6bPyqPrvcur2hy3OpD2x0Kc5bWFZa5226DNPfDm+mlena3ydvcS9y1W+p27XBzsOGM7xjHaUpzllDOpna/ziy9ytPEd3FaOMwX6n29ncyq3D2Pz0YQsH+JCrXDq6HyOPD/cnbDFWMe7y6OS6NWF8tlvxM1/zNf6spXLkqU3xq3Lmp9xWeyUfO1w6/LZi6caXD1ed82qwC6YDcAu8Tr/64HpPHxup0/nPeforMsixmXDypqjE0MXRkVD7lfw1DnWRd07dHGOOPGuujGtDfVptHPnfkmOcU731Mff00fnNeftbcW/5rvL6QV6btFv6zBHvUe7a9VDPzZONoL7NUC59s8mxoRArNx/xqT67OMQ07dW+uRkL/urGgo5yFZsj3ppT1dNezaPGR17kkePazLGrccInNaJW+CFPYrGG6Xuvb6w1/268q5c4Vf2u3jUOfRjzFu/wWzFewbOrDTF0eWzFtpIXMkd7xB5OmZtyR3yv8ZpX2lJGm7SO0Xb4+ODMmkaGNt+4pn72rWWO2e/8VHljRLb7GHtnCz9HNdU+fo3LFpt1vMaH7ArntGmrX+N3vLZdXl0Mq/bAY2V/QK5yhoM0D7vasB7mYAwVM3Lq8qi5Yhe5HNemPpzj+mht7eGUMSp3tN/oO1v3V/dbctCOcrfwA13jyty3cNzC7haMjDvbzj7zddx6Jb7KIZs2zS/H6JNj1Vc2sUB2y9+WnRovcoytrAlk82NMOWYfm5mvsuTWfdQzn5rnVt3Vs72Sj10dOvz0vdKeOlwd3WC6YDoASYSHwxpgp19luN4CH30+qdP5z3n6yngzrfNce6jKt5ddHBIrbWifuRyvfXWRd07dHGOuy5VxbahPq40j/50cmLAY039Xp85vxmB/K+7ONzpVXj9b31x1OXYLx3iyhZPkijwtmzU3i5TRv2PMc6BK2a1cujg6LLWdLTd6Y8MOfPQmp5x+s1YrvDWnM5jqk5Z4yCPHtOnYI3BiLeZhln5Xf2PYao01cUO2G+/q1eGOflfvLoYV3tV1sIonMdy613b5d3mt7hF7OFX+rPC9w7LipMwZ3+iAmbjBq8oN7WYrXjlmf2WNGGN9YNWG7a011T5xasu242rNZ5Vz2rTV7979FdkVjJDTHq0+unZ1f6icwS57bcYrFvo0Br9tSP9dHjlPH5/I5bg29cHc6toyvs5erffKfpN27FN/YiZn7j2sC+docha7IQAAIABJREFUb+UHusafuePLNZh+Knb3YJR27Vf7W+PWq+Jb+YS++WnLlhyrvrJn7sednS6P1TVhfLbG5HW2NV9l81k55e2LX9acOXLBpnJb7ZV8XMVvK5ZufPlwRbJ1MVWDXTE7AHngI5kKPvaPfOBTP4CbMbAh1qJ0/lPHPvHwgOx1ttqoZO9IILE6feZyvPbVTbLpu+qCU80Ve50N4u7IU/13vtCrNxDxT3395ljXR5c61bnONzLIZ56+Va618i1G92CykjvxV5s1Rq5rnl4nF7dy6eLosKx+sbeyLvRLiw2vj3h7hGnVr/GRV9boWTjhs6t3je/o2hqKm/Lwgdyytl29xLnqd/XWtu0q7/CbGBtzxmYczGl/b6/tHlzUo9XHUV7kubJHGF9nL3NjfoXvGat97KzuL2DXcRdb7ifklbHpp2vFq770QLbzo3zaIvajfeiemhJHrbvrP3lDTDU+r484l/nYx+9RXqsYbfFIX7bUbWV/QC5rTL9iZO7JXWpVecozDXnU9WBMtvhAzmvaLq/OVqdrfJ095hynf1QHZbsW7pEzNvLwiawx3MIPdRPfVZ7fg1GXY4cvcuSdvLBeiS9y6PNJ211+cqXqux5rndyTOk6DQbXT5cFYp5+xdn3j7/a2mq/xH/kRv6w5vsml4tfFxNhVfFzFbyuObnz5cOUDem4agJfXEI8gc3Ehw1gCLagAiCwfiFTluoAZ06bkQ584KvlTNv13dtHHvw+S2IRQ6EkWConunj/zyINjh91KDPoiLrDFLx98kGtHQH2JDbEbU9aq869uynkDwS86bKhdnfWReXc+EmdsimnnG33y5JO2yDtrBZ+IU4xS1g1MPHIu+9g8kkG+5gkexOKNBn/KJI5bcXRYZlz04WGXW5VzXcj1M7zdwrTjWPqlhvIzx8VAPjwCJ/yaa/rOvjcF+Ztz9pUh1xpv1hD5rl4Vd+S26q1P21Xe1XWwiufeXltvasZkm2vVsS6v1T2iw6njzyrfjSnbjDn3l/RDnw8cBVdqmjboK5/7TJWp13UPwz54aav6qWsEe8bvfsIYuOU6vKem+nTdEJ9jleuOI0Mcq5yruGReYMQ1mFBn4ziDUcejzufK/oBeXVs+1LN/Mg/e4F+54L4hbuBEjVkP5NPF5NjqPrK6tmqt8FP5yNjqfmOctdUmmNUcr+QHfld5fg9GNT+urTV1JUc+4it/kRML66+tyqeUxQ7X+VwGj9S1NQb9gQV5wpuKO7yDm9rWRsex1TWhDduaK77cF7p8XQfEjQ1iJs/EqlvHyBEj+vrea43rHj6ewW8vljq3fLhCETBIguQpNGBZaMnHHDLI+3DHGB83K+YAxeIzR18i1SC7a3wTA7pshtiWkCv+O5sUXpvYcONHlo3DuerPA4KbCzEhix5xqcd42swYJJq6iRVz2sAXmJtrklV7jGmHvoTd878VJ4vDmlsjsNe+2HCdY8ZS24ydHPC75ZtctSvG2MMGfBMTWq4Zr/6UwQ71qfNeJ/76pCVna9HVF325n3FoQ59dHOohK2eNJ9uKj7aTo8g4Tpsx6xsMGZc7R5jKnYyl9uUGPsmH+WfhlPhl7uQlF+SqeNT4uVYGXMSKvBhP+fRnvbZw1w5xyYG0ZX+Fd+Rjflkz48EXfXJWLn12e603PeOobcaFffHr8lrZI7Zw6viDbPoxJ2SJq8aa12Agv91fnEdXu+DITVVZ8FPOljHr7NhR696LnvezLsetNYJ9eKcO8Vrb9H1LTdEHH+yBadoWY3HYim9PNzmXsdoHG/Env6yl+RLHXgxbPNJHtsZqbra5P3RrK3lBXNQDjqvvWsBX1op5eZVx1H7GhX3mt/JaWVtdreoaEmta88g273M13npNDeveqIy5ddza4kfGhF7iu8LzWzEy5tq6JyQ3fPZRdgvf1KGvPK17AznSZ4wacG19lHedMqcM2DKujK0yyImxdWBMjiGf48z5IdbOtj5ojR977m1b+db4XUfa2+I7csZErMrvteR/Dx/P4LcXR507dbiqynP9///R3+DxOfFgI2DzdGOyjo7n5uTcM1s2mbpR49+N0jdIz4zpo315c8sbMTE57sbMpsvmuRcvMmzo3KT35K6ek1+vyrur81219yp85yGrPvSs5jByH3svcB842h++Up1mv1njpIerd+PGrIm1+l9V9zlclX8V5Spgx85ziXwP3jzc8nDd2fBtazf3jDE2xK0Hf94eMVcfIJ4R10f74LDJTbCLg4Oyh1H6W2+11P2ow9Ur805snt1+JN85XMsp34Y/O//xd819Y3V/+Ep4z36zxq13PVzNmlir/1V7whyu5nDVPqB2BONB3oePbv6zjvEgRW68Mc9vgXhrvfeV8zPy5W0jMXBIyEMUMTP2jvVYwdUDEQ8MYIQOrePgw8dvsPZs+nMHf+qwJ3vl3Cvz7so8z9j6SL5TD9c77bP5cAanZ8h+5odM94G9/eEZGL6Sj6+w31zxjMJ9FTveV16phvfE8hFrQp9w757Y79X9iDjmcDWHq2XSX7Fx3btIHqXPg5QPE+TJh032FX4WxKGKt0488Bmbv2F+txvAmfqyYXojFBdwOrORU191wTcPsGdiuVX2lXl3a0736n0U3/ELF+ABD+X35vHZ9d0PP2seV+wPnzX3rbjffb9h/d7zwpGXcd4PPvrPAbZqeM/4s9fERxxqOnw+Io45XM3h6ss/RHSLccae+xX64D14DweGA8OB4cBwYDjwDhyYw9UcruZwNRwYDgwHhgPDgeHAcGA4MBwYDlzAgTlcXQDiO5yyJ4d5WzQcGA4MB4YDw4HhwHBgODAcuI8Dc7iaw9W8pRgODAeGA8OB4cBwYDgwHBgODAcu4MAcri4AcU74953wB7/BbzgwHBgODAeGA8OB4cBw4B04MIerOVzNW4rhwHBgODAcGA4MB4YDw4HhwHDgAg7M4eoCEN/hlD05zNui4cBwYDgwHBgODAeGA8OB4cB9HJjD1Ryu5i3FcGA4MBwYDgwHhgPDgeHAcGA4cAEH5nB1AYhzwr/vhD/4DX7DgeHAcGA4MBwYDgwHhgPvwIE5XM3hat5SDAeGA8OB4cBwYDgwHBgODAeGAxdwYA5XF4D4DqfsyWHeFg0HhgPDgeHAcGA4MBwYDgwH7uPAHK7mcDVvKYYDw4HhwHBgODAcGA4MB4YDw4ELODCHqwtAnBP+fSf8wW/wGw4MB4YDw4HhwHBgODAceAcOzOFqDlfzlmI4MBwYDgwHhgPDgcKB77777tuPP/74jfYdHvgmhzm4DAeew4G3PVz99NNP3/7444+/Pt9///1sjOWmMQvsOQtscB6cH8mB33///dtvv/02+9vsb8OBB3Dgl19++fbf//73KYcr1jLPLHOQm3vGrfcMnnXh659//vmNZ+Bb7Yze/Rx828OV5Pj3v//9bQ5X9xNFPKcdLIcDr8OBH374YV4gPeChejj+Ohz/17/+9dfDIg+Nz7yXc8jBJ2vsGXzAHwcsDnTP8Dc+XofjV9cCDs3h6mPre9nhik2B0zKfq4myas/N0Lc/bMqP2hjN9ahdjf0ry7ERgOPPP//8YdwR/19//fV/PObnII6/Ygu3fUv1UTdk1hjrjfqtxACmyPLS4xUx3YrJBx9iv5IXZ/H7z3/+8xd+GSc3UdYOn9U6pP5RP3mG/yN55okDboLbivxnleFbw1XMV++Rq3KJmfxkLT7qnpf+bumf5bo+vJ+Dy5m1dwuOYEc94TkHuVsfULFzZl8EGz7UEd+07JGfef2QD1h+lW/Wz+wFcru2t64RuALWrA+4h51q++g6n32OZD/bvLW5BZdbc73scEUAbma3BnOvHgQDRD6rDwG3+oTIufnhT59ujMjcav8r6XETAzs3h4/O3U3mzI38o2IGO3BbOdg8KkYeQFZjYG2I70fGfBYL9hQelh7xAuAMfq6TGr8Pc96cr+YudaPG7nHVf70GJ/Bala/6n+EarMEEPq8+BK/eI1flxAmc4SixvPKh9gzXzY0WfpNbjq30z+BIDcEO7qJ37/50Jlf2cdYLLXkRw2deO+w/5MMaEdOVen1WmVv2gq1cz/BGrsBX99zVvajzzx7CntbNfdYx1nHiw17yjFwuPVyxGXxUYVjMEEPQ6D8SRPJM++Sem6EPvcbz2VoImfk8I342Bw6sz/C154Pcqe/VD6h7Ps/MERfx1c+z62XMxnPmYQQdNrx7bgT6f3TLOgdbH3yu9ncLfjUG1o37EW3uhVX21mv4doZj4IU8+d3q85X14O/Z3MADHI/yWpXDDg9jWW8e9M6sxaNYrpy/leu37hVncAQzsCNf9iV0a+6MrWJ7Nld8cyBxnbmeawyf4RqcjF8s614vPp8hn6MYb9kL4FHHMXFZ4VnFFg7xHHUUb84TQ32W4Jo4Uu4z9r0HyT04+axnzLc5XH104SFot1A+Oq5b/bNZvFM+Z3BgU/tMmwuxrmzEZzA4I3vmZnDG7leR/Sz4wbOvuidcxUXwA8cje6tyR3Zebf7ZXL8SRx7Qzuy1z8711Wp9FI+/YDiSe9f5rWesj+SNzz7vivkz8zp1uPLUxwbDh7cs+VW9GxmbEG/SlPFtEIlhQ31IZLJ8dcw4Nqoc49qgVR//6uvTNz8Q1zcnyBgPuspqJ3PQ3tmWuI296mbM5My1+SYGvIEkbuPKt9HYrHZYCOaLb/JK37Ve2qXdihWdjEEd5Kv/mocLE52MQxseALi2j9xe3tokLnNlDB0xpM1aY9Maq2MMthlf7euT2tDXRseT6odY0NGmuSZ2vE1Ju13t1K9tYkVc3qDSJzq3xFXzXY0LPfPMunT65E7M1o4cwMY8E6eVeG7huL4qRuRAzM7TJt7M1zWZstk3P+wRIy36NV90VvHLPSx90c845UXKMGaNHN+zp0y24pP5bK093p7mPpJrB/2MJzmzZY9Y1SGO/GSMXZ+1YT2wwTWxgTvyxKM9xxhXp3LiiMNdDI7JA6+zBvjDNnPKyVHiI/ZcK9ogfnhpDuQGpjkvduT+aLyTi8REXsa9ynVjr7UDLzARo1ob9WzvwRFM9UX88kGcaYlPX7XdyhU7WR/08PMKa2Zv/xV78hILuAb/au57dUPWuiSW9Ksdr+UvMnIp145jyCf/0Mu9R3urbeaB75rv0drr/KCDnZq7XN7iDfPyMe1mjLnWUqbrYwsMxZaY3EeUNxZipe+49TNmWvvIZA3Qzfsm8TKmrRoHc2lLOdvkKPnKP5+F0Ccv5K9eV8aw0i4frtj0KYILjKABLEGgLzDII+OYNw2CAnjksliMq2vggkgxHKO1OILKGMTgo19iI15iUNfFSJty+E1byp9pyTOxqLrmQlxsomBAfGLgvF/pEh/5IJPYKYcvdcVDXXyTN7r4o8/H/NWrMeb1Vj7638qDcfBMW9bbOjJvX3vGnnkTs7lhjzl0wUV5cmEMv+mT+Fl4Yod8+k3Z2tcn+mLlwiVe5Ykvecd49ZM+tZG1M37GtLvViqM3i6ypeKJ7Ni5rkHGJgThvxcS4OcA35Y0VzqnLGgMPZaw1Y8Ss3Go86NzD8Vo7c65x1HjrmlS+tvCHD/UiVvLlGv2UXcUPHddw6ou1cWqvciK5qD41Z9zrvRY5YicG8+GanFIvZZAzZuJU7llrGeyJB0zwnZxzjHExzDHGyTnX5iqHzbO2Hd74yHWCjnK0xAyOjnGtXeJ5JbzFUS4SK/yQi3KTmJVRp2LAddYOXa7BQYzsi0dtxYx2D0fmEkfjrvaplblUX/XaXPN+hV2usUNfnfT90Wtmb/8FD+tmfvXeu1U38jZf2rrf5lztW5/ca8AJHIlDeblUY1ytmXZo695hvvpbXXtpM/tgWfnFvH7ghHmYV10jNUYxNcb0V/vUAzzJQ7/4BNOUJYaKs/Uw/sxF/hi7nMc2NTNGfRAHH9dDnVcuW2VqnhkH8levq4zhqL98uHLB7BkkMYoAgMp1hZE8FRh0LZb6gNMt3iSZxZQk6OrDAjNmQSzilpy+z7S1qFXXeIihznENyevmQz5gkrlqh5zTDnKJk3K0yrkZbcWgHO1WPtrdsiHGaYs+8TEnH9gsGN/Lm42DOHJDrXgYKzxJn/rLMfCt/Mp5++ZgjIxbi8xb3qUcstQB/26I1qqzizz1RT75ayzZdljB5Zrr2bisqXHqE7vJKcdrqz71yjlqcoS3mCRPtXcUj3Kpu8pxMdrDvMNbHuSazJyzX7nLnPmmX/NYwU/99EOctU74XlkTyFHntLfVR67uUXJ9S4dx8yP2lMNexXE17pW17NrIewD+rX3yxhhzDFliJKaMu/atSdWtclxXvKl5xSDlju6l7h0phz61z32TsUfjjY+Oi4z7Eecjrlu7Kuf9gxqSY4edvmjFO/HRRtYLO3W9WNdcq2BYeZz+sr+Vq/eFPTvqVpln1FDfuf+6r9a1UNfhSt3ESHy9Pmrde+UEe0/GiH7HP2KutT3yZR5170i9M2sv9ewTV8WTOfE3T+XJIeW3YoQj9X6gDVv3wPrsYk7K0RoPbY4bf60LNaj3iZRBz73JOHKNpY+tvrl3GNU404a53Lqu0tZRf/lwVQvbGQY0CptzJpMJd2PooJvkYQzwGHdzpCUWwNXP1g2+kqxbzMZSwdb2aivRtuT1kzgom8RzzLZismVnRc4NciXXrXy2/BtvhzFzxMeH2rkgjvJGnkWYC4+xGn/Hu06u3giMubbmUGtVbco7uakd9ZE3V+Ycr3a3xrVHe4QVNpQ/G9dWTYm/rkd9ZKt+xsD8FodSt8tdexWnGk8nt8pxMcpYsn+E9wouXf57+a7gp76xGmfVVe6WtaPt2lb8mddPlc1r61RjxF4dAzPGU7+TW1nLPkQnBtg1nuRXN4Zsl3PGRl8M0l6V8dr84CkPMnycy1a5HOtiZD+tDzLodPodjqtyK3hvcbHLoas7sShr7erDnxhYl7r3qm/b5aeNrFf3fKNcPmB3GOqrturXXJEz/qrj9ZZu57/LsZNbqSH+9U1rPLSdTXyfqVti4bpJH0d9eYHPtIXeFv/0U/eBPV/6qRikzpm1l3r2K3aOi3/Nr8pvxYgcsWmva73/1fUjVqljPBUL/MAJPtjDljXI5x5tKZvPdMahzJkWPntIQ4+DGjHt2TCXiu0Wtxnfs7c3t3y46pxXw4Kd4yaThenG0MFHBcdiucHRUpD0oV/06yft7RGngp32V/r4SV9VZytn5JzrYqiYKEubPqocRHfxu4B8K5EH07SR/a18tvyr22HMHPHV/LRVx5Xv8OzsIMe4MdAyRv5uqL4hoU25rm8OHcYZa+cXe1v6Z8cztiOs7olL212+XQ0yLvrqZwyMo1v14R4bL+PUh7rxSd/ayzHsIZf27uF4F1vmZQw1py6O1Mt+56PjwJavPX39qCuOtU0Mmav54INx7e21yCGfMuaTY9SFfRpZbn7GVH2vxoOdW9ZyFxtxilli040h2+W8wuHEI/viLSb1Xqascl7TdjF28SHb6T8a7y6+jD9zqFwgXj7KW7us0Z6+erXtcOjitB5dm7F2GFafXusn9Z3DTub7KmuG+Iy7Yt/lfk/drLGYrLbWtD7HGHdXQ8ZqPnv+VmKrNdSe8Xm91VbslDOPypsqb4xb+Wqva7di1GbqGE/Fr8aDjrI1duY6vDob6Xuv7zOdz3jYqs93V6+rvXjq3KnD1daNQKNdwQQ7C9ONYaMDn3FOqHzoc7NOW4zhN0+wjHWfPeJ0ZOhsbI0dkWQrZ+w5t3Xax7Z+la0YdNjx1i8fYMGwvgnUbm238tnyr36HMXPEVzHW1kre2u/sECvjytCy8eaDHf3qP+Wzbw4dxmlDvyzgFf0tu1vjaVOs0r/zFZOzcWm7yxdb+tlq1a+xoZv6yMFHX5Rgr8tdeyvx3Mpx4iKWo5zOcLPaqvkf5XuEX+rrS6zqTcX5bCtPmCPGunZSJ/vIZT2Zs37KsRZYa7zIcV0YY81vNZ5b17KxefM1RuNJfnVjyNeckVvhsL5qm3izDjoM0Ek5bXQxou+9Ubkt/c5X5+dWvI0v13fGRF+ZygXi4KO8tav3qy199Wrb5acNWuXBZutbRGVoOwxzPvv6qblqx+epV1ozxGbciY8x11zuqZs1TsyO+uxz4OYzoXtMxr2yFx75Mba6d6TembWXevYrdo6L/yrW9ZCpnb22WxfIm3fqGk/lQxe/sqv3TWzs3Yczjtqn9tQAX9SpngEesa5qDHvXy4crQKjBV8NdwQQ7C+NYkkegsFHtslgEsZv3JnVEsj3iZCzV/8o1cXWxqWvOiYNztBCs4ks+5q3slh3k0j94YvMIE+3WFlsd6bf8qy/Gmad5dBjv5d3d7Miz2iFWxo2BlrFbN9kuB2xW3/Ku+tn6hnDLrvLULHOoffzXByk2lXvj2qopdpNTNR6v1e/qkvr0a/wdJtpLDuGrxnMPx/W7tz72uNndPMTDlnwzf8b1m7mZ7xF+qa8PWuLs1krK0K/4MUY9GK+y3XWnbz7Ke51c3soPe13ONR4wrGtMf3stD+bYqrqu26MakEPNeZXDW3Ghn/m59ushosphTxwzbh40sVd5zL2krjXkHok3MeJjj4vm0MVBzuLmvlZtUUt81JqqV9szONb7b7XFNb49FHXzOWauda+Qlx5CX2nNEL9xJ8/M/d66Jc/Ne+8Ak3giB6dZl/S7fa8bSxurfTHY49mZtdf5hZvEW+f0vYr1XozVttdin/VgzpyUo92Kh/WSa1YdcqpryWfAup6No+5f2jpqiRdf2HU9qaPtK+9F2l5plw9Xbgi5UVDUvPZGnckgUzdDb1ouFK4BB5DqDYEklMdOJQPzFIaComuRaAE+5fGBDWXQ7fJChs8KgMoQOzqZu3O0HQ45LxHEkxjJh7zSZmdHfBI7F0Tmmv6O+sRBPuCDfbBcyUM8XURsguJOjtXvXt510yUXYtK2tsi7Ys81WClzps3c1et8g4sbibH64FZjxI65siFZF+Wtu/66VhzNCxuOpf7ZuFY51cXEmDXPGBhnTfBRz41brOCoDz/YUG41nns4DnbUDv/ghW/syXOurZd5odOtSeOubc2feWy5rpRfxQ956y1/0mbeXMCw3viMXfzJr1s7xpUtGBE38jle45HPxrLFUcaxh37a6+K5Zy1bA/ESF2xSb31nfvT5EBv6mfMqh7Vb2y4/xuCidUGnk+vWhWtAHht3ze9ZeFd+Ew88I3byOsP1ujeQKziBDXYrtt31Ko7GRc21jT9ikDvWhRgYo17uDZ1va4M8fWTQIyZ4pZ9XWzMdz+RP7o/kQx7kl/lv1Y3xlBNzMQT7xDplwTpxZE6uuddsjbnmtee+Lv6O19Y6uS6JjfyN0fqSF7b4kENde9Wu18YPDuiKbcVFefcyr2mJMXHBDvmJacpm33qijw5z4Mg18TvGOH3GlOXavbHWFHnxNQZ8GadYGgtzxC+GjIOrWCi31YpVridlH7GutL3SLh+uMAZJSQKgAQQQLYKkYg4Z5AGSaz8JLLawwZyEBWCusVWDt5h13GtsY0dfFBPgnRdo5vHLODrGwDgxMa4NdY9aMUHP3FOn4qCflKEPnmlLXJSrdrhmLnXEjrq4UMyHlnwlvXa7Fn3rQYuv6n8rDzeN9KXvTqfL29wytqyVG2rHO3RyPPMHUzmbtu0Tn/L4M47ONzrMJ++oBfloL1vGsQ2e2tuTT136xG1e6NNnzHi5Vmc1LuTUpzXfjlPazhZ5c0Hf+iYm9NFhI5VT5u0NSt9n4iH3eziOr9QHP2LM/DpuVpmUt9/l33HrDH7dHqa/jDO54TwtvqwreYO9nGQ8ZWtfPeokz7biYR65jINrPq7b5Ixj6iGX8eS4dmjBeG8tm/MW58g/86Q+xoXt5Ks55xgxgl/lcNrMfuaR+SW2xNDJba0L7HOfSx5b2/RtXlmDzg86OX4Wb/TZ//VHbu4JZ7iOHfc7bdES21HNzTvzEO8zOMIB5LVHy7X1OooFXlAL8s/6oFf3EGPNHMXe9SEOj6zhFj7pm1jBIvc48WW8qxuc6OrmswL6+bxWMRcLfFqHjEmMmDvaC93zam3TJ33izRzZR+qesbL2ql2vse/eREs8fDIv107GIQbGSD3UAUfy08deS+xyGX5yLTbYS3yIQx/4z9ipYfWTNaB26KS9lGf8aH2kfO0T11bOV6+r6nvv+tThas/Qo+cgn0R7tK93sA9WLJy6oTEO2d8ZSzeoupgd9+bw7Dq7cdUN+tlxvIu/r8zxd6nhUR6u2SvXMuuPPXDW4T//NvkReB/VeOb/WYd7MJka7uPJfZgH8nswHt19jAef//v2socrbnwcqCgSfQ4KU7B1Qm+d5jls8WCRb3reDVfeksidmhtvSPLNT51/5PUcrtb5u1KHr8zxFXzeQeYRa3kOV9vr8BF4vwMPP1MOU8NtflNHngG2vun4THWeWPfr/NH4vPThyocn2q2vjD8awFf1z+Gi4sZPEdh4Ga/faL1qHrfE5SGGA6R50jr+iDfWK7b9CcRw+ZpN8Stz/JZ18Rl1XFdXruWv8O39rbV+BN63xjJ6t+2Tr1JDX2IQz6vUkpg+6pcrr4LBM+PgRf7Wi+5nxuGaeMSz31YeL3u44qttCsNB4J2/ZdkqzL3jHCbYRPxNrVgyVn/vfa+vV9RnMeXveMmfg+WjFtfR4vWBzjrUnzm9IoavHtNX5/ir1+eq+K5cy7kOWYuzDv/5AH8l3ldxYOz8s057mLxCDV/xcLWH2cyd49gKXuyxc7ja+L+hVgAcmetJOZgOpsOB4cBwYDgwHBgODAeGA8OBz8WBl/3maoj0uYg09Zp6DQeGA8OB4cBwYDgwHBgOfHUOzOFqvrF7md9Df/XFOPnPDWk4MBwYDgwHhgPDgeHA5+bAHK7mcDWHq+HAcGA4MBwYDgwHhgPDgeHAcOACDszh6gIQ5w3D537DMPWb+g0HhgPDgeHAcGA4MBwYDlzBgTn3yfbCAAAJKUlEQVRczeFq3lIMB4YDw4HhwHBgODAcGA4MB4YDF3BgDlcXgHjFKXdszNuS4cBwYDgwHBgODAeGA8OB4cDn5sAcruZwNW8phgPDgeHAcGA4MBwYDgwHhgPDgQs4MIerC0CcNwyf+w3D1G/qNxwYDgwHhgPDgeHAcGA4cAUH5nA1h6t5SzEcGA4MB4YDw4HhwHBgODAcGA5cwIE5XF0A4hWn3LExb0uGA8OB4cBwYDgwHBgODAeGA5+bA3O4msPVvKUYDgwHhgPDgeHAcGA4MBwYDgwHLuDAHK4uAHHeMHzuNwxTv6nfcGA4MBwYDgwHhgPDgeHAFRyYw9UcruYtxXBgODAcGA4MB4YDw4HhwHBgOHABB+ZwdQGIV5xyx8a8LRkODAeGA8OB4cBwYDgwHBgOfG4OvO3h6qeffvr2xx9//PX5/vvvP8VJ/Pfff//222+/PTXWj/A5m8bn3jSmflO/4cBwYDgwHBgODAeGAz0H3vZwZcH//e9/f/ssh6sffvjh6YfBj/BpbabtF+XgMrgMB4YDw4HhwHBgODAc+JwcuOxwxTcgf/7551+fjyLDd9999+2///3vXwcU+v/617++cXh4Vjz449sycPjll18O/f7nP//5B1584/bzzz//9Vm1s5rfr7/++r8a/fjjj/+L75E+V2Mbuc+5gUzdpm7DgeHAcGA4MBwYDgwH/ubAZYcrQPWA9VEA8y0VP6vjw8HlI+LgoLJ6KOoOV8Tst0ke1vIgdG9OHrCqzUf6vDfm0f97wQ4Wg8VwYDgwHBgODAeGA8OB1+XApYerrcPCMwjAYSH/Xon+M7+1MkfiWD1cqVNbDonGTpt5Vdmz13yjRnz1cPVIn2djHPnX3TCmNlOb4cBwYDgwHBgODAeGA9sceJvD1asU+YrD1SNz2TpcPdLn2N5egIPNYDMcGA4MB4YDw4HhwHDgfThw6nDFtyh8w8E3H3z4+yJ+ZiYh/OaKv3fi2xZl+HmbMthQP7894W+lGPfnfCnHuDZo1ce/dvXp3zzxE0VsOG886CqrncxB+WwzNmyaJ76MS/k8XPETwdTFr3IZj2O26PkTy4px4rKHn7Zqu3W4Io+sLTluxXsWvxrDXL/PBjK1nFoOB4YDw4HhwHBgODAc+JsDy4cr/sU9HvQ5FPBwzYeHcQ9DgOqhgxZ5ZBzLf7HPv0vKwwH6HHbSngep+o9DeEDIwxOHET76JTbiJQYL7oGGNuXwm7aUz5ZDEh8OYthEn2t8pJyHK8b5hymYM1/8pqzx5Jiy6movMVDmCL+0a1/sUhesxA45fINJPXQa7y346X/avxffYDFYDAeGA8OB4cBwYDgwHHgvDiwfrnigrgeJSgYPUnmg8UE9H+Y9MOQYturhijF88vCfvoiFj2MewvKApA8PKch6sMiDXien3WzJjcNUjmmv81sPJuSRB8eMJ23io+aLXmJvzCv4pe30WXWrXFcL870Fv2p/rt9rI5l6Tj2HA8OB4cBwYDgwHBgO/N+35cNVdzioAHq4yvHuINCNodM90HNIYdwDGy2x5AM+hxFk0q/28qDi4SDljIW5HK99cts6HOVBZcvenr6+OKSRR43FuD3E6SP9YqPDT9u22qq6ztt2ttRVhtZYaswpM/3ZbIcDw4HhwHBgODAcGA4MB74CB5YPV91DfwXoEYcrDxx+A0WbByZi0C8x1k8eiO45HOwdjvKgsnXY2NMXR3VrDl7rRzmv1Ucu83U8WzGouv7NlX/r1dlSN+0ZyxyuZsNMXkx/+DAcGA4MB4YDw4HhwFfkwKnDVT3UVMB4sOehPMd9+M6H+W4Mne6BnnH/noo+P5tLW4zht/5kj/H6uedwsHc4ynjMrR429vSNU10OOo51rXLpF7kt/NKGGKQudc2/udqypW7aM5aab8pM/59cHEwGk+HAcGA4MBwYDgwHhgPvx4Hlw9XKAQaZM4erfCDn535bhwP/poqfCOKjEtG/68qfClYZru85HOwdjvKgsnXY2NPPWPnJY/49Wc7Z73zs4acerRgYs7b4RzJSrquFuimnftYy56f/fpvG1HRqOhwYDgwHhgPDgeHAcKDnwPLhyn+hLv+hBg49ee1Pyvz7KED3YJTfxngQQJ4+Hw4UfPvEWC2W8jzw10MAshyqOJTkty+M8Y1MyuMDG3kI6/Kq/rkmtvrtmH8Plj627HX6XTza9GeQ+Aa7PFSKxyp+mY/2jdmfXfqtJLaR6WrRxdvlC8Z80u/0+wU4uAwuw4HhwHBgODAcGA4MB96HA8uHK4rOQz4P3Tw4c5jh2woexpnzwZs5DyE+uPuw7T/IoC1sMMeDPQceDhBcY6uSjDHt1jmusY0dfXHw8ADBvN9uMY9fdYyB8TwApo+06yEEWX1hA/98OnudfhePPsE1cSZ3cVYG//rC/hF+6HUxM04saYs8rIX5dvFu5Ssuxjrt+2wYU8up5XBgODAcGA4MB4YDw4FtDpw6XH0kkDzsbx1+PjKu8b1NrsFmsBkODAeGA8OB4cBwYDgwHPhKHHjZwxV/y+NP4ejvfWv1lQo2uc4GNRwYDgwHhgPDgeHAcGA4MBx4TQ689OGKn6rxEzna/InfkOk1yTR1mboMB4YDw4HhwHBgODAcGA58ZQ687OGKv+fx76P4e5+vXKTJfTap4cBwYDgwHBgODAeGA8OB4cDrc+BlD1dDntcnz9RoajQcGA4MB4YDw4HhwHBgODAc+JsDc7hq/rPhIcjfBBksBovhwHBgODAcGA4MB4YDw4HhwBoH5nA1h6v5yeVwYDgwHBgODAeGA8OB4cBwYDhwAQfmcHUBiHOSXzvJD06D03BgODAcGA4MB4YDw4HhwDtzYA5Xc7iatxTDgeHAcGA4MBwYDgwHhgPDgeHABRyYw9UFIL7z6Xtym7dLw4HhwHBgODAcGA4MB4YDw4E1Dszhag5X85ZiODAcGA4MB4YDw4HhwHBgODAcuIADc7i6AMQ5ya+d5AenwWk4MBwYDgwHhgPDgeHAcOCdOTCHqzlczVuK4cBwYDgwHBgODAeGA8OB4cBw4AIOzOHqAhDf+fQ9uc3bpeHAcGA4MBwYDgwHhgPDgeHAGgfmcDWHq3lLMRwYDgwHhgPDgeHAcGA4MBwYDlzAgf8HUC/rGhB7twAAAAAASUVORK5CYII=;" vertex="1" parent="1">
          <mxGeometry x="-5" y="264" width="855" height="572" as="geometry" />
        </mxCell>
        <mxCell id="ajZ8VFf2TZVzlizMMy2S-3" value="CUSTOMER" style="whiteSpace=wrap;html=1;align=center;" vertex="1" parent="1">
          <mxGeometry x="-730" y="120" width="100" height="40" as="geometry" />
        </mxCell>
        <mxCell id="ajZ8VFf2TZVzlizMMy2S-4" value="NAME" style="ellipse;whiteSpace=wrap;html=1;align=center;" vertex="1" parent="1">
          <mxGeometry x="-820" y="70" width="50" height="30" as="geometry" />
        </mxCell>
        <mxCell id="ajZ8VFf2TZVzlizMMy2S-5" value="C-ID" style="ellipse;whiteSpace=wrap;html=1;align=center;fontStyle=4;" vertex="1" parent="1">
          <mxGeometry x="-835" y="100" width="40" height="30" as="geometry" />
        </mxCell>
        <mxCell id="ajZ8VFf2TZVzlizMMy2S-6" value="ADDRESS" style="ellipse;whiteSpace=wrap;html=1;align=center;" vertex="1" parent="1">
          <mxGeometry x="-795" y="40" width="80" height="30" as="geometry" />
        </mxCell>
        <mxCell id="ajZ8VFf2TZVzlizMMy2S-7" value="GENDER" style="ellipse;whiteSpace=wrap;html=1;align=center;" vertex="1" parent="1">
          <mxGeometry x="-715" y="34" width="70" height="20" as="geometry" />
        </mxCell>
        <mxCell id="ajZ8VFf2TZVzlizMMy2S-8" value="C-TYPE" style="ellipse;whiteSpace=wrap;html=1;align=center;" vertex="1" parent="1">
          <mxGeometry x="-645" y="42" width="60" height="26" as="geometry" />
        </mxCell>
        <mxCell id="ajZ8VFf2TZVzlizMMy2S-9" value="ACC_INFO" style="ellipse;whiteSpace=wrap;html=1;align=center;" vertex="1" parent="1">
          <mxGeometry x="-610" y="68" width="70" height="26" as="geometry" />
        </mxCell>
        <mxCell id="ajZ8VFf2TZVzlizMMy2S-10" value="PHONE_NUMBER" style="ellipse;shape=doubleEllipse;margin=3;whiteSpace=wrap;html=1;align=center;" vertex="1" parent="1">
          <mxGeometry x="-880" y="140" width="130" height="40" as="geometry" />
        </mxCell>
        <mxCell id="ajZ8VFf2TZVzlizMMy2S-11" value="E-MAIL" style="ellipse;shape=doubleEllipse;margin=3;whiteSpace=wrap;html=1;align=center;" vertex="1" parent="1">
          <mxGeometry x="-810" y="180" width="70" height="36" as="geometry" />
        </mxCell>
      </root>
    </mxGraphModel>
  </diagram>
</mxfile>
